<svg width="16" height="25" viewBox="0 0 16 25" fill="none" xmlns="http://www.w3.org/2000/svg">
<g clip-path="url(#clip0_3451_2)">
<path d="M0 19.0015C0.345052 22.024 5.28922 22.4927 5.59645 20.9522C5.58936 20.9424 5.58464 4.39703 5.58464 4.39703C5.49956 3.27398 4.96544 2.63921 4.1288 2.04107C3.34889 1.48687 2.37046 0.8106 1.8387 0.419975C0.335598 -0.683541 0.00236337 0.766655 0 0.8106C0 0.8106 0.0070901 19.0333 0 19.0015Z" fill="url(#paint0_linear_3451_2)"/>
<path d="M5.59645 20.332C3.3229 22.102 0.467947 21.3745 0.0567208 19.2578C0.0378139 19.1552 0 19.0039 0 19.0039C0 19.0039 0.0212703 19.2114 0.0472674 19.4092C0.0756278 19.6167 0.134712 19.917 0.19616 20.1733C0.90517 23.0493 3.31817 24.7143 5.64136 24.9731C8.82245 25.2636 11.7554 22.7295 14.1566 20.8935C14.3055 20.7422 14.5205 20.498 14.5843 20.4028C16.1489 18.0835 14.2629 15.5932 12.8709 15.6909C10.4423 17.2303 8.01826 18.7773 5.59882 20.332H5.59645Z" fill="url(#paint1_radial_3451_2)"/>
<path fill-rule="evenodd" clip-rule="evenodd" d="M7.39157 9.30176C7.56646 10.4492 8.2093 11.9556 8.80014 13.5156C9.27754 14.5239 10.2654 14.8193 11.2344 15.1147C12.2365 15.4224 12.7848 15.6274 13.2574 15.8691C16.5307 17.5464 14.1673 20.9399 14.666 20.2979C16.7694 17.5952 16.5496 12.3535 12.539 10.0903C11.1777 9.38965 9.81166 8.46436 8.84031 8.04932C7.87133 7.63428 7.21668 8.1543 7.39157 9.30176Z" fill="url(#paint2_radial_3451_2)"/>
</g>
<defs>
<linearGradient id="paint0_linear_3451_2" x1="2.79823" y1="5.3191e-05" x2="2.79823" y2="21.5919" gradientUnits="userSpaceOnUse">
<stop/>
<stop offset="1"/>
</linearGradient>
<radialGradient id="paint1_radial_3451_2" cx="0" cy="0" r="1" gradientTransform="matrix(12.4313 -5.50293 8.87681 21.4014 2.09867 22.3413)" gradientUnits="userSpaceOnUse">
<stop/>
<stop offset="1"/>
</radialGradient>
<radialGradient id="paint2_radial_3451_2" cx="0" cy="0" r="1" gradientTransform="matrix(-8.20089 -9.74854 6.78996 -6.09863 15.479 17.627)" gradientUnits="userSpaceOnUse">
<stop/>
<stop offset="1"/>
</radialGradient>
<clipPath id="clip0_3451_2">
<rect width="16" height="25" fill="white"/>
</clipPath>
</defs>
</svg>
