<svg width="18" height="18" viewBox="0 0 18 18" fill="none" xmlns="http://www.w3.org/2000/svg">
<g clip-path="url(#clip0_3426_9)">
<path d="M16.92 9.1875C16.92 8.6025 16.8675 8.04 16.77 7.5H9V10.695H13.44C13.245 11.7225 12.66 12.5925 11.7825 13.1775V15.255H14.46C16.02 13.815 16.92 11.7 16.92 9.1875Z" fill="black"/>
<path d="M9.00172 17.2502C11.2292 17.2502 13.0967 16.5152 14.4617 15.2552L11.7842 13.1777C11.0492 13.6727 10.1117 13.9727 9.00172 13.9727C6.85672 13.9727 5.03422 12.5252 4.38172 10.5752H1.63672V12.7052C2.99422 15.3977 5.77672 17.2502 9.00172 17.2502Z" fill="black"/>
<path d="M4.38 10.5677C4.215 10.0727 4.1175 9.54773 4.1175 9.00023C4.1175 8.45273 4.215 7.92773 4.38 7.43273V5.30273H1.635C1.0725 6.41273 0.75 7.66523 0.75 9.00023C0.75 10.3352 1.0725 11.5877 1.635 12.6977L3.7725 11.0327L4.38 10.5677Z" fill="black"/>
<path d="M9.00172 4.035C10.2167 4.035 11.2967 4.455 12.1592 5.265L14.5217 2.9025C13.0892 1.5675 11.2292 0.75 9.00172 0.75C5.77672 0.75 2.99422 2.6025 1.63672 5.3025L4.38172 7.4325C5.03422 5.4825 6.85672 4.035 9.00172 4.035Z" fill="black"/>
</g>
<defs>
<clipPath id="clip0_3426_9">
<rect width="17.25" height="18" fill="white"/>
</clipPath>
</defs>
</svg>
