<svg width="256" height="256" viewBox="0 0 256 256" fill="none" xmlns="http://www.w3.org/2000/svg">
<path d="M102.208 103.232C110.764 103.232 117.7 96.2968 117.7 87.7415C117.7 79.1862 110.764 72.2507 102.208 72.2507C93.6526 72.2507 86.7168 79.1862 86.7168 87.7415C86.7168 96.2968 93.6526 103.232 102.208 103.232Z" fill="#03050A"/>
<path d="M155.871 103.232C164.426 103.232 171.362 96.2968 171.362 87.7415C171.362 79.1862 164.426 72.2507 155.871 72.2507C147.315 72.2507 140.379 79.1862 140.379 87.7415C140.379 96.2968 147.315 103.232 155.871 103.232Z" fill="#03050A"/>
<path d="M102.208 183.748C110.764 183.748 117.7 176.813 117.7 168.258C117.7 159.702 110.764 152.767 102.208 152.767C93.6526 152.767 86.7168 159.702 86.7168 168.258C86.7168 176.813 93.6526 183.748 102.208 183.748Z" fill="#03050A"/>
<path d="M153.818 183.748C162.374 183.748 169.31 176.813 169.31 168.258C169.31 159.702 162.374 152.767 153.818 152.767C145.262 152.767 138.326 159.702 138.326 168.258C138.326 176.813 145.262 183.748 153.818 183.748Z" fill="#03050A"/>
<path d="M176.502 144.524C185.057 144.524 191.993 137.589 191.993 129.034C191.993 120.478 185.057 113.543 176.502 113.543C167.946 113.543 161.01 120.478 161.01 129.034C161.01 137.589 167.946 144.524 176.502 144.524Z" fill="#03050A"/>
<path d="M81.5484 144.524C90.1042 144.524 97.0401 137.589 97.0401 129.034C97.0401 120.478 90.1042 113.543 81.5484 113.543C72.9926 113.543 66.0566 120.478 66.0566 129.034C66.0566 137.589 72.9926 144.524 81.5484 144.524Z" fill="#03050A"/>
<path d="M38.194 136.238C44.4615 136.238 49.5422 131.157 49.5422 124.89C49.5422 118.623 44.4615 113.543 38.194 113.543C31.9265 113.543 26.8457 118.623 26.8457 124.89C26.8457 131.157 31.9265 136.238 38.194 136.238Z" fill="#03050A"/>
<path d="M54.7213 88.7781C60.9888 88.7781 66.0696 83.6976 66.0696 77.4305C66.0696 71.1634 60.9888 66.0829 54.7213 66.0829C48.4538 66.0829 43.373 71.1634 43.373 77.4305C43.373 83.6976 48.4538 88.7781 54.7213 88.7781Z" fill="#03050A"/>
<path d="M93.9635 55.7463C100.231 55.7463 105.312 50.6658 105.312 44.3987C105.312 38.1316 100.231 33.0511 93.9635 33.0511C87.696 33.0511 82.6152 38.1316 82.6152 44.3987C82.6152 50.6658 87.696 55.7463 93.9635 55.7463Z" fill="#03050A"/>
<path d="M143.491 51.6057C149.758 51.6057 154.839 46.5252 154.839 40.2581C154.839 33.991 149.758 28.9105 143.491 28.9105C137.223 28.9105 132.143 33.991 132.143 40.2581C132.143 46.5252 137.223 51.6057 143.491 51.6057Z" fill="#03050A"/>
<path d="M188.885 72.2507C195.153 72.2507 200.234 67.1702 200.234 60.9031C200.234 54.636 195.153 49.5555 188.885 49.5555C182.618 49.5555 177.537 54.636 177.537 60.9031C177.537 67.1702 182.618 72.2507 188.885 72.2507Z" fill="#03050A"/>
<path d="M215.76 115.616C222.028 115.616 227.109 110.535 227.109 104.268C227.109 98.0009 222.028 92.9204 215.76 92.9204C209.493 92.9204 204.412 98.0009 204.412 104.268C204.412 110.535 209.493 115.616 215.76 115.616Z" fill="#03050A"/>
<path d="M213.708 165.149C219.975 165.149 225.056 160.068 225.056 153.801C225.056 147.534 219.975 142.453 213.708 142.453C207.44 142.453 202.359 147.534 202.359 153.801C202.359 160.068 207.44 165.149 213.708 165.149Z" fill="#03050A"/>
<path d="M184.784 208.517C191.051 208.517 196.132 203.436 196.132 197.169C196.132 190.902 191.051 185.822 184.784 185.822C178.516 185.822 173.436 190.902 173.436 197.169C173.436 203.436 178.516 208.517 184.784 208.517Z" fill="#03050A"/>
<path d="M139.358 229.141C145.626 229.141 150.706 224.06 150.706 217.793C150.706 211.526 145.626 206.446 139.358 206.446C133.091 206.446 128.01 211.526 128.01 217.793C128.01 224.06 133.091 229.141 139.358 229.141Z" fill="#03050A"/>
<path d="M87.7506 218.827C94.0181 218.827 99.099 213.747 99.099 207.479C99.099 201.212 94.0181 196.132 87.7506 196.132C81.4831 196.132 76.4023 201.212 76.4023 207.479C76.4023 213.747 81.4831 218.827 87.7506 218.827Z" fill="#03050A"/>
<path d="M52.6412 183.726C58.9087 183.726 63.9897 178.646 63.9897 172.378C63.9897 166.111 58.9087 161.031 52.6412 161.031C46.3738 161.031 41.293 166.111 41.293 172.378C41.293 178.646 46.3738 183.726 52.6412 183.726Z" fill="#03050A"/>
<path d="M54.7045 231.209C58.6964 231.209 61.9325 227.973 61.9325 223.982C61.9325 219.99 58.6964 216.754 54.7045 216.754C50.7126 216.754 47.4766 219.99 47.4766 223.982C47.4766 227.973 50.7126 231.209 54.7045 231.209Z" fill="#03050A"/>
<path d="M87.763 247.736C91.7548 247.736 94.9909 244.501 94.9909 240.509C94.9909 236.517 91.7548 233.281 87.763 233.281C83.7711 233.281 80.5352 236.517 80.5352 240.509C80.5352 244.501 83.7711 247.736 87.763 247.736Z" fill="#03050A"/>
<path d="M124.894 256C128.886 256 132.122 252.764 132.122 248.772C132.122 244.781 128.886 241.545 124.894 241.545C120.902 241.545 117.666 244.781 117.666 248.772C117.666 252.764 120.902 256 124.894 256Z" fill="#03050A"/>
<path d="M162.054 249.809C166.046 249.809 169.282 246.574 169.282 242.582C169.282 238.59 166.046 235.354 162.054 235.354C158.062 235.354 154.826 238.59 154.826 242.582C154.826 246.574 158.062 249.809 162.054 249.809Z" fill="#03050A"/>
<path d="M197.162 233.282C201.153 233.282 204.389 230.046 204.389 226.054C204.389 222.063 201.153 218.827 197.162 218.827C193.17 218.827 189.934 222.063 189.934 226.054C189.934 230.046 193.17 233.282 197.162 233.282Z" fill="#03050A"/>
<path d="M223.98 208.514C227.972 208.514 231.208 205.278 231.208 201.286C231.208 197.295 227.972 194.059 223.98 194.059C219.988 194.059 216.752 197.295 216.752 201.286C216.752 205.278 219.988 208.514 223.98 208.514Z" fill="#03050A"/>
<path d="M29.9407 204.394C33.9326 204.394 37.1687 201.158 37.1687 197.167C37.1687 193.175 33.9326 189.939 29.9407 189.939C25.9488 189.939 22.7129 193.175 22.7129 197.167C22.7129 201.158 25.9488 204.394 29.9407 204.394Z" fill="#03050A"/>
<path d="M13.4115 169.295C17.4034 169.295 20.6395 166.059 20.6395 162.067C20.6395 158.076 17.4034 154.84 13.4115 154.84C9.41968 154.84 6.18359 158.076 6.18359 162.067C6.18359 166.059 9.41968 169.295 13.4115 169.295Z" fill="#03050A"/>
<path d="M7.22795 132.121C11.2198 132.121 14.4559 128.885 14.4559 124.893C14.4559 120.902 11.2198 117.666 7.22795 117.666C3.23608 117.666 0 120.902 0 124.893C0 128.885 3.23608 132.121 7.22795 132.121Z" fill="#03050A"/>
<path d="M15.4916 94.9694C19.4835 94.9694 22.7194 91.7335 22.7194 87.7419C22.7194 83.7503 19.4835 80.5144 15.4916 80.5144C11.4998 80.5144 8.26367 83.7503 8.26367 87.7419C8.26367 91.7335 11.4998 94.9694 15.4916 94.9694Z" fill="#03050A"/>
<path d="M32.019 64.0105C36.0108 64.0105 39.2469 60.7746 39.2469 56.783C39.2469 52.7914 36.0108 49.5555 32.019 49.5555C28.0271 49.5555 24.791 52.7914 24.791 56.783C24.791 60.7746 28.0271 64.0105 32.019 64.0105Z" fill="#03050A"/>
<path d="M58.8352 37.173C62.8271 37.173 66.0632 33.9371 66.0632 29.9455C66.0632 25.9538 62.8271 22.718 58.8352 22.718C54.8434 22.718 51.6074 25.9538 51.6074 29.9455C51.6074 33.9371 54.8434 37.173 58.8352 37.173Z" fill="#03050A"/>
<path d="M129.027 14.455C133.019 14.455 136.255 11.2191 136.255 7.22745C136.255 3.23582 133.019 0 129.027 0C125.035 0 121.799 3.23582 121.799 7.22745C121.799 11.2191 125.035 14.455 129.027 14.455Z" fill="#03050A"/>
<path d="M170.318 22.7186C174.31 22.7186 177.546 19.4827 177.546 15.4911C177.546 11.4995 174.31 8.26367 170.318 8.26367C166.326 8.26367 163.09 11.4995 163.09 15.4911C163.09 19.4827 166.326 22.7186 170.318 22.7186Z" fill="#03050A"/>
<path d="M203.347 39.246C207.339 39.246 210.575 36.0101 210.575 32.0185C210.575 28.0268 207.339 24.791 203.347 24.791C199.355 24.791 196.119 28.0268 196.119 32.0185C196.119 36.0101 199.355 39.246 203.347 39.246Z" fill="#03050A"/>
<path d="M230.191 68.1336C234.183 68.1336 237.419 64.8977 237.419 60.9061C237.419 56.9145 234.183 53.6786 230.191 53.6786C226.199 53.6786 222.963 56.9145 222.963 60.9061C222.963 64.8977 226.199 68.1336 230.191 68.1336Z" fill="#03050A"/>
<path d="M244.64 103.233C248.632 103.233 251.868 99.9972 251.868 96.0056C251.868 92.014 248.632 88.7781 244.64 88.7781C240.648 88.7781 237.412 92.014 237.412 96.0056C237.412 99.9972 240.648 103.233 244.64 103.233Z" fill="#03050A"/>
<path d="M248.773 140.384C252.765 140.384 256.001 137.149 256.001 133.157C256.001 129.165 252.765 125.929 248.773 125.929C244.781 125.929 241.545 129.165 241.545 133.157C241.545 137.149 244.781 140.384 248.773 140.384Z" fill="#03050A"/>
<path d="M242.562 175.486C246.554 175.486 249.79 172.25 249.79 168.258C249.79 164.267 246.554 161.031 242.562 161.031C238.57 161.031 235.334 164.267 235.334 168.258C235.334 172.25 238.57 175.486 242.562 175.486Z" fill="#03050A"/>
<path d="M91.894 20.6456C95.8858 20.6456 99.1219 17.4098 99.1219 13.4182C99.1219 9.42656 95.8858 6.19067 91.894 6.19067C87.9021 6.19067 84.666 9.42656 84.666 13.4182C84.666 17.4098 87.9021 20.6456 91.894 20.6456Z" fill="#03050A"/>
</svg>
