<svg width="24" height="24" viewBox="0 0 32 32" fill="none" xmlns="http://www.w3.org/2000/svg">
  <circle cx="16" cy="16" r="16" fill="black"/>
  <g fill="white" transform="translate(4 6)">
    <path d="m15.5448121 16.0922472v-4.2568072h-1.5862522v4.2568072c0 1.6620615 1.3519326 3.013994 3.0139941 3.013994h.7925518v-1.5862522h-.7925518c-.7868087 0-1.4277419-.6409331-1.4277419-1.4277418"/>
    <path d="m21.5723408 10.1906079v3.8076945c0 .7868087-.6397846 1.4277418-1.4277418 1.4277418-.7868087 0-1.4277419-.6409331-1.4277419-1.4277418v-.7937004-6.0670414c0-3.93519192-3.20122-7.1375606-7.1375606-7.1375606-3.93634055 0-7.1375606 3.20236868-7.1375606 7.1375606v6.8607418c0 .7868087-.64093319 1.4277418-1.42889048 1.4277418-.78680866 0-1.42659322-.6409331-1.42659322-1.4277418v-3.8076945h-1.5862522v3.8076945c0 1.6620615 1.35193254 3.013994 3.01284542 3.013994 1.66206151 0 3.01514268-1.3519325 3.01514268-3.013994v-6.8607418c0-3.0610877 2.49022069-5.5513084 5.5513084-5.5513084 3.0610877 0 5.5513084 2.4902207 5.5513084 5.5513084v6.8607418c0 1.6620615 1.3519325 3.013994 3.0139941 3.013994 1.6620615 0 3.013994-1.3519325 3.013994-3.013994v-3.8076945z"/>
    <path d="m10.7867447 20.3915535h1.5862522v-7.7015359h-1.5862522z"/>
    <path d="m7.61389572 16.0922472c0 .7868087-.64093319 1.4277418-1.42774185 1.4277418h-.79255179v1.5862522h.79255179c1.66206151 0 3.01399405-1.3519325 3.01399405-3.013994v-4.2568072h-1.5862522z"/>
    <path d="m8.62847687 10.1906079h1.81827463v-2.88994243h-1.81827463z"/>
    <path d="m12.7129901 10.1906079h1.817126v-2.88994243h-1.817126z"/>
  </g>
</svg>
