<?xml version="1.0" encoding="UTF-8"?>
<svg id="Layer_2" data-name="Layer 2" xmlns="http://www.w3.org/2000/svg" viewBox="0 0 137.17 24.31">
  <defs>
    <style>
      .cls-1 {
        fill: #fff;
      }
    </style>
  </defs>
  <g id="Layer_1-2" data-name="Layer 1">
    <path class="cls-1" d="M135.24,8.44c-1.11,.14-2.79,.24-4.2,.32-1.28,.06-2.71,.1-3.66,.1l-.13-.81c.89,.01,2.37-.01,3.7-.08,1.5-.06,3.24-.16,4.21-.28l.08,.75Zm-1.28-4.85c0,1.55-1.29,2.67-3.02,2.67s-3.03-1.18-3.03-2.67c0-1.6,1.33-2.71,3.03-2.71s3.02,1.08,3.02,2.71m-3.02-1.91c-1.2,0-2.12,.8-2.12,1.91s.89,1.89,2.12,1.89,2.1-.8,2.1-1.89-.87-1.91-2.1-1.91m5.03-1.57h.89V11.39h-.89V.1Z"/>
    <path class="cls-1" d="M130.36,20.91v-1.85c-1.05,.06-2.07,.06-3.07,.08l-.15-.8c1.23,0,2.5-.02,3.75-.06,1.33-.05,2.83-.15,3.94-.29l.08,.72c-.86,.11-2.36,.23-3.65,.3v1.9h-.9Zm.57-3.35c-1.7,0-2.9-.84-2.9-2.18s1.2-2.21,2.9-2.21,2.89,.85,2.89,2.21-1.17,2.18-2.89,2.18m-2-2.18c0,.85,.82,1.41,2,1.41s2-.56,2-1.41-.82-1.45-2-1.45-2,.58-2,1.45m.49,8.92v-3.07h.89v2.29h6.86v.77h-7.75Zm6.63-3.8h-2.6v-.77h2.6v-6.96h.89v9.03h-.89v-1.29Z"/>
    <path class="cls-1" d="M87.39,7.34c0-3.43-2.75-6.01-6.39-6.01s-6.36,2.58-6.36,6.01,2.68,5.98,6.36,5.98,6.39-2.52,6.39-5.98m-9.82-.03c0-1.95,1.47-3.41,3.43-3.41s3.46,1.47,3.46,3.41-1.49,3.42-3.46,3.42-3.43-1.47-3.43-3.42"/>
    <polygon class="cls-1" points="92.97 6.31 92.97 .1 89.99 .1 89.99 17.16 92.97 17.16 92.97 8.72 96.97 8.72 96.97 6.31 92.97 6.31"/>
    <polygon class="cls-1" points="82.36 21.91 82.36 15.66 79.39 15.66 79.39 24.31 93.67 24.31 93.67 21.91 82.36 21.91"/>
    <path class="cls-1" d="M30.17,9.86c1.24,.9,2.93,1.4,4.76,1.4,3.31,0,6.88-1.76,6.88-5.63,0-1.65-.69-3.06-1.99-4.1-1.25-.99-2.98-1.54-4.88-1.54s-3.59,.54-4.85,1.53c-1.33,1.04-2.03,2.46-2.03,4.1,0,1.76,.73,3.22,2.12,4.23m4.76-7.33c2.27,0,3.92,1.3,3.92,3.1s-1.65,3.13-3.92,3.13-3.92-1.29-3.92-3.13,1.65-3.1,3.92-3.1"/>
    <path class="cls-1" d="M11.16,.84h-2.98V3.84H2.98V.84H0V11.7H11.16V.84Zm-2.98,8.46H2.98v-3.04h5.2v3.04Z"/>
    <polygon class="cls-1" points="10.97 16.37 15.08 16.37 15.08 24.31 18.05 24.31 18.05 13.96 10.97 13.96 10.97 16.37"/>
    <polygon class="cls-1" points="18.05 4.98 18.05 .1 15.08 .1 15.08 12.51 18.05 12.51 18.05 7.39 21.91 7.39 21.91 4.99 18.05 4.98"/>
    <path class="cls-1" d="M6.29,21.95c-.49,0-.95-.02-1.37-.05v-1.67h4.79v-6.28H2.06v2.41H6.74v1.46H2.07v6.41c1.04,.04,1.91,.06,2.72,.06,2.36,0,4.37-.16,6.53-.52l-.22-2.35c-1.4,.33-3.19,.52-4.8,.52"/>
    <rect class="cls-1" x="23.96" y="12.57" width="21.91" height="2.41"/>
    <polygon class="cls-1" points="49.14 14.98 58.59 14.98 58.59 19.58 61.57 19.58 61.57 14.98 71.06 14.98 71.06 12.57 49.14 12.57 49.14 14.98"/>
    <polygon class="cls-1" points="30.59 21.9 30.59 16.72 27.62 16.72 27.62 24.31 42.46 24.31 42.46 21.9 30.59 21.9"/>
    <polygon class="cls-1" points="55.81 21.9 55.81 16.72 52.84 16.72 52.84 24.31 67.68 24.31 67.68 21.9 55.81 21.9"/>
    <polygon class="cls-1" points="55.81 7.36 55.81 .84 52.84 .84 52.84 9.77 67.68 9.77 67.68 7.36 55.81 7.36"/>
    <path class="cls-1" d="M107.01,14.43s-.07-.01-.09-.04c-.01-.01-.04-.08-.04-.1v-6.24s-2.97,0-2.97,0v6.32s-.01,.07-.04,.1c-.01,.01-.08,.04-.1,.04-1.99,0-3.82-.04-4.41-.05l.3,2.81c.23,0,.47,0,.71,0,2.26,0,5.07-.1,6.94-.19,2.7-.14,5.96-.56,7.31-.74l-.25-2.46c-1.6,.21-4.75,.47-7.36,.55"/>
    <path class="cls-1" d="M109.92,3.77c.14,1.76-.1,5.49-.51,7.62l2.91,.38c.49-2.06,.67-5.84,.67-8.47V1.37s-12.23,0-12.23,0V3.77s9.16,0,9.16,0Z"/>
    <polygon class="cls-1" points="122.92 8.05 118.91 8.05 118.91 .1 115.94 .1 115.94 8.05 115.94 10.46 115.94 22.08 118.91 22.08 118.91 10.46 122.92 10.46 122.92 8.05"/>
  </g>
</svg>