<svg width="200" height="40" viewBox="0 0 200 40" fill="none" xmlns="http://www.w3.org/2000/svg">
<g clip-path="url(#clip0_336_771)">
<path d="M4.9414 21.8078C3.707 15.3347 5.55484 9.6557 9.99569 4.75195C9.89601 4.77879 9.79799 4.81146 9.70214 4.8498C7.65337 5.75789 5.8021 7.05813 4.2527 8.67721C3.20264 9.81388 2.32289 11.0967 1.64088 12.4858C1.64019 12.4958 1.64019 12.5059 1.64088 12.5159C1.56937 12.6589 1.50916 12.8019 1.44518 12.9449L1.28711 13.3213C1.2269 13.4681 1.16292 13.6186 1.10647 13.7654C1.08389 13.8331 1.05754 13.8971 1.03496 13.9648C0.118551 16.4972 -0.193327 19.2088 0.124213 21.8831C0.169374 22.2256 0.214536 22.5643 0.278514 22.903L0.312385 23.0836C0.350019 23.2756 0.391417 23.46 0.444105 23.6519C2.13765 29.7261 6.05162 33.6175 12.1107 35.3411C13.3557 35.6966 14.6477 35.8591 15.9419 35.8228C9.96935 32.8648 6.17581 28.2659 4.9414 21.8078Z" fill="white"/>
<path d="M37.4876 13.201C35.7489 6.88597 31.6982 2.91681 25.3355 1.29352C25.1247 1.24083 24.9064 1.19567 24.6882 1.15427H24.6656C24.4623 1.11663 24.2704 1.08653 24.086 1.06018C22.5972 0.910329 21.0975 0.904027 19.6075 1.04137C16.1423 1.48398 12.9192 3.05519 10.436 5.51232C9.57071 6.33917 8.81215 7.27094 8.17798 8.28597C13.857 4.82361 19.7618 4.06716 25.8925 6.46071C32.0231 8.85425 35.8693 13.4494 37.7021 19.7569C38.1187 17.5828 38.0455 15.3432 37.4876 13.201Z" fill="white"/>
<path d="M35.8506 16.7651C35.5495 16.0313 35.1543 15.3313 34.8043 14.6162C35.3764 21.1985 33.4946 26.8436 28.6398 31.3183C23.785 35.793 18.0119 37.2156 11.4673 36.0828C11.6178 36.1995 11.6893 36.2672 11.7721 36.3237C13.5354 37.5337 15.5245 38.3759 17.6205 38.8C17.914 38.8602 18.2151 38.9092 18.5124 38.9543C20.7402 39.176 22.9888 39.0491 25.1775 38.578C26.1444 38.3258 27.0847 37.9804 27.985 37.5468C29.3937 36.8637 30.6936 35.9759 31.8425 34.9124C34.3076 32.675 36.0172 29.7274 36.7351 26.4767C37.4531 23.226 37.144 19.8326 35.8506 16.7651Z" fill="white"/>
<path d="M64.1026 17.5667C65.6644 17.5667 67.151 17.5667 68.6187 17.5667L92.9568 17.3899C93.3783 17.3899 93.7998 17.3673 94.2213 17.3673C94.7934 17.3673 94.9138 17.4839 94.9289 18.0447C94.9289 18.5114 94.9288 18.978 94.9477 19.4447C94.9477 20.0318 94.831 20.1597 94.2326 20.1673L84.9783 20.2312C79.5891 20.2714 74.2011 20.314 68.8144 20.3592C67.2639 20.3592 65.7171 20.4382 64.0988 20.4796C64.0988 20.713 64.0988 20.9312 64.0988 21.1458C64.1289 25.4712 64.1603 29.7941 64.1929 34.1145C64.1929 34.8371 64.1929 34.8672 63.4741 34.8672C62.7553 34.8672 62.0553 34.8672 61.3515 34.8672C60.9338 34.8672 60.7945 34.7205 60.7945 34.314C60.7945 31.7097 60.7607 29.1054 60.7418 26.5011C60.6942 19.9778 60.644 13.4546 60.5913 6.93128C60.5913 6.22752 60.5913 6.20494 61.3252 6.20117H63.3574C63.9935 6.20117 63.9972 6.20117 64.0047 6.82214L64.0838 17.0775C64.1064 17.2318 64.1026 17.3786 64.1026 17.5667Z" fill="white"/>
<path d="M74.467 34.404C74.2149 34.4074 73.963 34.3885 73.7143 34.3476C72.7697 34.1782 72.4423 33.8169 72.4159 32.8685C72.382 31.5438 72.3557 30.2341 72.3557 28.8944C72.3557 27.5546 72.8412 27.0992 74.1584 27.0841C75.6788 27.0616 77.1992 27.0453 78.7197 27.0352L86.7583 26.9901C87.511 26.9901 87.511 26.9901 87.511 26.2148C87.511 25.9852 87.511 25.7594 87.511 25.5336C87.5411 25.1573 87.3718 25.0067 86.9841 25.0105C85.1325 25.0406 83.2809 25.0607 81.4293 25.0707C78.5691 25.0707 75.7089 25.0971 72.8487 25.1196C72.431 25.1196 72.2353 24.9804 72.2503 24.5438C72.2503 24.032 72.2503 23.5202 72.2503 23.0046C72.2503 22.489 72.3557 22.3761 72.8863 22.3723L86.1186 22.282C87.2476 22.282 88.3465 22.2594 89.4567 22.282C90.3374 22.3121 90.7175 22.6584 90.7589 23.5164C90.8341 25.0481 90.853 26.5874 90.8266 28.1191C90.8078 29.0148 90.3976 29.3798 89.4793 29.4175C88.068 29.4739 86.653 29.4852 85.2379 29.5003C82.3175 29.5266 79.3971 29.5379 76.4767 29.5605C75.724 29.5605 75.724 29.5605 75.724 30.3132C75.724 31.5965 75.724 31.6003 77.0035 31.5927L90.7288 31.4987C91.568 31.4987 91.568 31.4987 91.5793 32.3116V33.5309C91.5793 34.1556 91.489 34.261 90.8454 34.261C88.0906 34.2836 77.1503 34.4078 74.467 34.404Z" fill="white"/>
<path d="M103.494 7.19102C107.653 7.19102 110.837 10.3297 110.829 14.4243C110.829 18.5942 107.698 21.6652 103.464 21.6576C99.3432 21.6576 96.2685 18.5453 96.2948 14.3942C96.3212 10.2432 99.5615 7.09693 103.494 7.19102ZM99.5728 14.4883C99.6142 14.827 99.6255 15.177 99.7008 15.512C100.039 17.0173 100.882 18.1464 102.414 18.5867C103.12 18.8207 103.88 18.8351 104.594 18.6282C105.309 18.4213 105.943 18.0026 106.415 17.4276C107.404 16.2985 107.604 14.9776 107.374 13.5437C107.287 13.0128 107.092 12.5054 106.801 12.0528C106.51 11.6003 106.13 11.2123 105.683 10.9128C105.236 10.6133 104.732 10.4087 104.203 10.3117C103.674 10.2146 103.13 10.2272 102.606 10.3485C100.766 10.8002 99.6029 12.4034 99.5728 14.4883Z" fill="white"/>
<path d="M144.614 17.3222H148.166C148.949 17.3222 148.945 17.3222 148.957 18.0749C148.957 18.5566 148.975 19.0383 148.979 19.5201C148.983 20.0018 148.893 20.141 148.385 20.1523C147.256 20.1523 146.096 20.1749 144.952 20.1862L144.617 20.2125V20.6942C144.648 24.9896 144.675 29.2824 144.7 33.5727C144.7 34.2162 144.7 34.2238 144.049 34.2313C143.327 34.2313 142.604 34.2313 141.881 34.2614C141.445 34.2614 141.302 34.1071 141.298 33.6856C141.283 29.4982 141.258 25.3107 141.223 21.1233C141.183 16.1982 141.139 11.2643 141.091 6.3217C141.091 5.69321 141.121 5.64428 141.742 5.62923C142.465 5.61041 143.187 5.60288 143.91 5.59912C144.459 5.59912 144.505 5.65181 144.508 6.23514C144.538 9.78782 144.567 13.3418 144.595 16.8969C144.595 17.0174 144.606 17.1227 144.614 17.3222Z" fill="white"/>
<path d="M157.12 21.1493C156.105 21.1355 155.107 20.894 154.198 20.4426C153.289 19.9912 152.493 19.3414 151.87 18.5412C149.175 15.1542 150.18 8.75632 155.832 7.49557C158.546 6.88589 161.082 7.35256 163.137 9.37729C164.616 10.8337 165.158 12.6778 165.057 14.7289C164.861 18.6466 161.703 21.1756 157.12 21.1493ZM161.771 13.6789C161.754 13.0066 161.547 12.3531 161.172 11.7946C160.798 11.2361 160.272 10.7958 159.656 10.5251C158.96 10.1547 158.171 9.9961 157.386 10.069C156.6 10.1419 155.854 10.4431 155.238 10.9353C154.109 11.8047 153.785 13.0353 153.793 14.4165C153.815 17.1902 156.051 19.0681 159.061 18.2627C160.785 17.7998 161.76 16.3095 161.771 13.6789Z" fill="white"/>
<path d="M172.598 33.407C172.598 34.0317 172.598 34.0506 171.974 34.0506H169.761C169.226 34.0506 169.166 33.9866 169.162 33.4484C169.127 27.7129 169.092 21.975 169.057 16.2345C169.034 12.8624 169.008 9.48915 168.978 6.11461C168.978 5.50117 169.068 5.40708 169.674 5.40332C170.397 5.40332 171.119 5.40332 171.842 5.40332C172.271 5.40332 172.422 5.55762 172.422 5.98665C172.41 10.5743 172.598 28.857 172.598 33.407Z" fill="white"/>
<path d="M57.2718 22.8655C57.3019 26.501 54.5019 28.7929 51.4234 29.0827C49.681 29.2445 48.0363 28.9849 46.5724 27.9537C44.6907 26.6327 43.9079 24.7585 44.0132 22.5005C44.1826 18.8612 47.0993 17.0962 49.7449 16.8553C51.1392 16.6905 52.5524 16.8942 53.8433 17.4462C54.8939 17.8994 55.7833 18.6591 56.395 19.626C57.0067 20.593 57.3123 21.7221 57.2718 22.8655ZM50.6105 26.3806C52.6691 26.3806 54.0428 25.0295 54.0616 22.9935C54.0804 20.9575 52.6917 19.5274 50.6745 19.5161C50.2181 19.491 49.7615 19.5617 49.334 19.7236C48.9065 19.8854 48.5176 20.1349 48.1922 20.456C47.8669 20.7771 47.6123 21.1627 47.4448 21.588C47.2773 22.0134 47.2006 22.469 47.2197 22.9257C47.2122 24.958 48.5971 26.3768 50.6105 26.3806Z" fill="white"/>
<path d="M195.902 24.627H194.227L190.975 24.6458C190.43 24.6458 190.305 24.5254 190.305 23.9985C190.305 23.5318 190.305 23.0652 190.305 22.5985C190.305 22.1318 190.49 22.0189 190.9 22.0227C192.405 22.0227 193.911 21.9964 195.416 22.0227C195.792 22.0227 195.898 21.906 195.894 21.5372C195.839 16.3437 195.793 11.1489 195.755 5.95284C195.755 5.28295 195.792 5.24532 196.47 5.23779H198.544C199.153 5.23779 199.168 5.25661 199.172 5.8851C199.21 11.2442 199.249 16.6046 199.289 21.9662C199.289 23.6974 199.326 25.4286 199.338 27.1598C199.338 27.7168 199.3 27.7582 198.758 27.7695C198.039 27.7695 197.317 27.792 196.594 27.7958C195.951 27.7958 195.917 27.7619 195.917 27.0958L195.902 24.627Z" fill="white"/>
<path d="M184.593 5.74951C186.292 5.67891 187.969 6.15654 189.376 7.11188C192.387 9.20811 192.364 13.3178 189.338 15.3914C187.777 16.4375 185.904 16.9158 184.032 16.7463C182.751 16.682 181.507 16.3033 180.408 15.6436C176.938 13.5361 176.96 8.93714 180.441 6.86349C181.695 6.11325 183.132 5.72747 184.593 5.74951ZM184.657 14.1683C185.611 14.1979 186.545 13.8871 187.291 13.2914C187.593 13.0708 187.841 12.7854 188.019 12.4562C188.196 12.127 188.297 11.7623 188.315 11.3888C188.334 11.0153 188.268 10.6425 188.123 10.2978C187.978 9.95301 187.758 9.64499 187.479 9.39628C186.053 8.03392 183.396 8.02263 181.951 9.36993C181.674 9.60523 181.453 9.89771 181.3 10.2271C181.148 10.5566 181.069 10.9151 181.069 11.278C181.069 11.6409 181.148 11.9994 181.3 12.3288C181.453 12.6583 181.674 12.9508 181.951 13.1861C182.694 13.847 183.662 14.1984 184.657 14.1683Z" fill="white"/>
<path d="M117.6 14.8645H121.642C121.977 14.8645 122.135 15.015 122.131 15.3613C122.131 15.9484 122.131 16.5355 122.157 17.1226C122.157 17.5365 121.999 17.7209 121.57 17.7172C120.411 17.7172 119.252 17.7172 118.097 17.7435C117.961 17.7435 117.829 17.7435 117.66 17.7736V18.5602C117.66 20.8885 117.669 23.2206 117.686 25.5564C117.686 26.0983 117.637 26.1548 117.103 26.1661L114.939 26.1924C114.348 26.1924 114.284 26.1473 114.28 25.5564C114.258 22.4403 114.247 19.3242 114.224 16.208C114.201 12.9865 114.176 9.76504 114.149 6.54355C114.149 5.8586 114.149 5.8586 114.807 5.85107H116.93C117.521 5.85107 117.562 5.88871 117.566 6.49838L117.6 14.172V14.8645Z" fill="white"/>
<path d="M127.675 25.6093C127.675 23.7802 127.675 22.0077 127.675 20.2313C127.675 19.4184 127.652 18.6055 127.644 17.7926C127.644 17.2808 127.731 17.1867 128.243 17.1754C128.905 17.1754 129.568 17.1754 130.23 17.1528C130.956 17.1528 131.016 17.2093 131.02 17.9544C131.02 20.2727 131.03 22.591 131.05 24.9093V25.4738C131.803 25.4211 132.514 25.4023 133.222 25.3232C135.254 25.0974 137.279 24.8528 139.307 24.6044C139.684 24.5593 139.838 24.6947 139.868 25.0523C139.921 25.6356 139.985 26.2189 140.045 26.8023C140.083 27.1786 139.857 27.2878 139.563 27.3367C138.75 27.4684 137.934 27.6039 137.117 27.713C132.248 28.3081 127.344 28.5596 122.44 28.4657C121.777 28.4657 121.74 28.4243 121.736 27.777C121.736 27.2501 121.736 26.7232 121.736 26.1964C121.717 25.7824 121.879 25.6431 122.289 25.6469C123.945 25.6469 125.601 25.6469 127.253 25.6469C127.373 25.6356 127.509 25.6206 127.675 25.6093Z" fill="white"/>
<path d="M74.8096 15.38C74.4928 15.3806 74.1762 15.3643 73.8612 15.3311C72.9542 15.2295 72.4725 14.7628 72.4198 13.8257C72.3596 12.7268 72.3483 11.6279 72.3333 10.529C72.3333 9.23436 72.3333 7.93974 72.3333 6.64512C72.3333 6.21609 72.5139 6.04297 72.9241 6.04297C73.6768 6.04297 74.3994 6.04297 75.137 6.04297C75.6338 6.04297 75.7693 6.19351 75.773 6.69404C75.773 8.39511 75.7956 10.0811 75.8182 11.7973C75.8182 12.4559 75.9123 12.5274 76.5709 12.5198C81.1773 12.4897 85.7825 12.4546 90.3864 12.4145C91.1805 12.4145 91.2144 12.4333 91.2182 13.2462C91.2182 13.7128 91.2182 14.1795 91.2182 14.6462C91.2182 15.1881 91.1617 15.2521 90.6311 15.2521C87.8574 15.2408 77.3236 15.3876 74.8096 15.38Z" fill="white"/>
<path d="M130.155 8.13916C132.066 8.13916 133.978 8.13916 135.89 8.13916C137.395 8.13916 138.077 8.76389 138.099 10.2806C138.138 13.6679 137.887 17.0524 137.347 20.3967C137.327 20.5303 137.298 20.6623 137.26 20.7918C137.155 21.1682 136.974 21.3827 136.507 21.3262C135.837 21.2397 135.156 21.2058 134.483 21.1682C134.072 21.1456 133.974 20.9198 134.02 20.566C134.181 19.2375 134.396 17.9316 134.498 16.5805C134.626 14.9171 134.667 13.2461 134.738 11.5789C134.757 11.1537 134.483 10.9881 134.102 10.9843C133.259 10.9843 132.416 10.9843 131.573 10.9843L124.193 11.0144C123.523 11.0144 123.478 10.9655 123.475 10.2956C123.475 9.81012 123.501 9.3284 123.475 8.84669C123.448 8.36497 123.67 8.23325 124.084 8.22948C125.018 8.22948 125.966 8.2069 126.884 8.20314C127.983 8.20314 129.082 8.20314 130.181 8.20314L130.155 8.13916Z" fill="white"/>
<path d="M102.742 34.058C102.47 34.0631 102.199 34.0492 101.929 34.0166C100.837 33.866 100.397 33.4408 100.371 32.3381C100.322 30.0198 100.333 27.7015 100.318 25.3833C100.318 25.0408 100.503 24.8978 100.83 24.894C101.598 24.894 102.365 24.8852 103.133 24.8677C103.551 24.8677 103.713 25.0596 103.716 25.4773C103.716 27.0881 103.747 28.6988 103.762 30.3134C103.762 31.1789 103.762 31.1789 104.654 31.1752L118.063 31.0811C118.894 31.0811 118.943 31.1225 118.947 31.9316C118.947 32.4134 118.947 32.8988 118.947 33.3768C118.947 33.8547 118.751 33.9639 118.352 33.9601H115.011C113.422 33.9601 105.237 34.058 102.742 34.058Z" fill="white"/>
<path d="M186.29 20.886V21.6876C186.29 22.8166 186.309 23.9156 186.313 25.0295C186.313 25.5338 186.203 25.6505 185.71 25.6618C185.018 25.6618 184.325 25.6881 183.633 25.6957C183.099 25.6957 182.959 25.5715 182.952 25.0446C182.952 23.8967 182.929 22.7527 182.918 21.6086C182.918 21.4618 182.918 21.315 182.895 21.157C182.583 21.157 182.301 21.157 182.018 21.157C180.137 21.1946 178.255 21.2473 176.373 21.2736C175.76 21.2736 175.67 21.1645 175.666 20.5586C175.666 20.0618 175.666 19.565 175.666 19.0532C175.666 18.6505 175.82 18.4849 176.227 18.4774C178.827 18.4247 181.435 18.4285 184.032 18.2779C187.302 18.0898 190.565 17.7736 193.817 17.5027C194.381 17.4537 194.506 17.5027 194.592 18.0822C194.66 18.5414 194.724 19.0043 194.776 19.4672C194.829 19.9301 194.57 20.0731 194.223 20.1333C192.883 20.3027 191.54 20.4645 190.196 20.5962C188.924 20.7016 187.622 20.7844 186.29 20.886Z" fill="white"/>
<path d="M153.172 25.1799C155.543 25.0557 157.786 24.9842 160.017 24.8036C162.249 24.6229 164.503 24.3595 166.746 24.1337C166.897 24.1337 167.047 24.1111 167.194 24.0923C167.548 24.0509 167.683 24.2315 167.71 24.5589C167.755 25.1272 167.808 25.688 167.872 26.2638C167.921 26.6778 167.683 26.8509 167.33 26.8885C165.316 27.1105 163.303 27.374 161.282 27.5283C158.463 27.739 155.637 27.8821 152.814 28.0251C151.64 28.0815 150.466 28.0589 149.292 28.074C149.224 28.0849 149.155 28.08 149.089 28.0596C149.024 28.0392 148.964 28.004 148.914 27.9566C148.865 27.9092 148.827 27.8509 148.803 27.7864C148.78 27.7219 148.772 27.6529 148.78 27.5847C148.78 26.9374 148.78 26.2901 148.78 25.6428C148.78 25.2665 149.002 25.1649 149.344 25.1686C150.65 25.1837 151.975 25.1799 153.172 25.1799Z" fill="white"/>
<path d="M42.5267 15.3386C41.8719 15.3386 41.7251 15.1955 41.7251 14.552C41.7251 14.1154 41.7251 13.6789 41.7251 13.2423C41.7251 12.738 41.8794 12.5762 42.3988 12.5724L46.8245 12.5386L58.16 12.4482C58.8525 12.4482 58.9578 12.5536 58.9616 13.2611V14.4843C58.9616 15.0902 58.8299 15.2369 58.2089 15.2369C55.6009 15.2407 45.1272 15.3386 42.5267 15.3386Z" fill="white"/>
<path d="M54.3102 7.56318C54.9199 7.56318 55.0365 7.67985 55.0441 8.31587C55.0441 8.81264 55.0441 9.30941 55.0441 9.82124C55.0441 10.3331 54.886 10.4535 54.4231 10.4573L46.2602 10.4949C46.1815 10.5078 46.1009 10.5018 46.025 10.4775C45.9491 10.4531 45.88 10.4111 45.8234 10.355C45.7669 10.2988 45.7244 10.23 45.6996 10.1542C45.6748 10.0784 45.6683 9.99785 45.6806 9.91909C45.6806 9.37715 45.6806 8.83522 45.6806 8.29329C45.6806 7.75135 45.8199 7.64974 46.3242 7.64597C47.6828 7.6121 53.0005 7.55942 54.3102 7.56318Z" fill="white"/>
<path d="M199.996 32.7519C199.966 32.2401 199.996 31.7283 199.996 31.2165C199.996 30.5165 199.962 30.4939 199.243 30.4977L184.408 30.603C183.738 30.603 183.655 30.5315 183.655 29.8503C183.64 28.9471 183.633 28.0439 183.633 27.1407C183.633 26.7643 183.475 26.6138 183.113 26.6176C182.331 26.6176 181.548 26.6176 180.765 26.6176C180.69 26.6054 180.613 26.6111 180.541 26.6344C180.468 26.6576 180.402 26.6977 180.348 26.7513C180.294 26.8049 180.254 26.8705 180.23 26.9427C180.206 27.015 180.2 27.0919 180.212 27.167C180.231 28.7213 180.234 30.2718 180.287 31.8224C180.321 32.8423 180.81 33.3278 181.834 33.403C182.21 33.4407 182.613 33.4595 183.004 33.4595C183.975 33.4595 185.307 33.4595 186.598 33.4294L199.439 33.324C199.879 33.3428 200.022 33.1772 199.996 32.7519Z" fill="white"/>
</g>
<defs>
<clipPath id="clip0_336_771">
<rect width="200" height="38.1198" fill="white" transform="translate(0 0.939941)"/>
</clipPath>
</defs>
</svg>
