<svg version="1.2" xmlns="http://www.w3.org/2000/svg" viewBox="0 0 1578 261" width="1578" height="261">
	<title>neowiz-svg</title>
	<style>
		.s0 { fill: #ffffff } 
		.s1 { fill: #ffffff } 
	</style>
	<g id="Layer">
		<g id="Layer">
			<path id="Layer" fill-rule="evenodd" class="s0" d="m315.9 44.5h26.7l118.1 99q2.6 2 5.1 4.2q2.5 2.1 4.9 4.4q2.5 2.3 4.8 4.7q2.2 2.3 4.4 4.8c-1-13.9-1.6-23.7-1.6-28.9v-88.2h35.1v167.9h-26.6l-123.3-103.8q-1.9-1.6-3.7-3.3q-1.8-1.6-3.6-3.3q-1.7-1.7-3.4-3.5q-1.7-1.8-3.3-3.6c1.2 13 1.6 21.8 1.6 26.7v90.8h-35.2zm247.3 0h171.7v28.7h-132.7v37.4h132.5v28.6h-132.5v41.6h134.4v31.6h-173.4zm254.3 0h123.6c31.6 0 41.6 8.2 41.6 39.7v88.6c0 31.5-10 39.7-41.6 39.7h-123.6c-31.6 0-41.7-8.2-41.7-39.7v-88.6c0-31.5 10.1-39.6 41.7-39.7zm126.2 136.4v-106.4h-128.9v106.4zm67-136.4h40.4l42.6 112.7l44.5-112.6h27.4l45.5 112.6l40.7-112.6h34.8l-64.8 167.9h-26.3l-46.2-116.2l-46.9 116.2h-27zm308.7 0h39.1v167.9h-39.1zm77.8 149.7l117.4-119.8h-105.7v-29.9h168.5v16.6l-119 119.7h119v31.6h-180.2z" />
			<path id="Layer" class="s1" d="m119.1 119.1c1.4-1.4 3.1-2.5 5-3.3c1.8-0.8 3.8-1.2 5.9-1.2c2 0 4 0.4 5.9 1.2c5.8 2.4 9.5 8 9.5 14.2c0.1 6.3-3.7 11.9-9.5 14.3c-5.8 2.4-12.4 1.1-16.8-3.3c-4.5-4.4-5.8-11.1-3.4-16.9c0.8-1.8 1.9-3.5 3.4-5z" />
			<path id="Layer" fill-rule="evenodd" class="s1" d="m0 130c0-17 3.4-33.9 9.9-49.7c6.6-15.8 16.2-30.1 28.2-42.2c12.1-12 26.4-21.6 42.2-28.1c48.5-20.2 104.4-9 141.6 28.2c37.2 37.1 48.3 93.1 28.1 141.7c-20.1 48.5-67.5 80.2-120 80.2c-52.6 0-100-31.7-120.1-80.3c-6.5-15.8-9.9-32.7-9.9-49.8zm149-92.2c-1.1-2.9-2.6-5.7-4.5-8.3c-1.8-2.5-4-4.8-6.5-6.8c-2.4-2-5.1-3.7-8-4.9c-2.9 1.3-5.6 2.9-8 4.9c-2.5 2-4.7 4.3-6.5 6.9c-1.9 2.5-3.4 5.3-4.5 8.3c-1.1 2.9-1.9 6-2.2 9.1c-0.1 2.4 0.1 4.7 0.7 7c0.6 2.3 1.5 4.5 2.7 6.5c1.3 2 2.8 3.7 4.6 5.3c1.8 1.5 3.8 2.8 6 3.7l4.4 2.4l-1.3 1.5c-1.6 1.8-2.9 3.8-3.8 5.9c-1 2.2-1.6 4.5-1.9 6.8c-0.2 2.4-0.1 4.8 0.4 7.1c0.5 2.3 1.3 4.6 2.5 6.6l0.8 1.4l-1.3 0.8q-0.9 0.5-1.7 1q-0.9 0.4-1.8 0.8q-0.9 0.3-1.8 0.6q-1 0.3-1.9 0.6l-1.6 0.3l-0.3-1.5c-0.6-2.3-1.6-4.5-2.9-6.5c-1.3-1.9-2.9-3.7-4.7-5.2c-1.9-1.5-4-2.7-6.2-3.5c-2.2-0.9-4.5-1.4-6.9-1.5h-2l1.5-5c0.9-2.2 1.4-4.5 1.6-6.8c0.2-2.4 0-4.7-0.5-7c-0.6-2.3-1.4-4.5-2.6-6.6c-1.3-2-2.8-3.8-4.5-5.4c-2.5-2-5.2-3.6-8.1-4.9c-2.8-1.3-5.9-2.2-9-2.7c-3.1-0.5-6.3-0.5-9.4-0.2c-3.1 0.3-6.2 1-9.2 2.2c-1.1 2.9-1.9 6-2.2 9.1c-0.3 3.2-0.3 6.4 0.2 9.5c0.5 3.1 1.5 6.1 2.8 9c1.2 2.9 2.9 5.6 4.9 8c1.6 1.8 3.4 3.3 5.4 4.5c2.1 1.2 4.3 2.1 6.6 2.6c2.2 0.5 4.6 0.7 6.9 0.5c2.4-0.2 4.7-0.7 6.9-1.6l4.9-1.4l0.1 2c0.1 2.4 0.6 4.7 1.4 6.9c0.9 2.2 2 4.3 3.5 6.1c1.5 1.9 3.3 3.4 5.3 4.7c2 1.3 4.1 2.3 6.4 2.9l1.6 0.5l-0.4 1.5q-0.2 0.9-0.6 1.9q-0.3 0.9-0.6 1.8q-0.4 0.9-0.8 1.7q-0.5 0.9-0.9 1.8l-0.9 1.3l-1.4-0.8c-2-1.1-4.2-2-6.5-2.5c-2.4-0.5-4.7-0.6-7.1-0.4c-2.4 0.3-4.7 0.9-6.8 1.9c-2.2 0.9-4.2 2.2-5.9 3.8l-1.5 1.4l-2.5-4.5c-0.9-2.2-2.1-4.2-3.7-6c-1.5-1.8-3.3-3.4-5.3-4.6c-2-1.3-4.1-2.2-6.4-2.8c-2.3-0.6-4.7-0.8-7-0.7q-1.3 0-2.6 0.2q-1.3 0.1-2.5 0.3q-1.3 0.3-2.5 0.7q-1.2 0.4-2.4 0.9q-3.1 1.5-5.9 3.5q-2.8 2-5.3 4.5q-2.4 2.4-4.5 5.2q-2 2.8-3.5 5.9c1.3 2.9 2.9 5.6 4.9 8.1c2 2.4 4.3 4.6 6.8 6.5c2.6 1.8 5.4 3.3 8.3 4.5c3 1.1 6 1.8 9.2 2.2q1.3 0 2.6-0.1q1.3-0.1 2.6-0.3q1.3-0.2 2.6-0.6q1.2-0.3 2.5-0.8q1.9-1 3.7-2.2q1.8-1.3 3.4-2.9q1.5-1.5 2.8-3.3q1.3-1.8 2.2-3.8l2.5-4.5l1.5 1.4c1.5 1.4 3.3 2.6 5.2 3.5c1.9 1 4 1.6 6.1 2c2.1 0.3 4.2 0.4 6.3 0.1c2.1-0.2 4.2-0.7 6.1-1.6q0.4-0.1 0.7-0.2q0.3-0.2 0.7-0.3q0.3-0.2 0.6-0.4q0.3-0.1 0.7-0.3l1.3-0.8l0.8 1.3q0.5 0.8 1 1.7q0.4 0.9 0.8 1.8q0.4 0.8 0.7 1.8q0.3 0.9 0.5 1.8l0.3 1.6l-1.5 0.4q-0.3 0.1-0.7 0.2q-0.3 0.1-0.7 0.2q-0.3 0.1-0.7 0.2q-0.3 0.2-0.6 0.3c-2 0.8-3.8 1.9-5.5 3.2c-1.6 1.3-3.1 2.9-4.3 4.6c-1.3 1.8-2.2 3.7-2.9 5.7c-0.7 2-1.1 4.1-1.2 6.2l-0.1 2l-5-1.4q-2-0.7-4.2-1.1q-2.2-0.4-4.4-0.4q-2.2 0-4.3 0.4q-2.2 0.3-4.3 1q-1.2 0.6-2.3 1.2q-1.1 0.7-2.2 1.4q-1.1 0.8-2.1 1.6q-1 0.9-1.9 1.8c-2 2.5-3.6 5.2-4.9 8.1c-1.3 2.9-2.2 5.9-2.7 9c-0.5 3.1-0.6 6.3-0.2 9.4c0.3 3.2 1 6.3 2.1 9.2q3.3 1.1 6.7 1.7q3.5 0.6 6.9 0.6q3.5 0 6.9-0.6q3.4-0.6 6.7-1.7q1.2-0.5 2.3-1.1q1.1-0.6 2.2-1.3q1.1-0.7 2.1-1.5q1-0.9 1.9-1.8c1.8-1.5 3.3-3.3 4.5-5.4c1.2-2 2-4.2 2.6-6.5c0.5-2.3 0.7-4.6 0.5-7c-0.2-2.3-0.8-4.6-1.7-6.8l-1.4-4.9l2-0.1c2.4-0.1 4.7-0.6 6.9-1.4c2.3-0.9 4.3-2.1 6.2-3.6c1.8-1.5 3.4-3.2 4.7-5.2c1.3-2 2.3-4.2 2.9-6.5l0.4-1.5l1.5 0.4q0.9 0.2 1.9 0.5q0.9 0.3 1.8 0.7q0.9 0.3 1.7 0.8q0.9 0.4 1.7 0.9l1.4 0.9l-0.8 1.3c-1.2 2-2 4.3-2.5 6.6c-0.5 2.3-0.6 4.7-0.4 7c0.3 2.4 0.9 4.7 1.8 6.9c1 2.1 2.3 4.1 3.9 5.9l1.4 1.5l-4.5 2.4c-2.2 1-4.2 2.2-6 3.7c-1.8 1.5-3.3 3.3-4.6 5.3c-1.2 2-2.2 4.2-2.7 6.5c-0.6 2.2-0.8 4.6-0.7 6.9c0.3 3.2 1 6.3 2.1 9.2c1.1 3 2.7 5.8 4.5 8.4c1.9 2.5 4.1 4.8 6.5 6.8c2.5 2 5.2 3.6 8.1 4.9c2.9-1.3 5.6-2.9 8-4.9c2.5-2 4.7-4.3 6.5-6.8c1.9-2.6 3.4-5.4 4.5-8.3c1.1-3 1.8-6.1 2.2-9.2c0.1-2.3-0.1-4.7-0.7-7c-0.6-2.3-1.5-4.4-2.8-6.4c-1.2-2-2.7-3.8-4.5-5.3c-1.8-1.6-3.8-2.8-6-3.7l-4.5-2.5l1.4-1.5c1.5-1.8 2.8-3.8 3.8-5.9c1-2.2 1.6-4.5 1.8-6.8c0.3-2.4 0.2-4.8-0.3-7.1c-0.5-2.3-1.4-4.5-2.6-6.6l-0.8-1.3l1.4-0.9q0.8-0.5 1.7-0.9q0.9-0.5 1.8-0.8q0.8-0.4 1.8-0.7q0.9-0.3 1.8-0.5l1.6-0.4l0.4 1.5c0.6 2.3 1.6 4.5 2.9 6.5c1.3 2 2.9 3.7 4.7 5.2c1.9 1.5 3.9 2.7 6.1 3.6c2.2 0.8 4.6 1.3 6.9 1.4h2.1l-1.5 5c-0.9 2.2-1.4 4.5-1.6 6.9c-0.2 2.3 0 4.7 0.5 6.9c0.6 2.3 1.4 4.5 2.6 6.6c1.2 2 2.7 3.8 4.5 5.4c2.4 2 5.1 3.6 8 4.9c2.9 1.3 5.9 2.2 9 2.7c3.2 0.5 6.3 0.6 9.5 0.3c3.1-0.4 6.2-1.2 9.1-2.3c1.2-3 1.9-6 2.3-9.2c0.3-3.1 0.2-6.3-0.3-9.4c-0.5-3.1-1.4-6.2-2.7-9c-1.3-2.9-3-5.6-5-8.1c-1.5-1.7-3.4-3.2-5.4-4.4c-2-1.2-4.2-2.1-6.5-2.6c-2.3-0.6-4.6-0.7-7-0.5c-2.3 0.2-4.6 0.7-6.8 1.6l-4.9 1.4l-0.1-2c-0.1-2.4-0.6-4.7-1.4-6.9c-0.9-2.2-2.1-4.3-3.6-6.1c-1.5-1.9-3.2-3.5-5.2-4.8c-2-1.2-4.2-2.2-6.5-2.8l-1.5-0.4l0.4-1.6q0.2-0.9 0.5-1.8q0.3-1 0.7-1.9q0.3-0.9 0.8-1.7q0.4-0.9 0.9-1.7l0.9-1.3l1.3 0.7q2.3 1.3 4.8 2q2.5 0.8 5.1 1q2.6 0.1 5.1-0.3q2.6-0.4 5-1.4q0.9-0.4 1.7-0.8q0.9-0.5 1.7-1q0.8-0.5 1.5-1.1q0.8-0.6 1.5-1.2l1.5-1.4l2.5 4.5c0.9 2.2 2.1 4.2 3.6 6c1.5 1.8 3.3 3.3 5.3 4.6c2 1.2 4.2 2.2 6.5 2.8c2.3 0.5 4.6 0.8 7 0.6q1.3 0 2.6-0.1q1.3-0.1 2.5-0.4q1.3-0.2 2.6-0.6q1.2-0.4 2.4-0.9q3.1-1.5 5.9-3.5q2.8-2 5.3-4.5q2.4-2.4 4.4-5.2q2-2.8 3.5-6c-1.3-2.9-2.9-5.6-4.9-8c-2-2.5-4.3-4.7-6.8-6.6c-2.6-1.8-5.4-3.3-8.3-4.4c-3-1.2-6.1-1.9-9.2-2.2q-1.3 0-2.7 0.1q-1.3 0.1-2.6 0.3q-1.3 0.2-2.5 0.6q-1.3 0.3-2.5 0.8q-2 1-3.8 2.2q-1.8 1.3-3.3 2.9q-1.5 1.5-2.8 3.3q-1.3 1.8-2.2 3.8l-2.5 4.5l-1.5-1.3c-1.5-1.5-3.3-2.7-5.2-3.6c-1.9-0.9-4-1.6-6.1-2c-2.1-0.3-4.2-0.4-6.3-0.1c-2.1 0.2-4.2 0.8-6.2 1.6c-0.8 0.4-1.7 0.8-2.6 1.2l-1.3 0.8l-0.9-1.3q-0.5-0.8-0.9-1.7q-0.5-0.9-0.8-1.7q-0.4-0.9-0.7-1.9q-0.3-0.9-0.5-1.8l-0.4-1.5l1.5-0.4q1.5-0.5 2.8-1c2-0.8 3.8-1.9 5.5-3.2c1.6-1.3 3.1-2.9 4.3-4.6c1.2-1.7 2.2-3.6 2.9-5.7c0.7-2 1.1-4.1 1.2-6.2l0.1-2l4.9 1.4q2.1 0.8 4.3 1.1q2.1 0.4 4.3 0.4q2.2 0 4.4-0.3q2.2-0.4 4.3-1.1q1.2-0.5 2.3-1.2q1.1-0.6 2.2-1.4q1.1-0.8 2.1-1.6q1-0.9 1.9-1.8c2-2.5 3.6-5.2 4.9-8.1c1.3-2.8 2.2-5.9 2.7-9c0.5-3.1 0.6-6.3 0.3-9.4c-0.4-3.2-1.1-6.3-2.3-9.2q-3.2-1.1-6.7-1.7q-3.4-0.5-6.8-0.5q-3.5 0-6.9 0.5q-3.5 0.6-6.7 1.7q-1.2 0.5-2.4 1.1q-1.1 0.6-2.1 1.3q-1.1 0.8-2.1 1.6q-1 0.8-1.9 1.7c-1.8 1.5-3.3 3.4-4.5 5.4c-1.2 2-2 4.2-2.6 6.5c-0.5 2.3-0.7 4.7-0.5 7c0.2 2.4 0.8 4.7 1.6 6.9l1.5 4.8l-2.1 0.2q-0.9 0-1.8 0.1q-1 0.1-1.9 0.3q-0.9 0.2-1.9 0.5q-0.9 0.3-1.7 0.7q-2.4 1-4.5 2.5q-2.2 1.5-3.9 3.5q-1.7 1.9-2.9 4.2q-1.3 2.3-2 4.8l-0.4 1.5l-1.5-0.3q-1-0.3-1.9-0.6q-0.9-0.3-1.8-0.6q-0.9-0.4-1.8-0.8q-0.9-0.5-1.7-1l-1.3-0.8l0.7-1.4c1.2-2 2.1-4.3 2.6-6.6c0.5-2.3 0.6-4.7 0.3-7c-0.2-2.4-0.8-4.7-1.8-6.9c-1-2.1-2.3-4.1-3.8-5.9l-1.4-1.4l4.5-2.5c2.2-0.9 4.2-2.2 6-3.7c1.8-1.5 3.3-3.3 4.5-5.3c1.3-2 2.2-4.2 2.8-6.5c0.6-2.2 0.8-4.6 0.7-6.9q-0.5-4.8-2.2-9.3z" />
		</g>
	</g>
</svg>