<svg xmlns="http://www.w3.org/2000/svg" fill="none" viewBox="0 0 151 22"><path fill="#FF642D" d="M20.54 1.92c-1.4 0-2.93.51-4.64 1.4L6.38 8.38h7.8L0 15.92h15.6l-7.88 4.2h13.05a9.1 9.1 0 0 0 8.9-9.1c0-4.95-4.1-9.1-9.13-9.1M65 3.3H51.75v15.38h13.36v-2.81H54.94v-3.59h8.8v-2.8h-8.8V6.1H65zm1.91 0v15.38h3.12V7.9l4.05 10.77h3.64l4.05-10.8v10.8h3.12V3.3h-4.7l-4.3 11.53L71.62 3.3zm20.17 0v15.38h3.19v-5.63h7v5.63h3.2v-7.93h-1.94c1.4-.4 2.33-1.28 2.33-3.23 0-3.21-2.7-4.2-5.8-4.22zm29.95 8.76V3.3h-3.18v8.76c-.1 2.75-1.83 4.07-4.18 4.07s-4.09-1.32-4.17-4.07V3.3h-3.19v8.76c.09 4.35 3.01 6.97 7.36 6.97s7.27-2.62 7.36-6.97m17.8-8.76v15.38h3.19v-6.4h8.61v6.4h3.19V3.3h-3.19v6.17h-8.61V3.3zm-44.56 6.94V6.11h4.79c1.54.02 2.6.57 2.6 2.06s-1.06 2.05-2.6 2.07zM46.63 8.31h3.45c-.44-3.39-3.51-5.36-7.12-5.36-3.93 0-7.36 1.47-7.36 4.79 0 6.48 11.43 3.4 11.43 6.24 0 1.62-1.67 2.26-4.02 2.26-2.58 0-4.31-1.1-4.38-3.1h-3.38c.09 3.7 3.25 5.89 7.76 5.89 3.58 0 7.31-1.01 7.31-5.05 0-6.77-11.42-3.32-11.42-6.38 0-1.16 1.47-1.86 4.02-1.86 1.98 0 3.5.8 3.71 2.57m83.08 0h3.45c-.44-3.39-3.51-5.36-7.12-5.36-3.93 0-7.36 1.47-7.36 4.79 0 6.48 11.43 3.4 11.43 6.24 0 1.62-1.67 2.26-4.02 2.26-2.58 0-4.31-1.1-4.38-3.1h-3.38c.09 3.7 3.25 5.89 7.76 5.89 3.58 0 7.31-1.01 7.31-5.05 0-6.77-11.42-3.32-11.42-6.38 0-1.16 1.47-1.86 4.02-1.86 1.97 0 3.5.8 3.71 2.57"/></svg>