<svg width="411" height="168" viewBox="0 0 411 168" fill="none" xmlns="http://www.w3.org/2000/svg">
<path d="M319.094 37.4805V123.562C319.094 136.293 308.773 146.614 296.041 146.614H219.881" stroke="#0F141F" stroke-width="0.6" stroke-linecap="round" stroke-dasharray="5.76 5.76"/>
<path d="M92.0078 36.3779V123.561C92.0078 136.293 102.329 146.614 115.061 146.614H191.22" stroke="#0F141F" stroke-width="0.6" stroke-linecap="round" stroke-dasharray="5.76 5.76"/>
<rect x="0.3" y="0.3" width="182.48" height="35.7779" rx="7.72872" fill="white" stroke="#0F141F" stroke-width="0.6"/>
<path d="M16.6082 22L14.449 14.2146H15.6845L17.2013 20.2437H17.2735L18.8511 14.2146H20.0752L21.6528 20.2475H21.725L23.238 14.2146H24.4773L22.3143 22H21.132L19.4936 16.1685H19.4327L17.7943 22H16.6082ZM27.3987 22.1178C26.8234 22.1178 26.328 21.9949 25.9124 21.7491C25.4993 21.5007 25.1799 21.1523 24.9544 20.7037C24.7314 20.2526 24.6199 19.7242 24.6199 19.1185C24.6199 18.5204 24.7314 17.9932 24.9544 17.5371C25.1799 17.0809 25.4942 16.7248 25.8972 16.4688C26.3026 16.2129 26.7766 16.0849 27.3189 16.0849C27.6484 16.0849 27.9677 16.1394 28.2769 16.2484C28.5861 16.3573 28.8636 16.5284 29.1094 16.7616C29.3552 16.9947 29.5491 17.2976 29.691 17.6701C29.833 18.0401 29.9039 18.49 29.9039 19.0196V19.4226H25.2623V18.5711H28.7901C28.7901 18.272 28.7293 18.0072 28.6076 17.7766C28.486 17.5434 28.3149 17.3597 28.0944 17.2253C27.8765 17.091 27.6205 17.0239 27.3265 17.0239C27.0072 17.0239 26.7284 17.1024 26.4902 17.2596C26.2545 17.4141 26.072 17.6169 25.9428 17.8678C25.8161 18.1162 25.7527 18.3861 25.7527 18.6775V19.3428C25.7527 19.7331 25.8211 20.065 25.958 20.3388C26.0974 20.6125 26.2912 20.8215 26.5396 20.966C26.788 21.1079 27.0781 21.1789 27.4101 21.1789C27.6256 21.1789 27.822 21.1485 27.9994 21.0876C28.1768 21.0243 28.3301 20.9305 28.4593 20.8063C28.5886 20.6822 28.6874 20.5288 28.7559 20.3464L29.8317 20.5402C29.7455 20.857 29.5909 21.1345 29.3679 21.3728C29.1474 21.6084 28.8699 21.7922 28.5354 21.924C28.2034 22.0532 27.8245 22.1178 27.3987 22.1178ZM31.2563 22V14.2146H32.3929V17.1075H32.4614C32.5272 16.9859 32.6223 16.8452 32.7465 16.6855C32.8706 16.5259 33.043 16.3865 33.2635 16.2674C33.484 16.1457 33.7754 16.0849 34.1378 16.0849C34.6092 16.0849 35.0299 16.204 35.3999 16.4422C35.7699 16.6805 36.0601 17.0239 36.2704 17.4724C36.4833 17.921 36.5898 18.4608 36.5898 19.0919C36.5898 19.7229 36.4846 20.264 36.2742 20.7151C36.0639 21.1637 35.775 21.5096 35.4075 21.7529C35.04 21.9937 34.6206 22.114 34.1492 22.114C33.7944 22.114 33.5042 22.0545 33.2787 21.9354C33.0557 21.8163 32.8808 21.6769 32.7541 21.5172C32.6274 21.3576 32.5298 21.2156 32.4614 21.0914H32.3663V22H31.2563ZM32.3701 19.0805C32.3701 19.491 32.4297 19.8509 32.5488 20.1601C32.6679 20.4693 32.8402 20.7113 33.0658 20.8862C33.2913 21.0585 33.5676 21.1447 33.8945 21.1447C34.2341 21.1447 34.518 21.0547 34.746 20.8748C34.9741 20.6923 35.1465 20.4452 35.263 20.1335C35.3822 19.8218 35.4417 19.4707 35.4417 19.0805C35.4417 18.6952 35.3834 18.3493 35.2668 18.0427C35.1528 17.736 34.9805 17.494 34.7498 17.3166C34.5218 17.1392 34.2366 17.0505 33.8945 17.0505C33.5651 17.0505 33.2863 17.1354 33.0582 17.3052C32.8326 17.475 32.6616 17.7119 32.545 18.0161C32.4284 18.3202 32.3701 18.675 32.3701 19.0805ZM42.2416 17.5865L41.2114 17.769C41.1683 17.6372 41.0999 17.5117 41.0061 17.3926C40.9149 17.2735 40.7907 17.1759 40.6336 17.0999C40.4765 17.0239 40.28 16.9858 40.0444 16.9858C39.7225 16.9858 39.4539 17.0581 39.2384 17.2025C39.023 17.3445 38.9153 17.5282 38.9153 17.7537C38.9153 17.9489 38.9875 18.106 39.132 18.2251C39.2765 18.3442 39.5096 18.4418 39.8315 18.5178L40.759 18.7307C41.2963 18.8549 41.6967 19.0463 41.9603 19.3048C42.2239 19.5633 42.3557 19.899 42.3557 20.3121C42.3557 20.6619 42.2543 20.9736 42.0515 21.2473C41.8513 21.5185 41.5713 21.7314 41.2114 21.886C40.8541 22.0405 40.4397 22.1178 39.9683 22.1178C39.3145 22.1178 38.781 21.9785 38.3679 21.6997C37.9548 21.4184 37.7014 21.0192 37.6076 20.5022L38.7062 20.335C38.7747 20.6213 38.9153 20.838 39.1282 20.985C39.3411 21.1295 39.6186 21.2017 39.9607 21.2017C40.3333 21.2017 40.631 21.1244 40.8541 20.9698C41.0771 20.8127 41.1886 20.6213 41.1886 20.3958C41.1886 20.2133 41.1202 20.06 40.9833 19.9358C40.849 19.8116 40.6425 19.7178 40.3637 19.6545L39.3753 19.4378C38.8304 19.3136 38.4275 19.1159 38.1664 18.8448C37.9079 18.5736 37.7787 18.2302 37.7787 17.8146C37.7787 17.4699 37.875 17.1683 38.0676 16.9098C38.2602 16.6513 38.5263 16.4498 38.8659 16.3054C39.2055 16.1584 39.5945 16.0849 40.033 16.0849C40.664 16.0849 41.1607 16.2218 41.5231 16.4955C41.8855 16.7666 42.125 17.1303 42.2416 17.5865ZM43.6054 22V16.1609H44.742V22H43.6054ZM44.1794 15.26C43.9817 15.26 43.8119 15.1941 43.67 15.0623C43.5306 14.928 43.4609 14.7683 43.4609 14.5833C43.4609 14.3958 43.5306 14.2361 43.67 14.1043C43.8119 13.97 43.9817 13.9029 44.1794 13.9029C44.3771 13.9029 44.5456 13.97 44.685 14.1043C44.8269 14.2361 44.8979 14.3958 44.8979 14.5833C44.8979 14.7683 44.8269 14.928 44.685 15.0623C44.5456 15.1941 44.3771 15.26 44.1794 15.26ZM48.9968 16.1609V17.0733H45.8074V16.1609H48.9968ZM46.6627 14.762H47.7994V20.2855C47.7994 20.506 47.8323 20.672 47.8982 20.7835C47.9641 20.8925 48.049 20.9673 48.1529 21.0078C48.2593 21.0458 48.3747 21.0648 48.4988 21.0648C48.5901 21.0648 48.6699 21.0585 48.7383 21.0458C48.8068 21.0332 48.86 21.023 48.898 21.0154L49.1033 21.9544C49.0374 21.9797 48.9436 22.0051 48.822 22.0304C48.7003 22.0583 48.5483 22.0735 48.3658 22.076C48.0667 22.0811 47.788 22.0279 47.5295 21.9164C47.271 21.8049 47.0619 21.6325 46.9022 21.3994C46.7426 21.1662 46.6627 20.8735 46.6627 20.5212V14.762ZM52.708 22.1178C52.1327 22.1178 51.6373 21.9949 51.2217 21.7491C50.8086 21.5007 50.4892 21.1523 50.2637 20.7037C50.0407 20.2526 49.9291 19.7242 49.9291 19.1185C49.9291 18.5204 50.0407 17.9932 50.2637 17.5371C50.4892 17.0809 50.8035 16.7248 51.2064 16.4688C51.6119 16.2129 52.0859 16.0849 52.6282 16.0849C52.9577 16.0849 53.277 16.1394 53.5862 16.2484C53.8954 16.3573 54.1729 16.5284 54.4187 16.7616C54.6645 16.9947 54.8584 17.2976 55.0003 17.6701C55.1422 18.0401 55.2132 18.49 55.2132 19.0196V19.4226H50.5716V18.5711H54.0994C54.0994 18.272 54.0385 18.0072 53.9169 17.7766C53.7953 17.5434 53.6242 17.3597 53.4037 17.2253C53.1857 17.091 52.9298 17.0239 52.6358 17.0239C52.3165 17.0239 52.0377 17.1024 51.7995 17.2596C51.5638 17.4141 51.3813 17.6169 51.2521 17.8678C51.1253 18.1162 51.062 18.3861 51.062 18.6775V19.3428C51.062 19.7331 51.1304 20.065 51.2673 20.3388C51.4067 20.6125 51.6005 20.8215 51.8489 20.966C52.0973 21.1079 52.3874 21.1789 52.7194 21.1789C52.9349 21.1789 53.1313 21.1485 53.3087 21.0876C53.4861 21.0243 53.6394 20.9305 53.7686 20.8063C53.8979 20.6822 53.9967 20.5288 54.0652 20.3464L55.141 20.5402C55.0548 20.857 54.9002 21.1345 54.6772 21.3728C54.4567 21.6084 54.1792 21.7922 53.8447 21.924C53.5127 22.0532 53.1338 22.1178 52.708 22.1178ZM61.0067 22.1293C60.6366 22.1293 60.3021 22.0608 60.0031 21.924C59.704 21.7846 59.4671 21.5831 59.2922 21.3195C59.1199 21.056 59.0337 20.7328 59.0337 20.3502C59.0337 20.0207 59.097 19.7495 59.2238 19.5366C59.3505 19.3238 59.5215 19.1552 59.737 19.031C59.9524 18.9069 60.1931 18.8131 60.4592 18.7497C60.7253 18.6864 60.9965 18.6382 61.2728 18.6053C61.6225 18.5647 61.9063 18.5318 62.1243 18.5064C62.3422 18.4786 62.5006 18.4342 62.5995 18.3734C62.6983 18.3126 62.7477 18.2137 62.7477 18.0769V18.0503C62.7477 17.7183 62.654 17.461 62.4664 17.2786C62.2814 17.0961 62.0052 17.0049 61.6377 17.0049C61.255 17.0049 60.9534 17.0898 60.7329 17.2596C60.515 17.4268 60.3642 17.6131 60.2806 17.8184L59.2124 17.5751C59.3391 17.2203 59.5241 16.9339 59.7674 16.7159C60.0132 16.4955 60.2958 16.3358 60.6151 16.237C60.9344 16.1356 61.2702 16.0849 61.6225 16.0849C61.8557 16.0849 62.1027 16.1128 62.3638 16.1685C62.6274 16.2218 62.8732 16.3206 63.1013 16.465C63.3319 16.6095 63.5207 16.8161 63.6677 17.0847C63.8147 17.3508 63.8882 17.6967 63.8882 18.1225V22H62.7781V21.2017H62.7325C62.659 21.3487 62.5488 21.4931 62.4018 21.6351C62.2548 21.777 62.066 21.8948 61.8354 21.9886C61.6048 22.0824 61.3285 22.1293 61.0067 22.1293ZM61.2538 21.2169C61.568 21.2169 61.8366 21.1548 62.0597 21.0306C62.2852 20.9064 62.4563 20.7442 62.5729 20.544C62.692 20.3413 62.7515 20.1246 62.7515 19.894V19.1413C62.711 19.1818 62.6324 19.2199 62.5158 19.2553C62.4018 19.2883 62.2713 19.3174 62.1243 19.3428C61.9773 19.3656 61.8341 19.3871 61.6947 19.4074C61.5553 19.4251 61.4388 19.4403 61.345 19.453C61.1245 19.4809 60.923 19.5278 60.7406 19.5937C60.5606 19.6596 60.4162 19.7546 60.3072 19.8788C60.2007 20.0004 60.1475 20.1626 60.1475 20.3654C60.1475 20.6467 60.2514 20.8596 60.4592 21.004C60.6671 21.1459 60.9319 21.2169 61.2538 21.2169ZM69.101 19.5785V16.1609H70.2414V22H69.1238V20.9888H69.0629C68.9286 21.3005 68.7132 21.5603 68.4167 21.7681C68.1227 21.9734 67.7565 22.076 67.3181 22.076C66.943 22.076 66.611 21.9937 66.3221 21.8289C66.0357 21.6617 65.8101 21.4146 65.6454 21.0876C65.4832 20.7607 65.4021 20.3565 65.4021 19.875V16.1609H66.5388V19.7381C66.5388 20.136 66.649 20.4528 66.8695 20.6885C67.09 20.9242 67.3763 21.042 67.7286 21.042C67.9415 21.042 68.1531 20.9888 68.3635 20.8824C68.5763 20.7759 68.7525 20.615 68.8919 20.3996C69.0338 20.1842 69.1035 19.9105 69.101 19.5785ZM73.9545 22.114C73.4831 22.114 73.0624 21.9937 72.6924 21.7529C72.3249 21.5096 72.036 21.1637 71.8257 20.7151C71.6178 20.264 71.5139 19.7229 71.5139 19.0919C71.5139 18.4608 71.6191 17.921 71.8295 17.4724C72.0423 17.0239 72.3338 16.6805 72.7038 16.4422C73.0738 16.204 73.4932 16.0849 73.9621 16.0849C74.3245 16.0849 74.6159 16.1457 74.8364 16.2674C75.0595 16.3865 75.2318 16.5259 75.3534 16.6855C75.4776 16.8452 75.5739 16.9859 75.6423 17.1075H75.7108V14.2146H76.8474V22H75.7374V21.0914H75.6423C75.5739 21.2156 75.4751 21.3576 75.3458 21.5172C75.2191 21.6769 75.0442 21.8163 74.8212 21.9354C74.5982 22.0545 74.3093 22.114 73.9545 22.114ZM74.2054 21.1447C74.5323 21.1447 74.8086 21.0585 75.0341 20.8862C75.2622 20.7113 75.4345 20.4693 75.5511 20.1601C75.6702 19.8509 75.7298 19.491 75.7298 19.0805C75.7298 18.675 75.6715 18.3202 75.5549 18.0161C75.4383 17.7119 75.2673 17.475 75.0417 17.3052C74.8162 17.1354 74.5374 17.0505 74.2054 17.0505C73.8633 17.0505 73.5781 17.1392 73.3501 17.3166C73.122 17.494 72.9496 17.736 72.8331 18.0427C72.719 18.3493 72.662 18.6952 72.662 19.0805C72.662 19.4707 72.7203 19.8218 72.8369 20.1335C72.9534 20.4452 73.1258 20.6923 73.3539 20.8748C73.5845 21.0547 73.8683 21.1447 74.2054 21.1447ZM78.4697 22V16.1609H79.6063V22H78.4697ZM79.0437 15.26C78.846 15.26 78.6762 15.1941 78.5343 15.0623C78.3949 14.928 78.3252 14.7683 78.3252 14.5833C78.3252 14.3958 78.3949 14.2361 78.5343 14.1043C78.6762 13.97 78.846 13.9029 79.0437 13.9029C79.2414 13.9029 79.4099 13.97 79.5493 14.1043C79.6912 14.2361 79.7622 14.3958 79.7622 14.5833C79.7622 14.7683 79.6912 14.928 79.5493 15.0623C79.4099 15.1941 79.2414 15.26 79.0437 15.26ZM83.8611 16.1609V17.0733H80.6717V16.1609H83.8611ZM81.527 14.762H82.6637V20.2855C82.6637 20.506 82.6966 20.672 82.7625 20.7835C82.8284 20.8925 82.9133 20.9673 83.0172 21.0078C83.1237 21.0458 83.239 21.0648 83.3631 21.0648C83.4544 21.0648 83.5342 21.0585 83.6026 21.0458C83.6711 21.0332 83.7243 21.023 83.7623 21.0154L83.9676 21.9544C83.9017 21.9797 83.8079 22.0051 83.6863 22.0304C83.5646 22.0583 83.4126 22.0735 83.2301 22.076C82.931 22.0811 82.6523 22.0279 82.3938 21.9164C82.1353 21.8049 81.9262 21.6325 81.7665 21.3994C81.6069 21.1662 81.527 20.8735 81.527 20.5212V14.762Z" fill="#0F141F"/>
<path d="M169.267 15.4803L164.72 20.0276L162.653 17.9606" stroke="#0F141F" stroke-width="0.8" stroke-linecap="round" stroke-linejoin="round"/>
<rect x="0.3" y="73.3" width="182.48" height="35.7779" rx="7.72872" fill="white" stroke="#0F141F" stroke-width="0.6"/>
<path d="M16.8553 87.2146H18.2809L20.7595 93.2666H20.8507L23.3293 87.2146H24.7548V95H23.6372V89.3662H23.5649L21.2688 94.9886H20.3413L18.0452 89.3624H17.973V95H16.8553V87.2146ZM28.0706 95.1293C27.7006 95.1293 27.3661 95.0609 27.0671 94.924C26.768 94.7846 26.531 94.5831 26.3562 94.3196C26.1838 94.056 26.0977 93.7329 26.0977 93.3502C26.0977 93.0207 26.161 92.7496 26.2878 92.5367C26.4145 92.3238 26.5855 92.1553 26.8009 92.0311C27.0164 91.9069 27.2571 91.8131 27.5232 91.7498C27.7893 91.6864 28.0605 91.6383 28.3367 91.6053C28.6865 91.5648 28.9703 91.5318 29.1883 91.5065C29.4062 91.4786 29.5646 91.4342 29.6635 91.3734C29.7623 91.3126 29.8117 91.2138 29.8117 91.0769V91.0503C29.8117 90.7183 29.718 90.4611 29.5304 90.2786C29.3454 90.0961 29.0692 90.0049 28.7017 90.0049C28.319 90.0049 28.0174 90.0898 27.7969 90.2596C27.579 90.4269 27.4282 90.6131 27.3446 90.8184L26.2763 90.5751C26.4031 90.2203 26.5881 89.9339 26.8314 89.716C27.0772 89.4955 27.3598 89.3358 27.6791 89.237C27.9984 89.1356 28.3342 89.0849 28.6865 89.0849C28.9196 89.0849 29.1667 89.1128 29.4278 89.1686C29.6913 89.2218 29.9372 89.3206 30.1653 89.4651C30.3959 89.6095 30.5847 89.8161 30.7317 90.0847C30.8787 90.3508 30.9522 90.6968 30.9522 91.1225V95H29.8421V94.2017H29.7965C29.723 94.3487 29.6128 94.4932 29.4658 94.6351C29.3188 94.777 29.13 94.8949 28.8994 94.9886C28.6687 95.0824 28.3925 95.1293 28.0706 95.1293ZM28.3177 94.2169C28.632 94.2169 28.9006 94.1548 29.1237 94.0307C29.3492 93.9065 29.5203 93.7443 29.6369 93.5441C29.756 93.3413 29.8155 93.1246 29.8155 92.894V92.1413C29.775 92.1819 29.6964 92.2199 29.5798 92.2554C29.4658 92.2883 29.3353 92.3175 29.1883 92.3428C29.0413 92.3656 28.8981 92.3871 28.7587 92.4074C28.6193 92.4252 28.5027 92.4404 28.409 92.453C28.1885 92.4809 27.987 92.5278 27.8045 92.5937C27.6246 92.6596 27.4801 92.7546 27.3712 92.8788C27.2647 93.0005 27.2115 93.1626 27.2115 93.3654C27.2115 93.6467 27.3154 93.8596 27.5232 94.004C27.731 94.146 27.9959 94.2169 28.3177 94.2169ZM32.4661 95V89.161H33.5647V90.0885H33.6256C33.732 89.7743 33.9195 89.5272 34.1882 89.3472C34.4593 89.1648 34.766 89.0735 35.1081 89.0735C35.1791 89.0735 35.2627 89.0761 35.359 89.0811C35.4579 89.0862 35.5352 89.0925 35.5909 89.1001V90.1874C35.5453 90.1747 35.4642 90.1607 35.3476 90.1455C35.231 90.1278 35.1145 90.1189 34.9979 90.1189C34.7292 90.1189 34.4898 90.176 34.2794 90.29C34.0716 90.4015 33.9069 90.5574 33.7852 90.7576C33.6636 90.9553 33.6027 91.1808 33.6027 91.4342V95H32.4661ZM37.62 93.0195L37.6124 91.6319H37.81L40.1365 89.161H41.4975L38.844 91.9741H38.6654L37.62 93.0195ZM36.5746 95V87.2146H37.7112V95H36.5746ZM40.262 95L38.1712 92.225L38.9543 91.4304L41.6571 95H40.262ZM44.8095 95.1179C44.2342 95.1179 43.7388 94.995 43.3231 94.7491C42.91 94.5008 42.5907 94.1523 42.3652 93.7037C42.1421 93.2526 42.0306 92.7242 42.0306 92.1185C42.0306 91.5204 42.1421 90.9933 42.3652 90.5371C42.5907 90.0809 42.905 89.7248 43.3079 89.4689C43.7134 89.2129 44.1873 89.0849 44.7297 89.0849C45.0591 89.0849 45.3785 89.1394 45.6876 89.2484C45.9968 89.3574 46.2743 89.5284 46.5202 89.7616C46.766 89.9948 46.9599 90.2976 47.1018 90.6701C47.2437 91.0402 47.3147 91.49 47.3147 92.0197V92.4226H42.6731V91.5711H46.2008C46.2008 91.272 46.14 91.0072 46.0184 90.7766C45.8967 90.5434 45.7257 90.3597 45.5052 90.2254C45.2872 90.0911 45.0313 90.0239 44.7373 90.0239C44.418 90.0239 44.1392 90.1025 43.901 90.2596C43.6653 90.4142 43.4828 90.6169 43.3535 90.8678C43.2268 91.1162 43.1635 91.3861 43.1635 91.6775V92.3428C43.1635 92.7331 43.2319 93.0651 43.3687 93.3388C43.5081 93.6125 43.702 93.8216 43.9504 93.966C44.1987 94.108 44.4889 94.1789 44.8209 94.1789C45.0363 94.1789 45.2327 94.1485 45.4101 94.0877C45.5875 94.0243 45.7409 93.9305 45.8701 93.8064C45.9994 93.6822 46.0982 93.5289 46.1666 93.3464L47.2424 93.5403C47.1563 93.8571 47.0017 94.1346 46.7787 94.3728C46.5582 94.6085 46.2807 94.7922 45.9461 94.924C45.6141 95.0533 45.2353 95.1179 44.8095 95.1179ZM51.3015 89.161V90.0733H48.112V89.161H51.3015ZM48.9674 87.762H50.104V93.2856C50.104 93.506 50.137 93.672 50.2028 93.7836C50.2687 93.8925 50.3536 93.9673 50.4575 94.0078C50.564 94.0459 50.6793 94.0649 50.8035 94.0649C50.8947 94.0649 50.9745 94.0585 51.043 94.0459C51.1114 94.0332 51.1646 94.0231 51.2026 94.0154L51.4079 94.9544C51.342 94.9798 51.2483 95.0051 51.1266 95.0304C51.005 95.0583 50.8529 95.0735 50.6704 95.0761C50.3714 95.0811 50.0926 95.0279 49.8341 94.9164C49.5756 94.8049 49.3665 94.6326 49.2069 94.3994C49.0472 94.1662 48.9674 93.8735 48.9674 93.5213V87.762ZM57.9084 95.1179C57.3332 95.1179 56.8377 94.995 56.4221 94.7491C56.009 94.5008 55.6896 94.1523 55.4641 93.7037C55.2411 93.2526 55.1296 92.7242 55.1296 92.1185C55.1296 91.5204 55.2411 90.9933 55.4641 90.5371C55.6896 90.0809 56.0039 89.7248 56.4069 89.4689C56.8124 89.2129 57.2863 89.0849 57.8286 89.0849C58.1581 89.0849 58.4774 89.1394 58.7866 89.2484C59.0958 89.3574 59.3733 89.5284 59.6191 89.7616C59.8649 89.9948 60.0588 90.2976 60.2007 90.6701C60.3427 91.0402 60.4136 91.49 60.4136 92.0197V92.4226H55.772V91.5711H59.2998C59.2998 91.272 59.239 91.0072 59.1173 90.7766C58.9957 90.5434 58.8246 90.3597 58.6041 90.2254C58.3862 90.0911 58.1302 90.0239 57.8362 90.0239C57.5169 90.0239 57.2381 90.1025 56.9999 90.2596C56.7642 90.4142 56.5817 90.6169 56.4525 90.8678C56.3258 91.1162 56.2624 91.3861 56.2624 91.6775V92.3428C56.2624 92.7331 56.3308 93.0651 56.4677 93.3388C56.6071 93.6125 56.8009 93.8216 57.0493 93.966C57.2977 94.108 57.5879 94.1789 57.9198 94.1789C58.1353 94.1789 58.3317 94.1485 58.5091 94.0877C58.6865 94.0243 58.8398 93.9305 58.9691 93.8064C59.0983 93.6822 59.1971 93.5289 59.2656 93.3464L60.3414 93.5403C60.2552 93.8571 60.1006 94.1346 59.8776 94.3728C59.6571 94.6085 59.3796 94.7922 59.0451 94.924C58.7131 95.0533 58.3342 95.1179 57.9084 95.1179ZM62.436 89.161L63.7247 91.4342L65.0248 89.161H66.2679L64.447 92.0805L66.2831 95H65.04L63.7247 92.818L62.4132 95H61.1663L62.9834 92.0805L61.1891 89.161H62.436ZM67.4349 97.1897V89.161H68.545V90.1075H68.64C68.7059 89.9859 68.8009 89.8452 68.9251 89.6856C69.0493 89.5259 69.2216 89.3865 69.4421 89.2674C69.6626 89.1458 69.9541 89.0849 70.3165 89.0849C70.7879 89.0849 71.2086 89.204 71.5786 89.4423C71.9486 89.6805 72.2388 90.0239 72.4491 90.4725C72.662 90.921 72.7684 91.4609 72.7684 92.0919C72.7684 92.7229 72.6632 93.264 72.4529 93.7151C72.2426 94.1637 71.9536 94.5096 71.5862 94.7529C71.2187 94.9937 70.7993 95.1141 70.3279 95.1141C69.9731 95.1141 69.6829 95.0545 69.4573 94.9354C69.2343 94.8163 69.0594 94.6769 68.9327 94.5172C68.806 94.3576 68.7084 94.2157 68.64 94.0915H68.5716V97.1897H67.4349ZM68.5488 92.0805C68.5488 92.4911 68.6083 92.8509 68.7275 93.1601C68.8466 93.4693 69.0189 93.7113 69.2445 93.8862C69.47 94.0585 69.7462 94.1447 70.0732 94.1447C70.4128 94.1447 70.6966 94.0547 70.9247 93.8748C71.1528 93.6923 71.3251 93.4452 71.4417 93.1335C71.5608 92.8218 71.6204 92.4708 71.6204 92.0805C71.6204 91.6953 71.5621 91.3493 71.4455 91.0427C71.3315 90.736 71.1591 90.494 70.9285 90.3166C70.7004 90.1392 70.4153 90.0505 70.0732 90.0505C69.7437 90.0505 69.4649 90.1354 69.2369 90.3052C69.0113 90.475 68.8402 90.712 68.7237 91.0161C68.6071 91.3202 68.5488 91.675 68.5488 92.0805ZM75.1786 87.2146V95H74.0419V87.2146H75.1786ZM79.1673 95.1179C78.6199 95.1179 78.1421 94.9924 77.7341 94.7415C77.3261 94.4906 77.0093 94.1396 76.7837 93.6885C76.5582 93.2374 76.4454 92.7103 76.4454 92.1071C76.4454 91.5014 76.5582 90.9717 76.7837 90.5181C77.0093 90.0644 77.3261 89.7122 77.7341 89.4613C78.1421 89.2104 78.6199 89.0849 79.1673 89.0849C79.7147 89.0849 80.1924 89.2104 80.6004 89.4613C81.0084 89.7122 81.3252 90.0644 81.5508 90.5181C81.7763 90.9717 81.8891 91.5014 81.8891 92.1071C81.8891 92.7103 81.7763 93.2374 81.5508 93.6885C81.3252 94.1396 81.0084 94.4906 80.6004 94.7415C80.1924 94.9924 79.7147 95.1179 79.1673 95.1179ZM79.1711 94.1637C79.5259 94.1637 79.8199 94.0699 80.053 93.8824C80.2862 93.6949 80.4585 93.4452 80.57 93.1335C80.6841 92.8218 80.7411 92.4784 80.7411 92.1033C80.7411 91.7308 80.6841 91.3886 80.57 91.0769C80.4585 90.7626 80.2862 90.5105 80.053 90.3204C79.8199 90.1303 79.5259 90.0353 79.1711 90.0353C78.8137 90.0353 78.5172 90.1303 78.2815 90.3204C78.0484 90.5105 77.8748 90.7626 77.7607 91.0769C77.6492 91.3886 77.5935 91.7308 77.5935 92.1033C77.5935 92.4784 77.6492 92.8218 77.7607 93.1335C77.8748 93.4452 78.0484 93.6949 78.2815 93.8824C78.5172 94.0699 78.8137 94.1637 79.1711 94.1637ZM83.1579 95V89.161H84.2565V90.0885H84.3173C84.4238 89.7743 84.6113 89.5272 84.8799 89.3472C85.1511 89.1648 85.4578 89.0735 85.7999 89.0735C85.8709 89.0735 85.9545 89.0761 86.0508 89.0811C86.1496 89.0862 86.2269 89.0925 86.2827 89.1001V90.1874C86.2371 90.1747 86.156 90.1607 86.0394 90.1455C85.9228 90.1278 85.8062 90.1189 85.6897 90.1189C85.421 90.1189 85.1815 90.176 84.9712 90.29C84.7634 90.4015 84.5986 90.5574 84.477 90.7576C84.3553 90.9553 84.2945 91.1808 84.2945 91.4342V95H83.1579ZM88.9133 95.1293C88.5433 95.1293 88.2088 95.0609 87.9097 94.924C87.6107 94.7846 87.3737 94.5831 87.1988 94.3196C87.0265 94.056 86.9403 93.7329 86.9403 93.3502C86.9403 93.0207 87.0037 92.7496 87.1304 92.5367C87.2571 92.3238 87.4282 92.1553 87.6436 92.0311C87.859 91.9069 88.0998 91.8131 88.3659 91.7498C88.632 91.6864 88.9032 91.6383 89.1794 91.6053C89.5291 91.5648 89.813 91.5318 90.0309 91.5065C90.2489 91.4786 90.4073 91.4342 90.5061 91.3734C90.605 91.3126 90.6544 91.2138 90.6544 91.0769V91.0503C90.6544 90.7183 90.5606 90.4611 90.3731 90.2786C90.1881 90.0961 89.9118 90.0049 89.5443 90.0049C89.1617 90.0049 88.8601 90.0898 88.6396 90.2596C88.4216 90.4269 88.2709 90.6131 88.1872 90.8184L87.119 90.5751C87.2457 90.2203 87.4307 89.9339 87.674 89.716C87.9198 89.4955 88.2024 89.3358 88.5217 89.237C88.8411 89.1356 89.1769 89.0849 89.5291 89.0849C89.7623 89.0849 90.0094 89.1128 90.2704 89.1686C90.534 89.2218 90.7798 89.3206 91.0079 89.4651C91.2385 89.6095 91.4273 89.8161 91.5743 90.0847C91.7213 90.3508 91.7948 90.6968 91.7948 91.1225V95H90.6848V94.2017H90.6392C90.5657 94.3487 90.4554 94.4932 90.3084 94.6351C90.1615 94.777 89.9726 94.8949 89.742 94.9886C89.5114 95.0824 89.2352 95.1293 88.9133 95.1293ZM89.1604 94.2169C89.4747 94.2169 89.7433 94.1548 89.9663 94.0307C90.1919 93.9065 90.3629 93.7443 90.4795 93.5441C90.5986 93.3413 90.6582 93.1246 90.6582 92.894V92.1413C90.6176 92.1819 90.5391 92.2199 90.4225 92.2554C90.3084 92.2883 90.1779 92.3175 90.0309 92.3428C89.8839 92.3656 89.7408 92.3871 89.6014 92.4074C89.462 92.4252 89.3454 92.4404 89.2516 92.453C89.0311 92.4809 88.8297 92.5278 88.6472 92.5937C88.4673 92.6596 88.3228 92.7546 88.2138 92.8788C88.1074 93.0005 88.0542 93.1626 88.0542 93.3654C88.0542 93.6467 88.1581 93.8596 88.3659 94.004C88.5737 94.146 88.8385 94.2169 89.1604 94.2169ZM96.0344 89.161V90.0733H92.845V89.161H96.0344ZM93.7003 87.762H94.837V93.2856C94.837 93.506 94.8699 93.672 94.9358 93.7836C95.0017 93.8925 95.0866 93.9673 95.1905 94.0078C95.2969 94.0459 95.4122 94.0649 95.5364 94.0649C95.6277 94.0649 95.7075 94.0585 95.7759 94.0459C95.8443 94.0332 95.8976 94.0231 95.9356 94.0154L96.1409 94.9544C96.075 94.9798 95.9812 95.0051 95.8596 95.0304C95.7379 95.0583 95.5858 95.0735 95.4034 95.0761C95.1043 95.0811 94.8255 95.0279 94.567 94.9164C94.3085 94.8049 94.0995 94.6326 93.9398 94.3994C93.7801 94.1662 93.7003 93.8735 93.7003 93.5213V87.762ZM97.2918 95V89.161H98.4284V95H97.2918ZM97.8658 88.26C97.6681 88.26 97.4983 88.1941 97.3564 88.0623C97.217 87.928 97.1473 87.7684 97.1473 87.5833C97.1473 87.3958 97.217 87.2361 97.3564 87.1044C97.4983 86.97 97.6681 86.9029 97.8658 86.9029C98.0635 86.9029 98.232 86.97 98.3714 87.1044C98.5133 87.2361 98.5843 87.3958 98.5843 87.5833C98.5843 87.7684 98.5133 87.928 98.3714 88.0623C98.232 88.1941 98.0635 88.26 97.8658 88.26ZM102.417 95.1179C101.87 95.1179 101.392 94.9924 100.984 94.7415C100.576 94.4906 100.259 94.1396 100.034 93.6885C99.808 93.2374 99.6952 92.7103 99.6952 92.1071C99.6952 91.5014 99.808 90.9717 100.034 90.5181C100.259 90.0644 100.576 89.7122 100.984 89.4613C101.392 89.2104 101.87 89.0849 102.417 89.0849C102.965 89.0849 103.442 89.2104 103.85 89.4613C104.258 89.7122 104.575 90.0644 104.801 90.5181C105.026 90.9717 105.139 91.5014 105.139 92.1071C105.139 92.7103 105.026 93.2374 104.801 93.6885C104.575 94.1396 104.258 94.4906 103.85 94.7415C103.442 94.9924 102.965 95.1179 102.417 95.1179ZM102.421 94.1637C102.776 94.1637 103.07 94.0699 103.303 93.8824C103.536 93.6949 103.708 93.4452 103.82 93.1335C103.934 92.8218 103.991 92.4784 103.991 92.1033C103.991 91.7308 103.934 91.3886 103.82 91.0769C103.708 90.7626 103.536 90.5105 103.303 90.3204C103.07 90.1303 102.776 90.0353 102.421 90.0353C102.064 90.0353 101.767 90.1303 101.531 90.3204C101.298 90.5105 101.125 90.7626 101.011 91.0769C100.899 91.3886 100.843 91.7308 100.843 92.1033C100.843 92.4784 100.899 92.8218 101.011 93.1335C101.125 93.4452 101.298 93.6949 101.531 93.8824C101.767 94.0699 102.064 94.1637 102.421 94.1637ZM107.544 91.5331V95H106.408V89.161H107.499V90.1113H107.571C107.705 89.8021 107.916 89.5538 108.202 89.3662C108.491 89.1787 108.855 89.0849 109.293 89.0849C109.691 89.0849 110.039 89.1686 110.338 89.3358C110.637 89.5006 110.869 89.7464 111.034 90.0733C111.199 90.4002 111.281 90.8045 111.281 91.286V95H110.145V91.4228C110.145 90.9996 110.034 90.6689 109.814 90.4307C109.593 90.1899 109.29 90.0695 108.905 90.0695C108.642 90.0695 108.407 90.1265 108.202 90.2406C107.999 90.3546 107.838 90.5219 107.719 90.7424C107.603 90.9603 107.544 91.2239 107.544 91.5331Z" fill="#0F141F"/>
<path d="M169.267 88.4803L164.72 93.0276L162.653 90.9607" stroke="#0F141F" stroke-width="0.8" stroke-linecap="round" stroke-linejoin="round"/>
<rect x="227.3" y="0.3" width="182.48" height="35.7779" rx="7.72872" fill="white" stroke="#0F141F" stroke-width="0.6"/>
<path d="M241.084 22V14.2146H242.259V17.9324H242.354L245.619 14.2146H247.098L243.958 17.7195L247.109 22H245.695L243.178 18.5216L242.259 19.5785V22H241.084ZM250.189 22.1178C249.614 22.1178 249.119 21.9949 248.703 21.7491C248.29 21.5007 247.971 21.1523 247.745 20.7037C247.522 20.2526 247.41 19.7242 247.41 19.1185C247.41 18.5204 247.522 17.9932 247.745 17.5371C247.971 17.0809 248.285 16.7248 248.688 16.4688C249.093 16.2129 249.567 16.0849 250.11 16.0849C250.439 16.0849 250.758 16.1394 251.067 16.2484C251.377 16.3573 251.654 16.5284 251.9 16.7616C252.146 16.9947 252.34 17.2976 252.482 17.6701C252.624 18.0401 252.695 18.49 252.695 19.0196V19.4226H248.053V18.5711H251.581C251.581 18.272 251.52 18.0072 251.398 17.7766C251.277 17.5434 251.105 17.3597 250.885 17.2253C250.667 17.091 250.411 17.0239 250.117 17.0239C249.798 17.0239 249.519 17.1024 249.281 17.2596C249.045 17.4141 248.863 17.6169 248.733 17.8678C248.607 18.1162 248.543 18.3861 248.543 18.6775V19.3428C248.543 19.7331 248.612 20.065 248.749 20.3388C248.888 20.6125 249.082 20.8215 249.33 20.966C249.579 21.1079 249.869 21.1789 250.201 21.1789C250.416 21.1789 250.613 21.1485 250.79 21.0876C250.967 21.0243 251.121 20.9305 251.25 20.8063C251.379 20.6822 251.478 20.5288 251.546 20.3464L252.622 20.5402C252.536 20.857 252.382 21.1345 252.159 21.3728C251.938 21.6084 251.661 21.7922 251.326 21.924C250.994 22.0532 250.615 22.1178 250.189 22.1178ZM254.507 24.1897C254.337 24.1897 254.182 24.1757 254.043 24.1478C253.904 24.1225 253.8 24.0946 253.731 24.0642L254.005 23.1328C254.213 23.1886 254.398 23.2127 254.56 23.2051C254.722 23.1975 254.865 23.1366 254.99 23.0226C255.116 22.9086 255.228 22.7223 255.324 22.4638L255.465 22.076L253.328 16.1609H254.545L256.024 20.6923H256.084L257.563 16.1609H258.784L256.377 22.7793C256.266 23.0834 256.124 23.3407 255.951 23.551C255.779 23.7639 255.574 23.9235 255.336 24.03C255.097 24.1364 254.821 24.1897 254.507 24.1897ZM261.118 22L259.399 16.1609H260.574L261.718 20.449H261.775L262.923 16.1609H264.098L265.238 20.43H265.295L266.432 16.1609H267.607L265.892 22H264.733L263.547 17.7842H263.459L262.273 22H261.118ZM270.967 22.1178C270.42 22.1178 269.942 21.9924 269.534 21.7415C269.126 21.4906 268.809 21.1396 268.584 20.6885C268.358 20.2374 268.245 19.7102 268.245 19.1071C268.245 18.5014 268.358 17.9717 268.584 17.5181C268.809 17.0644 269.126 16.7121 269.534 16.4612C269.942 16.2103 270.42 16.0849 270.967 16.0849C271.515 16.0849 271.992 16.2103 272.4 16.4612C272.808 16.7121 273.125 17.0644 273.351 17.5181C273.576 17.9717 273.689 18.5014 273.689 19.1071C273.689 19.7102 273.576 20.2374 273.351 20.6885C273.125 21.1396 272.808 21.4906 272.4 21.7415C271.992 21.9924 271.515 22.1178 270.967 22.1178ZM270.971 21.1637C271.326 21.1637 271.62 21.0699 271.853 20.8824C272.086 20.6948 272.259 20.4452 272.37 20.1335C272.484 19.8218 272.541 19.4784 272.541 19.1033C272.541 18.7307 272.484 18.3886 272.37 18.0769C272.259 17.7626 272.086 17.5105 271.853 17.3204C271.62 17.1303 271.326 17.0353 270.971 17.0353C270.614 17.0353 270.317 17.1303 270.082 17.3204C269.848 17.5105 269.675 17.7626 269.561 18.0769C269.449 18.3886 269.393 18.7307 269.393 19.1033C269.393 19.4784 269.449 19.8218 269.561 20.1335C269.675 20.4452 269.848 20.6948 270.082 20.8824C270.317 21.0699 270.614 21.1637 270.971 21.1637ZM274.958 22V16.1609H276.056V17.0885H276.117C276.224 16.7742 276.411 16.5271 276.68 16.3472C276.951 16.1647 277.258 16.0735 277.6 16.0735C277.671 16.0735 277.754 16.076 277.851 16.0811C277.95 16.0862 278.027 16.0925 278.083 16.1001V17.1873C278.037 17.1747 277.956 17.1607 277.839 17.1455C277.723 17.1278 277.606 17.1189 277.49 17.1189C277.221 17.1189 276.982 17.1759 276.771 17.29C276.563 17.4015 276.399 17.5573 276.277 17.7576C276.155 17.9552 276.095 18.1808 276.095 18.4342V22H274.958ZM281.043 22.114C280.572 22.114 280.151 21.9937 279.781 21.7529C279.414 21.5096 279.125 21.1637 278.914 20.7151C278.706 20.264 278.603 19.7229 278.603 19.0919C278.603 18.4608 278.708 17.921 278.918 17.4724C279.131 17.0239 279.422 16.6805 279.792 16.4422C280.162 16.204 280.582 16.0849 281.051 16.0849C281.413 16.0849 281.705 16.1457 281.925 16.2674C282.148 16.3865 282.32 16.5259 282.442 16.6855C282.566 16.8452 282.663 16.9859 282.731 17.1075H282.799V14.2146H283.936V22H282.826V21.0914H282.731C282.663 21.2156 282.564 21.3576 282.434 21.5172C282.308 21.6769 282.133 21.8163 281.91 21.9354C281.687 22.0545 281.398 22.114 281.043 22.114ZM281.294 21.1447C281.621 21.1447 281.897 21.0585 282.123 20.8862C282.351 20.7113 282.523 20.4693 282.64 20.1601C282.759 19.8509 282.818 19.491 282.818 19.0805C282.818 18.675 282.76 18.3202 282.644 18.0161C282.527 17.7119 282.356 17.475 282.13 17.3052C281.905 17.1354 281.626 17.0505 281.294 17.0505C280.952 17.0505 280.667 17.1392 280.439 17.3166C280.211 17.494 280.038 17.736 279.922 18.0427C279.808 18.3493 279.751 18.6952 279.751 19.0805C279.751 19.4707 279.809 19.8218 279.925 20.1335C280.042 20.4452 280.214 20.6923 280.442 20.8748C280.673 21.0547 280.957 21.1447 281.294 21.1447ZM288.391 22V16.1609H289.49V17.0885H289.551C289.657 16.7742 289.845 16.5271 290.113 16.3472C290.385 16.1647 290.691 16.0735 291.033 16.0735C291.104 16.0735 291.188 16.076 291.284 16.0811C291.383 16.0862 291.46 16.0925 291.516 16.1001V17.1873C291.471 17.1747 291.389 17.1607 291.273 17.1455C291.156 17.1278 291.04 17.1189 290.923 17.1189C290.654 17.1189 290.415 17.1759 290.205 17.29C289.997 17.4015 289.832 17.5573 289.71 17.7576C289.589 17.9552 289.528 18.1808 289.528 18.4342V22H288.391ZM294.807 22.1178C294.232 22.1178 293.737 21.9949 293.321 21.7491C292.908 21.5007 292.588 21.1523 292.363 20.7037C292.14 20.2526 292.028 19.7242 292.028 19.1185C292.028 18.5204 292.14 17.9932 292.363 17.5371C292.588 17.0809 292.903 16.7248 293.306 16.4688C293.711 16.2129 294.185 16.0849 294.727 16.0849C295.057 16.0849 295.376 16.1394 295.685 16.2484C295.995 16.3573 296.272 16.5284 296.518 16.7616C296.764 16.9947 296.958 17.2976 297.1 17.6701C297.242 18.0401 297.312 18.49 297.312 19.0196V19.4226H292.671V18.5711H296.199C296.199 18.272 296.138 18.0072 296.016 17.7766C295.895 17.5434 295.723 17.3597 295.503 17.2253C295.285 17.091 295.029 17.0239 294.735 17.0239C294.416 17.0239 294.137 17.1024 293.899 17.2596C293.663 17.4141 293.481 17.6169 293.351 17.8678C293.225 18.1162 293.161 18.3861 293.161 18.6775V19.3428C293.161 19.7331 293.23 20.065 293.367 20.3388C293.506 20.6125 293.7 20.8215 293.948 20.966C294.197 21.1079 294.487 21.1789 294.819 21.1789C295.034 21.1789 295.231 21.1485 295.408 21.0876C295.585 21.0243 295.739 20.9305 295.868 20.8063C295.997 20.6822 296.096 20.5288 296.164 20.3464L297.24 20.5402C297.154 20.857 296.999 21.1345 296.776 21.3728C296.556 21.6084 296.278 21.7922 295.944 21.924C295.612 22.0532 295.233 22.1178 294.807 22.1178ZM302.949 17.5865L301.919 17.769C301.876 17.6372 301.807 17.5117 301.714 17.3926C301.622 17.2735 301.498 17.1759 301.341 17.0999C301.184 17.0239 300.988 16.9858 300.752 16.9858C300.43 16.9858 300.161 17.0581 299.946 17.2025C299.731 17.3445 299.623 17.5282 299.623 17.7537C299.623 17.9489 299.695 18.106 299.839 18.2251C299.984 18.3442 300.217 18.4418 300.539 18.5178L301.467 18.7307C302.004 18.8549 302.404 19.0463 302.668 19.3048C302.931 19.5633 303.063 19.899 303.063 20.3121C303.063 20.6619 302.962 20.9736 302.759 21.2473C302.559 21.5185 302.279 21.7314 301.919 21.886C301.562 22.0405 301.147 22.1178 300.676 22.1178C300.022 22.1178 299.488 21.9785 299.075 21.6997C298.662 21.4184 298.409 21.0192 298.315 20.5022L299.414 20.335C299.482 20.6213 299.623 20.838 299.836 20.985C300.049 21.1295 300.326 21.2017 300.668 21.2017C301.041 21.2017 301.339 21.1244 301.562 20.9698C301.785 20.8127 301.896 20.6213 301.896 20.3958C301.896 20.2133 301.828 20.06 301.691 19.9358C301.556 19.8116 301.35 19.7178 301.071 19.6545L300.083 19.4378C299.538 19.3136 299.135 19.1159 298.874 18.8448C298.615 18.5736 298.486 18.2302 298.486 17.8146C298.486 17.4699 298.582 17.1683 298.775 16.9098C298.968 16.6513 299.234 16.4498 299.573 16.3054C299.913 16.1584 300.302 16.0849 300.74 16.0849C301.371 16.0849 301.868 16.2218 302.231 16.4955C302.593 16.7666 302.833 17.1303 302.949 17.5865ZM306.829 22.1178C306.254 22.1178 305.759 21.9949 305.343 21.7491C304.93 21.5007 304.611 21.1523 304.385 20.7037C304.162 20.2526 304.051 19.7242 304.051 19.1185C304.051 18.5204 304.162 17.9932 304.385 17.5371C304.611 17.0809 304.925 16.7248 305.328 16.4688C305.733 16.2129 306.207 16.0849 306.75 16.0849C307.079 16.0849 307.398 16.1394 307.708 16.2484C308.017 16.3573 308.294 16.5284 308.54 16.7616C308.786 16.9947 308.98 17.2976 309.122 17.6701C309.264 18.0401 309.335 18.49 309.335 19.0196V19.4226H304.693V18.5711H308.221C308.221 18.272 308.16 18.0072 308.038 17.7766C307.917 17.5434 307.746 17.3597 307.525 17.2253C307.307 17.091 307.051 17.0239 306.757 17.0239C306.438 17.0239 306.159 17.1024 305.921 17.2596C305.685 17.4141 305.503 17.6169 305.373 17.8678C305.247 18.1162 305.183 18.3861 305.183 18.6775V19.3428C305.183 19.7331 305.252 20.065 305.389 20.3388C305.528 20.6125 305.722 20.8215 305.97 20.966C306.219 21.1079 306.509 21.1789 306.841 21.1789C307.056 21.1789 307.253 21.1485 307.43 21.0876C307.608 21.0243 307.761 20.9305 307.89 20.8063C308.019 20.6822 308.118 20.5288 308.187 20.3464L309.262 20.5402C309.176 20.857 309.022 21.1345 308.799 21.3728C308.578 21.6084 308.301 21.7922 307.966 21.924C307.634 22.0532 307.255 22.1178 306.829 22.1178ZM312.295 22.1293C311.925 22.1293 311.59 22.0608 311.291 21.924C310.992 21.7846 310.755 21.5831 310.581 21.3195C310.408 21.056 310.322 20.7328 310.322 20.3502C310.322 20.0207 310.385 19.7495 310.512 19.5366C310.639 19.3238 310.81 19.1552 311.025 19.031C311.241 18.9069 311.482 18.8131 311.748 18.7497C312.014 18.6864 312.285 18.6382 312.561 18.6053C312.911 18.5647 313.195 18.5318 313.413 18.5064C313.631 18.4786 313.789 18.4342 313.888 18.3734C313.987 18.3126 314.036 18.2137 314.036 18.0769V18.0503C314.036 17.7183 313.942 17.461 313.755 17.2786C313.57 17.0961 313.294 17.0049 312.926 17.0049C312.543 17.0049 312.242 17.0898 312.021 17.2596C311.803 17.4268 311.653 17.6131 311.569 17.8184L310.501 17.5751C310.627 17.2203 310.812 16.9339 311.056 16.7159C311.302 16.4955 311.584 16.3358 311.903 16.237C312.223 16.1356 312.559 16.0849 312.911 16.0849C313.144 16.0849 313.391 16.1128 313.652 16.1685C313.916 16.2218 314.162 16.3206 314.39 16.465C314.62 16.6095 314.809 16.8161 314.956 17.0847C315.103 17.3508 315.177 17.6967 315.177 18.1225V22H314.067V21.2017H314.021C313.947 21.3487 313.837 21.4931 313.69 21.6351C313.543 21.777 313.354 21.8948 313.124 21.9886C312.893 22.0824 312.617 22.1293 312.295 22.1293ZM312.542 21.2169C312.856 21.2169 313.125 21.1548 313.348 21.0306C313.574 20.9064 313.745 20.7442 313.861 20.544C313.98 20.3413 314.04 20.1246 314.04 19.894V19.1413C313.999 19.1818 313.921 19.2199 313.804 19.2553C313.69 19.2883 313.56 19.3174 313.413 19.3428C313.266 19.3656 313.122 19.3871 312.983 19.4074C312.844 19.4251 312.727 19.4403 312.633 19.453C312.413 19.4809 312.211 19.5278 312.029 19.5937C311.849 19.6596 311.705 19.7546 311.596 19.8788C311.489 20.0004 311.436 20.1626 311.436 20.3654C311.436 20.6467 311.54 20.8596 311.748 21.004C311.955 21.1459 312.22 21.2169 312.542 21.2169ZM316.69 22V16.1609H317.789V17.0885H317.85C317.956 16.7742 318.144 16.5271 318.413 16.3472C318.684 16.1647 318.99 16.0735 319.333 16.0735C319.403 16.0735 319.487 16.076 319.583 16.0811C319.682 16.0862 319.76 16.0925 319.815 16.1001V17.1873C319.77 17.1747 319.689 17.1607 319.572 17.1455C319.455 17.1278 319.339 17.1189 319.222 17.1189C318.954 17.1189 318.714 17.1759 318.504 17.29C318.296 17.4015 318.131 17.5573 318.01 17.7576C317.888 17.9552 317.827 18.1808 317.827 18.4342V22H316.69ZM323.049 22.1178C322.484 22.1178 321.998 21.9899 321.59 21.7339C321.184 21.4754 320.872 21.1193 320.654 20.6657C320.437 20.212 320.328 19.6925 320.328 19.1071C320.328 18.514 320.439 17.9907 320.662 17.5371C320.885 17.0809 321.199 16.7248 321.605 16.4688C322.01 16.2129 322.488 16.0849 323.038 16.0849C323.482 16.0849 323.877 16.1673 324.224 16.332C324.571 16.4942 324.851 16.7223 325.064 17.0163C325.28 17.3102 325.408 17.6536 325.448 18.0465H324.342C324.281 17.7728 324.142 17.5371 323.924 17.3394C323.708 17.1417 323.419 17.0429 323.057 17.0429C322.74 17.0429 322.463 17.1265 322.225 17.2938C321.989 17.4585 321.805 17.6942 321.673 18.0008C321.542 18.305 321.476 18.6648 321.476 19.0805C321.476 19.5062 321.54 19.8737 321.669 20.1829C321.799 20.4921 321.981 20.7316 322.217 20.9014C322.455 21.0712 322.735 21.1561 323.057 21.1561C323.272 21.1561 323.468 21.1168 323.642 21.0382C323.82 20.9571 323.968 20.8418 324.087 20.6923C324.209 20.5428 324.294 20.3628 324.342 20.1525H325.448C325.408 20.5301 325.285 20.8672 325.079 21.1637C324.874 21.4602 324.599 21.6933 324.254 21.8631C323.912 22.0329 323.511 22.1178 323.049 22.1178ZM327.8 18.5331V22H326.664V14.2146H327.785V17.1113H327.857C327.994 16.797 328.203 16.5474 328.485 16.3624C328.766 16.1774 329.133 16.0849 329.587 16.0849C329.987 16.0849 330.337 16.1673 330.636 16.332C330.938 16.4967 331.171 16.7426 331.336 17.0695C331.503 17.3939 331.587 17.7994 331.587 18.286V22H330.45V18.4228C330.45 17.9945 330.34 17.6625 330.119 17.4268C329.899 17.1886 329.592 17.0695 329.199 17.0695C328.931 17.0695 328.69 17.1265 328.477 17.2405C328.267 17.3546 328.101 17.5219 327.979 17.7423C327.86 17.9603 327.8 18.2239 327.8 18.5331Z" fill="#0F141F"/>
<path d="M396.283 15.4803L391.736 20.0276L389.669 17.9606" stroke="#0F141F" stroke-width="0.8" stroke-linecap="round" stroke-linejoin="round"/>
<rect x="227.3" y="73.3" width="182.48" height="35.7779" rx="7.72872" fill="white" stroke="#0F141F" stroke-width="0.6"/>
<path d="M247.55 89.7464H246.364C246.318 89.493 246.234 89.2699 246.109 89.0773C245.985 88.8847 245.833 88.7213 245.653 88.5869C245.473 88.4526 245.272 88.3512 245.049 88.2828C244.828 88.2144 244.594 88.1802 244.346 88.1802C243.897 88.1802 243.495 88.293 243.14 88.5185C242.788 88.7441 242.509 89.0748 242.304 89.5107C242.101 89.9466 242 90.4788 242 91.1073C242 91.7409 242.101 92.2756 242.304 92.7115C242.509 93.1474 242.789 93.4769 243.144 93.6999C243.499 93.9229 243.898 94.0345 244.342 94.0345C244.588 94.0345 244.821 94.0015 245.041 93.9356C245.264 93.8672 245.466 93.7671 245.646 93.6353C245.826 93.5035 245.978 93.3426 246.102 93.1525C246.229 92.9599 246.316 92.7394 246.364 92.4911L247.55 92.4949C247.487 92.8775 247.364 93.2298 247.181 93.5517C247.001 93.871 246.77 94.1472 246.486 94.3804C246.204 94.611 245.883 94.7897 245.52 94.9164C245.158 95.0431 244.762 95.1065 244.334 95.1065C243.66 95.1065 243.059 94.9468 242.532 94.6275C242.005 94.3056 241.589 93.8456 241.285 93.2475C240.984 92.6494 240.833 91.936 240.833 91.1073C240.833 90.2761 240.985 89.5626 241.289 88.9671C241.593 88.369 242.009 87.9103 242.536 87.5909C243.063 87.2691 243.663 87.1082 244.334 87.1082C244.747 87.1082 245.132 87.1677 245.49 87.2868C245.85 87.4034 246.173 87.5757 246.459 87.8038C246.746 88.0294 246.982 88.3056 247.17 88.6326C247.358 88.9569 247.484 89.3282 247.55 89.7464ZM251.324 95.1179C250.777 95.1179 250.299 94.9924 249.891 94.7415C249.483 94.4906 249.166 94.1396 248.941 93.6885C248.715 93.2374 248.602 92.7103 248.602 92.1071C248.602 91.5014 248.715 90.9717 248.941 90.5181C249.166 90.0644 249.483 89.7122 249.891 89.4613C250.299 89.2104 250.777 89.0849 251.324 89.0849C251.871 89.0849 252.349 89.2104 252.757 89.4613C253.165 89.7122 253.482 90.0644 253.708 90.5181C253.933 90.9717 254.046 91.5014 254.046 92.1071C254.046 92.7103 253.933 93.2374 253.708 93.6885C253.482 94.1396 253.165 94.4906 252.757 94.7415C252.349 94.9924 251.871 95.1179 251.324 95.1179ZM251.328 94.1637C251.683 94.1637 251.977 94.0699 252.21 93.8824C252.443 93.6949 252.615 93.4452 252.727 93.1335C252.841 92.8218 252.898 92.4784 252.898 92.1033C252.898 91.7308 252.841 91.3886 252.727 91.0769C252.615 90.7626 252.443 90.5105 252.21 90.3204C251.977 90.1303 251.683 90.0353 251.328 90.0353C250.971 90.0353 250.674 90.1303 250.438 90.3204C250.205 90.5105 250.032 90.7626 249.918 91.0769C249.806 91.3886 249.75 91.7308 249.75 92.1033C249.75 92.4784 249.806 92.8218 249.918 93.1335C250.032 93.4452 250.205 93.6949 250.438 93.8824C250.674 94.0699 250.971 94.1637 251.328 94.1637ZM255.315 95V89.161H256.406V90.1113H256.478C256.6 89.7895 256.799 89.5386 257.075 89.3586C257.351 89.1762 257.682 89.0849 258.067 89.0849C258.457 89.0849 258.784 89.1762 259.048 89.3586C259.314 89.5411 259.51 89.792 259.637 90.1113H259.698C259.837 89.7996 260.059 89.5512 260.363 89.3662C260.667 89.1787 261.03 89.0849 261.45 89.0849C261.98 89.0849 262.412 89.2509 262.747 89.5829C263.084 89.9149 263.252 90.4154 263.252 91.0845V95H262.116V91.1909C262.116 90.7956 262.008 90.5092 261.792 90.3318C261.577 90.1544 261.32 90.0657 261.021 90.0657C260.651 90.0657 260.363 90.1798 260.158 90.4078C259.952 90.6334 259.85 90.9236 259.85 91.2784V95H258.717V91.1187C258.717 90.8019 258.618 90.5472 258.42 90.3546C258.223 90.162 257.966 90.0657 257.649 90.0657C257.433 90.0657 257.234 90.1227 257.052 90.2368C256.872 90.3483 256.726 90.5041 256.615 90.7044C256.506 90.9046 256.451 91.1365 256.451 91.4V95H255.315ZM264.776 97.1897V89.161H265.886V90.1075H265.981C266.047 89.9859 266.142 89.8452 266.266 89.6856C266.39 89.5259 266.562 89.3865 266.783 89.2674C267.003 89.1458 267.295 89.0849 267.657 89.0849C268.129 89.0849 268.549 89.204 268.919 89.4423C269.289 89.6805 269.579 90.0239 269.79 90.4725C270.003 90.921 270.109 91.4609 270.109 92.0919C270.109 92.7229 270.004 93.264 269.794 93.7151C269.583 94.1637 269.294 94.5096 268.927 94.7529C268.559 94.9937 268.14 95.1141 267.669 95.1141C267.314 95.1141 267.024 95.0545 266.798 94.9354C266.575 94.8163 266.4 94.6769 266.273 94.5172C266.147 94.3576 266.049 94.2157 265.981 94.0915H265.912V97.1897H264.776ZM265.889 92.0805C265.889 92.4911 265.949 92.8509 266.068 93.1601C266.187 93.4693 266.36 93.7113 266.585 93.8862C266.811 94.0585 267.087 94.1447 267.414 94.1447C267.753 94.1447 268.037 94.0547 268.265 93.8748C268.493 93.6923 268.666 93.4452 268.782 93.1335C268.901 92.8218 268.961 92.4708 268.961 92.0805C268.961 91.6953 268.903 91.3493 268.786 91.0427C268.672 90.736 268.5 90.494 268.269 90.3166C268.041 90.1392 267.756 90.0505 267.414 90.0505C267.084 90.0505 266.806 90.1354 266.578 90.3052C266.352 90.475 266.181 90.712 266.064 91.0161C265.948 91.3202 265.889 91.675 265.889 92.0805ZM273.899 95.1179C273.324 95.1179 272.828 94.995 272.413 94.7491C272 94.5008 271.68 94.1523 271.455 93.7037C271.232 93.2526 271.12 92.7242 271.12 92.1185C271.12 91.5204 271.232 90.9933 271.455 90.5371C271.68 90.0809 271.995 89.7248 272.398 89.4689C272.803 89.2129 273.277 89.0849 273.819 89.0849C274.149 89.0849 274.468 89.1394 274.777 89.2484C275.086 89.3574 275.364 89.5284 275.61 89.7616C275.856 89.9948 276.05 90.2976 276.191 90.6701C276.333 91.0402 276.404 91.49 276.404 92.0197V92.4226H271.763V91.5711H275.29C275.29 91.272 275.23 91.0072 275.108 90.7766C274.986 90.5434 274.815 90.3597 274.595 90.2254C274.377 90.0911 274.121 90.0239 273.827 90.0239C273.508 90.0239 273.229 90.1025 272.991 90.2596C272.755 90.4142 272.572 90.6169 272.443 90.8678C272.316 91.1162 272.253 91.3861 272.253 91.6775V92.3428C272.253 92.7331 272.322 93.0651 272.458 93.3388C272.598 93.6125 272.792 93.8216 273.04 93.966C273.288 94.108 273.579 94.1789 273.911 94.1789C274.126 94.1789 274.322 94.1485 274.5 94.0877C274.677 94.0243 274.831 93.9305 274.96 93.8064C275.089 93.6822 275.188 93.5289 275.256 93.3464L276.332 93.5403C276.246 93.8571 276.091 94.1346 275.868 94.3728C275.648 94.6085 275.37 94.7922 275.036 94.924C274.704 95.0533 274.325 95.1179 273.899 95.1179ZM280.391 89.161V90.0733H277.202V89.161H280.391ZM278.057 87.762H279.194V93.2856C279.194 93.506 279.227 93.672 279.293 93.7836C279.358 93.8925 279.443 93.9673 279.547 94.0078C279.654 94.0459 279.769 94.0649 279.893 94.0649C279.984 94.0649 280.064 94.0585 280.133 94.0459C280.201 94.0332 280.254 94.0231 280.292 94.0154L280.498 94.9544C280.432 94.9798 280.338 95.0051 280.216 95.0304C280.095 95.0583 279.943 95.0735 279.76 95.0761C279.461 95.0811 279.182 95.0279 278.924 94.9164C278.665 94.8049 278.456 94.6326 278.297 94.3994C278.137 94.1662 278.057 93.8735 278.057 93.5213V87.762ZM281.648 95V89.161H282.785V95H281.648ZM282.222 88.26C282.025 88.26 281.855 88.1941 281.713 88.0623C281.574 87.928 281.504 87.7684 281.504 87.5833C281.504 87.3958 281.574 87.2361 281.713 87.1044C281.855 86.97 282.025 86.9029 282.222 86.9029C282.42 86.9029 282.589 86.97 282.728 87.1044C282.87 87.2361 282.941 87.3958 282.941 87.5833C282.941 87.7684 282.87 87.928 282.728 88.0623C282.589 88.1941 282.42 88.26 282.222 88.26ZM287.04 89.161V90.0733H283.85V89.161H287.04ZM284.706 87.762H285.842V93.2856C285.842 93.506 285.875 93.672 285.941 93.7836C286.007 93.8925 286.092 93.9673 286.196 94.0078C286.302 94.0459 286.418 94.0649 286.542 94.0649C286.633 94.0649 286.713 94.0585 286.781 94.0459C286.85 94.0332 286.903 94.0231 286.941 94.0154L287.146 94.9544C287.08 94.9798 286.987 95.0051 286.865 95.0304C286.743 95.0583 286.591 95.0735 286.409 95.0761C286.11 95.0811 285.831 95.0279 285.573 94.9164C285.314 94.8049 285.105 94.6326 284.945 94.3994C284.786 94.1662 284.706 93.8735 284.706 93.5213V87.762ZM288.297 95V89.161H289.434V95H288.297ZM288.871 88.26C288.674 88.26 288.504 88.1941 288.362 88.0623C288.222 87.928 288.153 87.7684 288.153 87.5833C288.153 87.3958 288.222 87.2361 288.362 87.1044C288.504 86.97 288.674 86.9029 288.871 86.9029C289.069 86.9029 289.237 86.97 289.377 87.1044C289.519 87.2361 289.59 87.3958 289.59 87.5833C289.59 87.7684 289.519 87.928 289.377 88.0623C289.237 88.1941 289.069 88.26 288.871 88.26ZM293.423 95.1179C292.875 95.1179 292.397 94.9924 291.989 94.7415C291.581 94.4906 291.265 94.1396 291.039 93.6885C290.814 93.2374 290.701 92.7103 290.701 92.1071C290.701 91.5014 290.814 90.9717 291.039 90.5181C291.265 90.0644 291.581 89.7122 291.989 89.4613C292.397 89.2104 292.875 89.0849 293.423 89.0849C293.97 89.0849 294.448 89.2104 294.856 89.4613C295.264 89.7122 295.581 90.0644 295.806 90.5181C296.032 90.9717 296.144 91.5014 296.144 92.1071C296.144 92.7103 296.032 93.2374 295.806 93.6885C295.581 94.1396 295.264 94.4906 294.856 94.7415C294.448 94.9924 293.97 95.1179 293.423 95.1179ZM293.426 94.1637C293.781 94.1637 294.075 94.0699 294.308 93.8824C294.542 93.6949 294.714 93.4452 294.825 93.1335C294.939 92.8218 294.996 92.4784 294.996 92.1033C294.996 91.7308 294.939 91.3886 294.825 91.0769C294.714 90.7626 294.542 90.5105 294.308 90.3204C294.075 90.1303 293.781 90.0353 293.426 90.0353C293.069 90.0353 292.773 90.1303 292.537 90.3204C292.304 90.5105 292.13 90.7626 292.016 91.0769C291.905 91.3886 291.849 91.7308 291.849 92.1033C291.849 92.4784 291.905 92.8218 292.016 93.1335C292.13 93.4452 292.304 93.6949 292.537 93.8824C292.773 94.0699 293.069 94.1637 293.426 94.1637ZM298.55 91.5331V95H297.413V89.161H298.504V90.1113H298.576C298.711 89.8021 298.921 89.5538 299.208 89.3662C299.496 89.1787 299.86 89.0849 300.299 89.0849C300.696 89.0849 301.045 89.1686 301.344 89.3358C301.643 89.5006 301.875 89.7464 302.04 90.0733C302.204 90.4002 302.287 90.8045 302.287 91.286V95H301.15V91.4228C301.15 90.9996 301.04 90.6689 300.819 90.4307C300.599 90.1899 300.296 90.0695 299.911 90.0695C299.647 90.0695 299.413 90.1265 299.208 90.2406C299.005 90.3546 298.844 90.5219 298.725 90.7424C298.608 90.9603 298.55 91.2239 298.55 91.5331ZM308.343 95.1293C307.973 95.1293 307.639 95.0609 307.34 94.924C307.041 94.7846 306.804 94.5831 306.629 94.3196C306.457 94.056 306.37 93.7329 306.37 93.3502C306.37 93.0207 306.434 92.7496 306.561 92.5367C306.687 92.3238 306.858 92.1553 307.074 92.0311C307.289 91.9069 307.53 91.8131 307.796 91.7498C308.062 91.6864 308.333 91.6383 308.61 91.6053C308.959 91.5648 309.243 91.5318 309.461 91.5065C309.679 91.4786 309.837 91.4342 309.936 91.3734C310.035 91.3126 310.084 91.2138 310.084 91.0769V91.0503C310.084 90.7183 309.991 90.4611 309.803 90.2786C309.618 90.0961 309.342 90.0049 308.974 90.0049C308.592 90.0049 308.29 90.0898 308.07 90.2596C307.852 90.4269 307.701 90.6131 307.617 90.8184L306.549 90.5751C306.676 90.2203 306.861 89.9339 307.104 89.716C307.35 89.4955 307.633 89.3358 307.952 89.237C308.271 89.1356 308.607 89.0849 308.959 89.0849C309.192 89.0849 309.439 89.1128 309.701 89.1686C309.964 89.2218 310.21 89.3206 310.438 89.4651C310.669 89.6095 310.857 89.8161 311.004 90.0847C311.151 90.3508 311.225 90.6968 311.225 91.1225V95H310.115V94.2017H310.069C309.996 94.3487 309.886 94.4932 309.739 94.6351C309.592 94.777 309.403 94.8949 309.172 94.9886C308.942 95.0824 308.665 95.1293 308.343 95.1293ZM308.59 94.2169C308.905 94.2169 309.173 94.1548 309.396 94.0307C309.622 93.9065 309.793 93.7443 309.91 93.5441C310.029 93.3413 310.088 93.1246 310.088 92.894V92.1413C310.048 92.1819 309.969 92.2199 309.853 92.2554C309.739 92.2883 309.608 92.3175 309.461 92.3428C309.314 92.3656 309.171 92.3871 309.031 92.4074C308.892 92.4252 308.776 92.4404 308.682 92.453C308.461 92.4809 308.26 92.5278 308.077 92.5937C307.897 92.6596 307.753 92.7546 307.644 92.8788C307.537 93.0005 307.484 93.1626 307.484 93.3654C307.484 93.6467 307.588 93.8596 307.796 94.004C308.004 94.146 308.269 94.2169 308.59 94.2169ZM313.876 91.5331V95H312.739V89.161H313.83V90.1113H313.902C314.036 89.8021 314.247 89.5538 314.533 89.3662C314.822 89.1787 315.186 89.0849 315.624 89.0849C316.022 89.0849 316.371 89.1686 316.67 89.3358C316.969 89.5006 317.201 89.7464 317.365 90.0733C317.53 90.4002 317.612 90.8045 317.612 91.286V95H316.476V91.4228C316.476 90.9996 316.365 90.6689 316.145 90.4307C315.924 90.1899 315.622 90.0695 315.236 90.0695C314.973 90.0695 314.738 90.1265 314.533 90.2406C314.33 90.3546 314.169 90.5219 314.05 90.7424C313.934 90.9603 313.876 91.2239 313.876 91.5331ZM320.836 95.1293C320.466 95.1293 320.131 95.0609 319.832 94.924C319.533 94.7846 319.296 94.5831 319.122 94.3196C318.949 94.056 318.863 93.7329 318.863 93.3502C318.863 93.0207 318.926 92.7496 319.053 92.5367C319.18 92.3238 319.351 92.1553 319.566 92.0311C319.782 91.9069 320.022 91.8131 320.289 91.7498C320.555 91.6864 320.826 91.6383 321.102 91.6053C321.452 91.5648 321.736 91.5318 321.954 91.5065C322.172 91.4786 322.33 91.4342 322.429 91.3734C322.528 91.3126 322.577 91.2138 322.577 91.0769V91.0503C322.577 90.7183 322.483 90.4611 322.296 90.2786C322.111 90.0961 321.835 90.0049 321.467 90.0049C321.084 90.0049 320.783 90.0898 320.562 90.2596C320.344 90.4269 320.194 90.6131 320.11 90.8184L319.042 90.5751C319.168 90.2203 319.353 89.9339 319.597 89.716C319.843 89.4955 320.125 89.3358 320.444 89.237C320.764 89.1356 321.1 89.0849 321.452 89.0849C321.685 89.0849 321.932 89.1128 322.193 89.1686C322.457 89.2218 322.703 89.3206 322.931 89.4651C323.161 89.6095 323.35 89.8161 323.497 90.0847C323.644 90.3508 323.718 90.6968 323.718 91.1225V95H322.607V94.2017H322.562C322.488 94.3487 322.378 94.4932 322.231 94.6351C322.084 94.777 321.895 94.8949 321.665 94.9886C321.434 95.0824 321.158 95.1293 320.836 95.1293ZM321.083 94.2169C321.397 94.2169 321.666 94.1548 321.889 94.0307C322.115 93.9065 322.286 93.7443 322.402 93.5441C322.521 93.3413 322.581 93.1246 322.581 92.894V92.1413C322.54 92.1819 322.462 92.2199 322.345 92.2554C322.231 92.2883 322.101 92.3175 321.954 92.3428C321.807 92.3656 321.663 92.3871 321.524 92.4074C321.385 92.4252 321.268 92.4404 321.174 92.453C320.954 92.4809 320.752 92.5278 320.57 92.5937C320.39 92.6596 320.246 92.7546 320.137 92.8788C320.03 93.0005 319.977 93.1626 319.977 93.3654C319.977 93.6467 320.081 93.8596 320.289 94.004C320.496 94.146 320.761 94.2169 321.083 94.2169ZM326.368 87.2146V95H325.231V87.2146H326.368ZM328.616 97.1897C328.446 97.1897 328.291 97.1757 328.152 97.1479C328.013 97.1225 327.909 97.0946 327.84 97.0642L328.114 96.1329C328.322 96.1886 328.507 96.2127 328.669 96.2051C328.831 96.1975 328.974 96.1367 329.099 96.0226C329.225 95.9086 329.337 95.7223 329.433 95.4638L329.574 95.0761L327.437 89.161H328.654L330.133 93.6923H330.193L331.672 89.161H332.892L330.486 95.7793C330.375 96.0835 330.233 96.3407 330.06 96.551C329.888 96.7639 329.683 96.9236 329.444 97.03C329.206 97.1365 328.93 97.1897 328.616 97.1897ZM338.336 90.5865L337.306 90.769C337.263 90.6372 337.194 90.5118 337.101 90.3926C337.009 90.2735 336.885 90.176 336.728 90.0999C336.571 90.0239 336.375 89.9859 336.139 89.9859C335.817 89.9859 335.548 90.0581 335.333 90.2026C335.118 90.3445 335.01 90.5282 335.01 90.7538C335.01 90.9489 335.082 91.106 335.227 91.2252C335.371 91.3443 335.604 91.4418 335.926 91.5179L336.854 91.7308C337.391 91.8549 337.791 92.0463 338.055 92.3048C338.318 92.5633 338.45 92.8991 338.45 93.3122C338.45 93.6619 338.349 93.9736 338.146 94.2473C337.946 94.5185 337.666 94.7314 337.306 94.886C336.949 95.0406 336.534 95.1179 336.063 95.1179C335.409 95.1179 334.876 94.9785 334.462 94.6997C334.049 94.4184 333.796 94.0192 333.702 93.5022L334.801 93.335C334.869 93.6214 335.01 93.838 335.223 93.985C335.436 94.1295 335.713 94.2017 336.055 94.2017C336.428 94.2017 336.726 94.1244 336.949 93.9698C337.172 93.8127 337.283 93.6214 337.283 93.3958C337.283 93.2133 337.215 93.06 337.078 92.9358C336.944 92.8116 336.737 92.7179 336.458 92.6545L335.47 92.4378C334.925 92.3137 334.522 92.116 334.261 91.8448C334.002 91.5736 333.873 91.2302 333.873 90.8146C333.873 90.4699 333.969 90.1684 334.162 89.9099C334.355 89.6514 334.621 89.4499 334.96 89.3054C335.3 89.1584 335.689 89.0849 336.127 89.0849C336.759 89.0849 337.255 89.2218 337.618 89.4955C337.98 89.7667 338.22 90.1303 338.336 90.5865ZM339.7 95V89.161H340.837V95H339.7ZM340.274 88.26C340.076 88.26 339.906 88.1941 339.765 88.0623C339.625 87.928 339.555 87.7684 339.555 87.5833C339.555 87.3958 339.625 87.2361 339.765 87.1044C339.906 86.97 340.076 86.9029 340.274 86.9029C340.472 86.9029 340.64 86.97 340.78 87.1044C340.921 87.2361 340.992 87.3958 340.992 87.5833C340.992 87.7684 340.921 87.928 340.78 88.0623C340.64 88.1941 340.472 88.26 340.274 88.26ZM346.741 90.5865L345.711 90.769C345.668 90.6372 345.599 90.5118 345.506 90.3926C345.414 90.2735 345.29 90.176 345.133 90.0999C344.976 90.0239 344.78 89.9859 344.544 89.9859C344.222 89.9859 343.953 90.0581 343.738 90.2026C343.523 90.3445 343.415 90.5282 343.415 90.7538C343.415 90.9489 343.487 91.106 343.632 91.2252C343.776 91.3443 344.009 91.4418 344.331 91.5179L345.259 91.7308C345.796 91.8549 346.196 92.0463 346.46 92.3048C346.723 92.5633 346.855 92.8991 346.855 93.3122C346.855 93.6619 346.754 93.9736 346.551 94.2473C346.351 94.5185 346.071 94.7314 345.711 94.886C345.354 95.0406 344.939 95.1179 344.468 95.1179C343.814 95.1179 343.281 94.9785 342.867 94.6997C342.454 94.4184 342.201 94.0192 342.107 93.5022L343.206 93.335C343.274 93.6214 343.415 93.838 343.628 93.985C343.841 94.1295 344.118 94.2017 344.46 94.2017C344.833 94.2017 345.131 94.1244 345.354 93.9698C345.577 93.8127 345.688 93.6214 345.688 93.3958C345.688 93.2133 345.62 93.06 345.483 92.9358C345.349 92.8116 345.142 92.7179 344.863 92.6545L343.875 92.4378C343.33 92.3137 342.927 92.116 342.666 91.8448C342.407 91.5736 342.278 91.2302 342.278 90.8146C342.278 90.4699 342.375 90.1684 342.567 89.9099C342.76 89.6514 343.026 89.4499 343.365 89.3054C343.705 89.1584 344.094 89.0849 344.533 89.0849C345.164 89.0849 345.66 89.2218 346.023 89.4955C346.385 89.7667 346.625 90.1303 346.741 90.5865Z" fill="#0F141F"/>
<path d="M396.283 88.4803L391.736 93.0276L389.669 90.9607" stroke="#0F141F" stroke-width="0.8" stroke-linecap="round" stroke-linejoin="round"/>
<path d="M189 18.7402L220.968 18.7402" stroke="#0F141F" stroke-width="0.6" stroke-linecap="round" stroke-dasharray="5.76 5.76"/>
<path d="M205.678 14.7298C203.511 14.7298 201.755 16.486 201.755 18.6522C201.755 20.8185 203.511 22.5746 205.678 22.5746C207.844 22.5746 209.6 20.8185 209.6 18.6522C209.6 16.486 207.844 14.7298 205.678 14.7298Z" fill="white" stroke="#0F141F" stroke-width="0.8"/>
<path d="M91.6776 51.2826C89.5113 51.2826 87.7552 53.0387 87.7552 55.205C87.7552 57.3712 89.5113 59.1273 91.6776 59.1273C93.8439 59.1273 95.6 57.3712 95.6 55.205C95.6 53.0387 93.8439 51.2826 91.6776 51.2826Z" fill="white" stroke="#0F141F" stroke-width="0.8"/>
<path d="M319.322 51.3998C317.156 51.3998 315.4 53.1559 315.4 55.3221C315.4 57.4884 317.156 59.2445 319.322 59.2445C321.488 59.2445 323.245 57.4884 323.245 55.3221C323.245 53.1559 321.488 51.3998 319.322 51.3998Z" fill="white" stroke="#0F141F" stroke-width="0.8"/>
<rect x="210.578" y="151.838" width="3.13422" height="14.4656" transform="rotate(-45 210.578 151.838)" fill="white" stroke="#0F141F" stroke-width="0.6"/>
<rect x="214.16" y="156.439" width="4.58078" height="14.4656" transform="rotate(-45 214.16 156.439)" fill="white" stroke="#0F141F" stroke-width="0.6"/>
<circle cx="204.783" cy="143.824" r="13.0807" transform="rotate(-45 204.783 143.824)" fill="white" stroke="#0F141F" stroke-width="0.6"/>
<ellipse cx="205.075" cy="143.748" rx="9.87774" ry="9.77038" transform="rotate(-45 205.075 143.748)" fill="white"/>
</svg>
