<svg width="410" height="282" viewBox="0 0 410 282" fill="none" xmlns="http://www.w3.org/2000/svg">
<path d="M267 141L338 141" stroke="#0F141F" stroke-width="0.6" stroke-linecap="round" stroke-dasharray="5.76 5.76"/>
<path d="M182 67H268" stroke="#0F141F" stroke-width="0.6" stroke-linecap="round" stroke-dasharray="5.76 5.76"/>
<path d="M182 116H268" stroke="#0F141F" stroke-width="0.6" stroke-linecap="round" stroke-dasharray="5.76 5.76"/>
<path d="M182 165H268" stroke="#0F141F" stroke-width="0.6" stroke-linecap="round" stroke-dasharray="5.76 5.76"/>
<path d="M182 214H268" stroke="#0F141F" stroke-width="0.6" stroke-linecap="round" stroke-dasharray="5.76 5.76"/>
<rect x="0.3" y="0.3" width="182.48" height="35.7779" rx="7.72872" fill="white" stroke="#0F141F" stroke-width="0.6"/>
<path d="M19.3301 16.2598C19.2896 15.8999 19.1223 15.6211 18.8283 15.4234C18.5343 15.2232 18.1643 15.1231 17.7183 15.1231C17.3989 15.1231 17.1227 15.1738 16.8896 15.2752C16.6564 15.374 16.4752 15.5109 16.3459 15.6857C16.2192 15.8581 16.1559 16.0545 16.1559 16.275C16.1559 16.46 16.1989 16.6196 16.2851 16.754C16.3738 16.8883 16.4891 17.0011 16.631 17.0923C16.7755 17.181 16.9301 17.2558 17.0948 17.3166C17.2596 17.3749 17.418 17.423 17.57 17.461L18.3303 17.6587C18.5787 17.7195 18.8334 17.8019 19.0944 17.9058C19.3554 18.0097 19.5975 18.1466 19.8205 18.3164C20.0435 18.4862 20.2234 18.6965 20.3603 18.9474C20.4997 19.1983 20.5694 19.4986 20.5694 19.8484C20.5694 20.2893 20.4553 20.6809 20.2272 21.023C20.0017 21.3652 19.6735 21.6351 19.2427 21.8327C18.8144 22.0304 18.2961 22.1293 17.6879 22.1293C17.105 22.1293 16.6006 22.0367 16.1749 21.8517C15.7491 21.6667 15.4158 21.4044 15.1751 21.0648C14.9343 20.7227 14.8013 20.3172 14.7759 19.8484H15.9544C15.9772 20.1297 16.0684 20.3641 16.2281 20.5516C16.3903 20.7366 16.5968 20.8748 16.8477 20.966C17.1012 21.0547 17.3787 21.099 17.6803 21.099C18.0123 21.099 18.3075 21.0471 18.566 20.9432C18.827 20.8367 19.0323 20.6898 19.1818 20.5022C19.3314 20.3121 19.4061 20.0904 19.4061 19.837C19.4061 19.6063 19.3402 19.4175 19.2085 19.2705C19.0792 19.1235 18.9031 19.0019 18.68 18.9056C18.4596 18.8093 18.2099 18.7244 17.9312 18.6509L17.0112 18.4C16.3878 18.2302 15.8936 17.9806 15.5286 17.6511C15.1662 17.3216 14.985 16.8857 14.985 16.3434C14.985 15.8948 15.1067 15.5033 15.35 15.1687C15.5932 14.8342 15.9227 14.5744 16.3383 14.3894C16.754 14.2019 17.2228 14.1081 17.7449 14.1081C18.272 14.1081 18.7371 14.2006 19.14 14.3856C19.5455 14.5706 19.8648 14.8253 20.098 15.1497C20.3312 15.4716 20.4528 15.8416 20.4629 16.2598H19.3301ZM21.9731 22V14.2146H26.8542V15.2258H23.1477V17.5979H26.5995V18.6053H23.1477V20.9888H26.8998V22H21.9731ZM35.1861 18.1073C35.1861 18.9385 35.034 19.6532 34.7299 20.2513C34.4258 20.8469 34.0089 21.3056 33.4792 21.6275C32.9521 21.9468 32.3527 22.1064 31.6811 22.1064C31.007 22.1064 30.4051 21.9468 29.8754 21.6275C29.3483 21.3056 28.9326 20.8456 28.6285 20.2475C28.3244 19.6494 28.1723 18.936 28.1723 18.1073C28.1723 17.276 28.3244 16.5626 28.6285 15.9671C28.9326 15.369 29.3483 14.9102 29.8754 14.5909C30.4051 14.2691 31.007 14.1081 31.6811 14.1081C32.3527 14.1081 32.9521 14.2691 33.4792 14.5909C34.0089 14.9102 34.4258 15.369 34.7299 15.9671C35.034 16.5626 35.1861 17.276 35.1861 18.1073ZM34.0228 18.1073C34.0228 17.4737 33.9202 16.9402 33.7149 16.5069C33.5121 16.071 33.2334 15.7415 32.8786 15.5185C32.5263 15.2929 32.1271 15.1801 31.6811 15.1801C31.2325 15.1801 30.8321 15.2929 30.4798 15.5185C30.1276 15.7415 29.8488 16.071 29.6435 16.5069C29.4408 16.9402 29.3394 17.4737 29.3394 18.1073C29.3394 18.7409 29.4408 19.2756 29.6435 19.7115C29.8488 20.1449 30.1276 20.4743 30.4798 20.6999C30.8321 20.9229 31.2325 21.0344 31.6811 21.0344C32.1271 21.0344 32.5263 20.9229 32.8786 20.6999C33.2334 20.4743 33.5121 20.1449 33.7149 19.7115C33.9202 19.2756 34.0228 18.7409 34.0228 18.1073ZM43.7679 17.5865L42.7377 17.769C42.6946 17.6372 42.6262 17.5117 42.5324 17.3926C42.4412 17.2735 42.317 17.1759 42.1599 17.0999C42.0027 17.0239 41.8063 16.9858 41.5706 16.9858C41.2488 16.9858 40.9802 17.0581 40.7647 17.2025C40.5493 17.3445 40.4416 17.5282 40.4416 17.7537C40.4416 17.9489 40.5138 18.106 40.6583 18.2251C40.8027 18.3442 41.0359 18.4418 41.3578 18.5178L42.2853 18.7307C42.8226 18.8549 43.223 19.0463 43.4866 19.3048C43.7502 19.5633 43.8819 19.899 43.8819 20.3121C43.8819 20.6619 43.7806 20.9736 43.5778 21.2473C43.3776 21.5185 43.0976 21.7314 42.7377 21.886C42.3804 22.0405 41.966 22.1178 41.4946 22.1178C40.8408 22.1178 40.3073 21.9785 39.8942 21.6997C39.4811 21.4184 39.2277 21.0192 39.1339 20.5022L40.2325 20.335C40.301 20.6213 40.4416 20.838 40.6545 20.985C40.8674 21.1295 41.1449 21.2017 41.487 21.2017C41.8596 21.2017 42.1573 21.1244 42.3804 20.9698C42.6034 20.8127 42.7149 20.6213 42.7149 20.3958C42.7149 20.2133 42.6465 20.06 42.5096 19.9358C42.3753 19.8116 42.1687 19.7178 41.89 19.6545L40.9016 19.4378C40.3567 19.3136 39.9538 19.1159 39.6927 18.8448C39.4342 18.5736 39.305 18.2302 39.305 17.8146C39.305 17.4699 39.4013 17.1683 39.5939 16.9098C39.7865 16.6513 40.0526 16.4498 40.3922 16.3054C40.7318 16.1584 41.1208 16.0849 41.5592 16.0849C42.1903 16.0849 42.687 16.2218 43.0494 16.4955C43.4118 16.7666 43.6513 17.1303 43.7679 17.5865ZM47.8573 16.1609V17.0733H44.6679V16.1609H47.8573ZM45.5232 14.762H46.6599V20.2855C46.6599 20.506 46.6928 20.672 46.7587 20.7835C46.8246 20.8925 46.9095 20.9673 47.0134 21.0078C47.1199 21.0458 47.2352 21.0648 47.3593 21.0648C47.4506 21.0648 47.5304 21.0585 47.5988 21.0458C47.6673 21.0332 47.7205 21.023 47.7585 21.0154L47.9638 21.9544C47.8979 21.9797 47.8041 22.0051 47.6825 22.0304C47.5608 22.0583 47.4088 22.0735 47.2263 22.076C46.9272 22.0811 46.6485 22.0279 46.39 21.9164C46.1315 21.8049 45.9224 21.6325 45.7627 21.3994C45.6031 21.1662 45.5232 20.8735 45.5232 20.5212V14.762ZM49.1147 22V16.1609H50.2133V17.0885H50.2741C50.3806 16.7742 50.5681 16.5271 50.8368 16.3472C51.1079 16.1647 51.4146 16.0735 51.7567 16.0735C51.8277 16.0735 51.9113 16.076 52.0076 16.0811C52.1064 16.0862 52.1837 16.0925 52.2395 16.1001V17.1873C52.1939 17.1747 52.1128 17.1607 51.9962 17.1455C51.8796 17.1278 51.763 17.1189 51.6465 17.1189C51.3778 17.1189 51.1383 17.1759 50.928 17.29C50.7202 17.4015 50.5554 17.5573 50.4338 17.7576C50.3121 17.9552 50.2513 18.1808 50.2513 18.4342V22H49.1147ZM54.8701 22.1293C54.5001 22.1293 54.1656 22.0608 53.8665 21.924C53.5675 21.7846 53.3305 21.5831 53.1557 21.3195C52.9833 21.056 52.8972 20.7328 52.8972 20.3502C52.8972 20.0207 52.9605 19.7495 53.0872 19.5366C53.2139 19.3238 53.385 19.1552 53.6004 19.031C53.8158 18.9069 54.0566 18.8131 54.3227 18.7497C54.5888 18.6864 54.86 18.6382 55.1362 18.6053C55.486 18.5647 55.7698 18.5318 55.9878 18.5064C56.2057 18.4786 56.3641 18.4342 56.4629 18.3734C56.5618 18.3126 56.6112 18.2137 56.6112 18.0769V18.0503C56.6112 17.7183 56.5174 17.461 56.3299 17.2786C56.1449 17.0961 55.8686 17.0049 55.5012 17.0049C55.1185 17.0049 54.8169 17.0898 54.5964 17.2596C54.3785 17.4268 54.2277 17.6131 54.144 17.8184L53.0758 17.5751C53.2025 17.2203 53.3875 16.9339 53.6308 16.7159C53.8767 16.4955 54.1592 16.3358 54.4786 16.237C54.7979 16.1356 55.1337 16.0849 55.486 16.0849C55.7191 16.0849 55.9662 16.1128 56.2272 16.1685C56.4908 16.2218 56.7366 16.3206 56.9647 16.465C57.1954 16.6095 57.3842 16.8161 57.5312 17.0847C57.6781 17.3508 57.7516 17.6967 57.7516 18.1225V22H56.6416V21.2017H56.596C56.5225 21.3487 56.4123 21.4931 56.2653 21.6351C56.1183 21.777 55.9295 21.8948 55.6988 21.9886C55.4682 22.0824 55.192 22.1293 54.8701 22.1293ZM55.1172 21.2169C55.4315 21.2169 55.7001 21.1548 55.9231 21.0306C56.1487 20.9064 56.3197 20.7442 56.4363 20.544C56.5554 20.3413 56.615 20.1246 56.615 19.894V19.1413C56.5744 19.1818 56.4959 19.2199 56.3793 19.2553C56.2653 19.2883 56.1347 19.3174 55.9878 19.3428C55.8408 19.3656 55.6976 19.3871 55.5582 19.4074C55.4188 19.4251 55.3022 19.4403 55.2085 19.453C54.988 19.4809 54.7865 19.5278 54.604 19.5937C54.4241 19.6596 54.2796 19.7546 54.1706 19.8788C54.0642 20.0004 54.011 20.1626 54.011 20.3654C54.011 20.6467 54.1149 20.8596 54.3227 21.004C54.5305 21.1459 54.7954 21.2169 55.1172 21.2169ZM61.9912 16.1609V17.0733H58.8018V16.1609H61.9912ZM59.6571 14.762H60.7938V20.2855C60.7938 20.506 60.8267 20.672 60.8926 20.7835C60.9585 20.8925 61.0434 20.9673 61.1473 21.0078C61.2538 21.0458 61.3691 21.0648 61.4932 21.0648C61.5845 21.0648 61.6643 21.0585 61.7327 21.0458C61.8012 21.0332 61.8544 21.023 61.8924 21.0154L62.0977 21.9544C62.0318 21.9797 61.938 22.0051 61.8164 22.0304C61.6947 22.0583 61.5427 22.0735 61.3602 22.076C61.0611 22.0811 60.7824 22.0279 60.5239 21.9164C60.2654 21.8049 60.0563 21.6325 59.8966 21.3994C59.737 21.1662 59.6571 20.8735 59.6571 20.5212V14.762ZM65.7024 22.1178C65.1271 22.1178 64.6317 21.9949 64.2161 21.7491C63.803 21.5007 63.4836 21.1523 63.2581 20.7037C63.0351 20.2526 62.9236 19.7242 62.9236 19.1185C62.9236 18.5204 63.0351 17.9932 63.2581 17.5371C63.4836 17.0809 63.7979 16.7248 64.2008 16.4688C64.6063 16.2129 65.0803 16.0849 65.6226 16.0849C65.9521 16.0849 66.2714 16.1394 66.5806 16.2484C66.8898 16.3573 67.1673 16.5284 67.4131 16.7616C67.6589 16.9947 67.8528 17.2976 67.9947 17.6701C68.1366 18.0401 68.2076 18.49 68.2076 19.0196V19.4226H63.566V18.5711H67.0938C67.0938 18.272 67.033 18.0072 66.9113 17.7766C66.7897 17.5434 66.6186 17.3597 66.3981 17.2253C66.1802 17.091 65.9242 17.0239 65.6302 17.0239C65.3109 17.0239 65.0321 17.1024 64.7939 17.2596C64.5582 17.4141 64.3757 17.6169 64.2465 17.8678C64.1198 18.1162 64.0564 18.3861 64.0564 18.6775V19.3428C64.0564 19.7331 64.1248 20.065 64.2617 20.3388C64.4011 20.6125 64.5949 20.8215 64.8433 20.966C65.0917 21.1079 65.3818 21.1789 65.7138 21.1789C65.9293 21.1789 66.1257 21.1485 66.3031 21.0876C66.4805 21.0243 66.6338 20.9305 66.763 20.8063C66.8923 20.6822 66.9911 20.5288 67.0596 20.3464L68.1354 20.5402C68.0492 20.857 67.8946 21.1345 67.6716 21.3728C67.4511 21.6084 67.1736 21.7922 66.8391 21.924C66.5071 22.0532 66.1282 22.1178 65.7024 22.1178ZM71.9169 24.3113C71.4531 24.3113 71.054 24.2505 70.7194 24.1288C70.3874 24.0072 70.1163 23.8463 69.9059 23.646C69.6956 23.4458 69.5384 23.2266 69.4345 22.9884L70.4115 22.5854C70.4799 22.6969 70.5712 22.8148 70.6852 22.939C70.8018 23.0657 70.9589 23.1734 71.1566 23.2621C71.3568 23.3508 71.614 23.3951 71.9283 23.3951C72.3591 23.3951 72.7152 23.29 72.9965 23.0796C73.2778 22.8718 73.4185 22.5398 73.4185 22.0836V20.9356H73.3463C73.2778 21.0598 73.179 21.1979 73.0497 21.3499C72.923 21.502 72.7482 21.6338 72.5251 21.7453C72.3021 21.8568 72.0119 21.9126 71.6546 21.9126C71.1933 21.9126 70.7777 21.8049 70.4077 21.5894C70.0402 21.3715 69.7488 21.0509 69.5334 20.6277C69.3205 20.2019 69.214 19.6786 69.214 19.0577C69.214 18.4367 69.3192 17.9045 69.5296 17.461C69.7425 17.0175 70.0339 16.6779 70.4039 16.4422C70.7739 16.204 71.1933 16.0849 71.6622 16.0849C72.0246 16.0849 72.3173 16.1457 72.5403 16.2674C72.7634 16.3865 72.937 16.5259 73.0611 16.6855C73.1879 16.8452 73.2854 16.9859 73.3539 17.1075H73.4375V16.1609H74.5513V22.1293C74.5513 22.631 74.4347 23.0429 74.2016 23.3647C73.9684 23.6866 73.6529 23.9248 73.255 24.0794C72.8597 24.234 72.4136 24.3113 71.9169 24.3113ZM71.9055 20.9698C72.2324 20.9698 72.5087 20.8938 72.7342 20.7417C72.9623 20.5871 73.1346 20.3666 73.2512 20.0803C73.3703 19.7913 73.4299 19.4454 73.4299 19.0424C73.4299 18.6496 73.3716 18.3037 73.255 18.0046C73.1384 17.7056 72.9674 17.4724 72.7418 17.3052C72.5163 17.1354 72.2375 17.0505 71.9055 17.0505C71.5634 17.0505 71.2782 17.1392 71.0502 17.3166C70.8221 17.4914 70.6497 17.7297 70.5332 18.0313C70.4191 18.3328 70.3621 18.6699 70.3621 19.0424C70.3621 19.4251 70.4204 19.7609 70.537 20.0498C70.6535 20.3388 70.8259 20.5643 71.054 20.7265C71.2846 20.8887 71.5684 20.9698 71.9055 20.9698ZM76.7942 24.1897C76.6244 24.1897 76.4698 24.1757 76.3304 24.1478C76.191 24.1225 76.0871 24.0946 76.0187 24.0642L76.2924 23.1328C76.5002 23.1886 76.6852 23.2127 76.8474 23.2051C77.0096 23.1975 77.1528 23.1366 77.277 23.0226C77.4037 22.9086 77.5152 22.7223 77.6115 22.4638L77.7522 22.076L75.6157 16.1609H76.8322L78.311 20.6923H78.3718L79.8506 16.1609H81.0709L78.6645 22.7793C78.553 23.0834 78.4111 23.3407 78.2388 23.551C78.0664 23.7639 77.8611 23.9235 77.6229 24.03C77.3847 24.1364 77.1085 24.1897 76.7942 24.1897Z" fill="#0F141F"/>
<path d="M169.267 15.4803L164.72 20.0276L162.653 17.9606" stroke="#0F141F" stroke-width="0.8" stroke-linecap="round" stroke-linejoin="round"/>
<rect x="0.3" y="49.3" width="182.48" height="35.7779" rx="7.72872" fill="white" stroke="#0F141F" stroke-width="0.6"/>
<path d="M18.03 63.2146V71H16.8553V63.2146H18.03ZM26.207 65.7464H25.0209C24.9753 65.4929 24.8904 65.2699 24.7662 65.0773C24.642 64.8847 24.49 64.7212 24.31 64.5869C24.1301 64.4526 23.9286 64.3512 23.7056 64.2828C23.4851 64.2144 23.2507 64.1801 23.0023 64.1801C22.5537 64.1801 22.1521 64.2929 21.7973 64.5185C21.445 64.744 21.1662 65.0748 20.9609 65.5107C20.7582 65.9466 20.6568 66.4788 20.6568 67.1073C20.6568 67.7409 20.7582 68.2756 20.9609 68.7115C21.1662 69.1474 21.4463 69.4769 21.8011 69.6999C22.1559 69.9229 22.555 70.0344 22.9985 70.0344C23.2444 70.0344 23.4775 70.0015 23.698 69.9356C23.921 69.8672 24.1225 69.7671 24.3024 69.6353C24.4824 69.5035 24.6344 69.3426 24.7586 69.1525C24.8853 68.9599 24.9728 68.7394 25.0209 68.491L26.207 68.4948C26.1436 68.8775 26.0207 69.2298 25.8382 69.5516C25.6583 69.871 25.4264 70.1472 25.1426 70.3804C24.8612 70.611 24.5394 70.7897 24.177 70.9164C23.8146 71.0431 23.4192 71.1064 22.9909 71.1064C22.3168 71.1064 21.7162 70.9468 21.189 70.6275C20.6619 70.3056 20.2463 69.8456 19.9421 69.2475C19.6405 68.6494 19.4898 67.936 19.4898 67.1073C19.4898 66.276 19.6418 65.5626 19.9459 64.9671C20.2501 64.369 20.6657 63.9102 21.1928 63.5909C21.72 63.2691 22.3193 63.1081 22.9909 63.1081C23.404 63.1081 23.7892 63.1677 24.1466 63.2868C24.5064 63.4034 24.8296 63.5757 25.1159 63.8038C25.4023 64.0294 25.6393 64.3056 25.8268 64.6325C26.0144 64.9569 26.1411 65.3282 26.207 65.7464ZM27.6126 71V63.2146H30.3876C30.9933 63.2146 31.4951 63.3248 31.893 63.5453C32.2909 63.7658 32.5887 64.0674 32.7864 64.4501C32.9841 64.8302 33.0829 65.2585 33.0829 65.735C33.0829 66.2139 32.9828 66.6448 32.7826 67.0275C32.5849 67.4076 32.2858 67.7092 31.8854 67.9322C31.4875 68.1527 30.987 68.2629 30.3838 68.2629H28.4755V67.2669H30.2774C30.6601 67.2669 30.9705 67.2011 31.2088 67.0693C31.447 66.935 31.6219 66.7525 31.7334 66.5219C31.8449 66.2912 31.9006 66.0289 31.9006 65.735C31.9006 65.441 31.8449 65.1799 31.7334 64.9518C31.6219 64.7238 31.4457 64.5451 31.205 64.4158C30.9667 64.2866 30.6525 64.222 30.2622 64.222H28.7872V71H27.6126ZM39.3876 71.114C38.9163 71.114 38.4956 70.9937 38.1256 70.7529C37.7581 70.5096 37.4692 70.1637 37.2588 69.7151C37.051 69.264 36.9471 68.7229 36.9471 68.0919C36.9471 67.4608 37.0523 66.921 37.2626 66.4724C37.4755 66.0239 37.7669 65.6805 38.137 65.4422C38.507 65.204 38.9264 65.0849 39.3952 65.0849C39.7577 65.0849 40.0491 65.1457 40.2696 65.2674C40.4926 65.3865 40.6649 65.5259 40.7866 65.6855C40.9108 65.8452 41.0071 65.9859 41.0755 66.1075H41.1439V63.2146H42.2806V71H41.1705V70.0914H41.0755C41.0071 70.2156 40.9082 70.3576 40.779 70.5172C40.6523 70.6769 40.4774 70.8163 40.2544 70.9354C40.0314 71.0545 39.7425 71.114 39.3876 71.114ZM39.6385 70.1447C39.9655 70.1447 40.2417 70.0585 40.4673 69.8862C40.6954 69.7113 40.8677 69.4693 40.9843 69.1601C41.1034 68.8509 41.1629 68.491 41.1629 68.0805C41.1629 67.675 41.1046 67.3202 40.9881 67.0161C40.8715 66.7119 40.7004 66.475 40.4749 66.3052C40.2493 66.1354 39.9705 66.0505 39.6385 66.0505C39.2964 66.0505 39.0113 66.1392 38.7832 66.3166C38.5551 66.494 38.3828 66.736 38.2662 67.0427C38.1522 67.3493 38.0951 67.6952 38.0951 68.0805C38.0951 68.4707 38.1534 68.8218 38.27 69.1335C38.3866 69.4452 38.5589 69.6923 38.787 69.8748C39.0176 70.0547 39.3015 70.1447 39.6385 70.1447ZM46.4194 71.1178C45.8441 71.1178 45.3487 70.9949 44.9331 70.7491C44.52 70.5007 44.2006 70.1523 43.9751 69.7037C43.7521 69.2526 43.6405 68.7242 43.6405 68.1185C43.6405 67.5204 43.7521 66.9932 43.9751 66.5371C44.2006 66.0809 44.5149 65.7248 44.9178 65.4688C45.3233 65.2129 45.7973 65.0849 46.3396 65.0849C46.6691 65.0849 46.9884 65.1394 47.2976 65.2484C47.6068 65.3573 47.8843 65.5284 48.1301 65.7616C48.3759 65.9947 48.5698 66.2976 48.7117 66.6701C48.8536 67.0401 48.9246 67.49 48.9246 68.0196V68.4226H44.283V67.5711H47.8108C47.8108 67.272 47.7499 67.0072 47.6283 66.7766C47.5067 66.5434 47.3356 66.3597 47.1151 66.2253C46.8971 66.091 46.6412 66.0239 46.3472 66.0239C46.0279 66.0239 45.7491 66.1024 45.5109 66.2596C45.2752 66.4141 45.0927 66.6169 44.9635 66.8678C44.8367 67.1162 44.7734 67.3861 44.7734 67.6775V68.3428C44.7734 68.7331 44.8418 69.065 44.9787 69.3388C45.1181 69.6125 45.3119 69.8215 45.5603 69.966C45.8087 70.1079 46.0988 70.1789 46.4308 70.1789C46.6463 70.1789 46.8427 70.1485 47.0201 70.0876C47.1975 70.0243 47.3508 69.9305 47.48 69.8063C47.6093 69.6822 47.7081 69.5288 47.7766 69.3464L48.8524 69.5402C48.7662 69.857 48.6116 70.1345 48.3886 70.3728C48.1681 70.6084 47.8906 70.7922 47.5561 70.924C47.2241 71.0532 46.8452 71.1178 46.4194 71.1178ZM52.9646 65.1609V66.0733H49.6649V65.1609H52.9646ZM50.5697 71V64.4843C50.5697 64.1193 50.6495 63.8165 50.8092 63.5757C50.9688 63.3324 51.1805 63.1512 51.444 63.0321C51.7076 62.9105 51.994 62.8496 52.3032 62.8496C52.5313 62.8496 52.7264 62.8686 52.8886 62.9067C53.0508 62.9421 53.1712 62.9751 53.2497 63.0055L52.9836 63.9254C52.9304 63.9102 52.862 63.8925 52.7784 63.8722C52.6947 63.8494 52.5933 63.838 52.4742 63.838C52.198 63.838 52.0003 63.9064 51.8812 64.0433C51.7646 64.1801 51.7063 64.3778 51.7063 64.6363V71H50.5697ZM54.1374 71V65.1609H55.274V71H54.1374ZM54.7114 64.26C54.5137 64.26 54.3439 64.1941 54.202 64.0623C54.0626 63.928 53.9929 63.7683 53.9929 63.5833C53.9929 63.3958 54.0626 63.2361 54.202 63.1043C54.3439 62.97 54.5137 62.9029 54.7114 62.9029C54.9091 62.9029 55.0776 62.97 55.217 63.1043C55.3589 63.2361 55.4299 63.3958 55.4299 63.5833C55.4299 63.7683 55.3589 63.928 55.217 64.0623C55.0776 64.1941 54.9091 64.26 54.7114 64.26ZM57.9398 67.5331V71H56.8032V65.1609H57.8942V66.1113H57.9664C58.1007 65.8021 58.3111 65.5537 58.5975 65.3662C58.8864 65.1787 59.2501 65.0849 59.6885 65.0849C60.0864 65.0849 60.4348 65.1685 60.7339 65.3358C61.0329 65.5005 61.2648 65.7464 61.4296 66.0733C61.5943 66.4002 61.6767 66.8044 61.6767 67.286V71H60.54V67.4228C60.54 66.9996 60.4298 66.6688 60.2093 66.4306C59.9888 66.1899 59.686 66.0695 59.3007 66.0695C59.0372 66.0695 58.8027 66.1265 58.5975 66.2405C58.3947 66.3546 58.2338 66.5219 58.1147 66.7423C57.9981 66.9603 57.9398 67.2239 57.9398 67.5331ZM63.2011 71V65.1609H64.3377V71H63.2011ZM63.7751 64.26C63.5774 64.26 63.4076 64.1941 63.2657 64.0623C63.1263 63.928 63.0566 63.7683 63.0566 63.5833C63.0566 63.3958 63.1263 63.2361 63.2657 63.1043C63.4076 62.97 63.5774 62.9029 63.7751 62.9029C63.9728 62.9029 64.1413 62.97 64.2807 63.1043C64.4226 63.2361 64.4936 63.3958 64.4936 63.5833C64.4936 63.7683 64.4226 63.928 64.2807 64.0623C64.1413 64.1941 63.9728 64.26 63.7751 64.26ZM67.0035 67.5331V71H65.8668V65.1609H66.9579V66.1113H67.0301C67.1644 65.8021 67.3748 65.5537 67.6611 65.3662C67.9501 65.1787 68.3137 65.0849 68.7522 65.0849C69.1501 65.0849 69.4985 65.1685 69.7976 65.3358C70.0966 65.5005 70.3285 65.7464 70.4932 66.0733C70.658 66.4002 70.7403 66.8044 70.7403 67.286V71H69.6037V67.4228C69.6037 66.9996 69.4935 66.6688 69.273 66.4306C69.0525 66.1899 68.7496 66.0695 68.3644 66.0695C68.1008 66.0695 67.8664 66.1265 67.6611 66.2405C67.4584 66.3546 67.2975 66.5219 67.1784 66.7423C67.0618 66.9603 67.0035 67.2239 67.0035 67.5331ZM74.7129 73.3113C74.2491 73.3113 73.8499 73.2505 73.5154 73.1288C73.1834 73.0072 72.9122 72.8463 72.7019 72.646C72.4916 72.4458 72.3344 72.2266 72.2305 71.9884L73.2075 71.5854C73.2759 71.6969 73.3672 71.8148 73.4812 71.939C73.5978 72.0657 73.7549 72.1734 73.9526 72.2621C74.1528 72.3508 74.41 72.3951 74.7243 72.3951C75.1551 72.3951 75.5112 72.29 75.7925 72.0796C76.0738 71.8718 76.2145 71.5398 76.2145 71.0836V69.9356H76.1422C76.0738 70.0598 75.975 70.1979 75.8457 70.3499C75.719 70.502 75.5441 70.6338 75.3211 70.7453C75.0981 70.8568 74.8079 70.9126 74.4506 70.9126C73.9893 70.9126 73.5737 70.8049 73.2037 70.5894C72.8362 70.3715 72.5448 70.0509 72.3294 69.6277C72.1165 69.2019 72.01 68.6786 72.01 68.0577C72.01 67.4367 72.1152 66.9045 72.3256 66.461C72.5384 66.0175 72.8299 65.6779 73.1999 65.4422C73.5699 65.204 73.9893 65.0849 74.4582 65.0849C74.8206 65.0849 75.1133 65.1457 75.3363 65.2674C75.5593 65.3865 75.7329 65.5259 75.8571 65.6855C75.9838 65.8452 76.0814 65.9859 76.1498 66.1075H76.2335V65.1609H77.3473V71.1293C77.3473 71.631 77.2307 72.0429 76.9976 72.3647C76.7644 72.6866 76.4489 72.9248 76.051 73.0794C75.6556 73.234 75.2096 73.3113 74.7129 73.3113ZM74.7015 69.9698C75.0284 69.9698 75.3046 69.8938 75.5302 69.7417C75.7583 69.5871 75.9306 69.3666 76.0472 69.0803C76.1663 68.7913 76.2259 68.4454 76.2259 68.0424C76.2259 67.6496 76.1676 67.3037 76.051 67.0046C75.9344 66.7056 75.7634 66.4724 75.5378 66.3052C75.3122 66.1354 75.0335 66.0505 74.7015 66.0505C74.3593 66.0505 74.0742 66.1392 73.8461 66.3166C73.6181 66.4914 73.4457 66.7297 73.3291 67.0313C73.2151 67.3328 73.1581 67.6699 73.1581 68.0424C73.1581 68.4251 73.2164 68.7609 73.3329 69.0498C73.4495 69.3388 73.6219 69.5643 73.8499 69.7265C74.0806 69.8887 74.3644 69.9698 74.7015 69.9698Z" fill="#0F141F"/>
<path d="M169.267 64.4803L164.72 69.0276L162.653 66.9606" stroke="#0F141F" stroke-width="0.8" stroke-linecap="round" stroke-linejoin="round"/>
<rect x="0.3" y="98.3" width="182.48" height="35.7779" rx="7.72872" fill="white" stroke="#0F141F" stroke-width="0.6"/>
<path d="M16.8553 120V112.215H18.03V115.598H21.9113V112.215H23.0898V120H21.9113V116.605H18.03V120H16.8553ZM24.7092 120V114.161H25.8458V120H24.7092ZM25.2832 113.26C25.0855 113.26 24.9157 113.194 24.7738 113.062C24.6344 112.928 24.5647 112.768 24.5647 112.583C24.5647 112.396 24.6344 112.236 24.7738 112.104C24.9157 111.97 25.0855 111.903 25.2832 111.903C25.4809 111.903 25.6494 111.97 25.7888 112.104C25.9307 112.236 26.0017 112.396 26.0017 112.583C26.0017 112.768 25.9307 112.928 25.7888 113.062C25.6494 113.194 25.4809 113.26 25.2832 113.26ZM31.7505 115.586L30.7203 115.769C30.6772 115.637 30.6088 115.512 30.515 115.393C30.4238 115.273 30.2996 115.176 30.1424 115.1C29.9853 115.024 29.7889 114.986 29.5532 114.986C29.2314 114.986 28.9627 115.058 28.7473 115.203C28.5319 115.344 28.4242 115.528 28.4242 115.754C28.4242 115.949 28.4964 116.106 28.6409 116.225C28.7853 116.344 29.0185 116.442 29.3403 116.518L30.2679 116.731C30.8052 116.855 31.2056 117.046 31.4692 117.305C31.7327 117.563 31.8645 117.899 31.8645 118.312C31.8645 118.662 31.7631 118.974 31.5604 119.247C31.3602 119.518 31.0801 119.731 30.7203 119.886C30.3629 120.041 29.9486 120.118 29.4772 120.118C28.8233 120.118 28.2899 119.978 27.8768 119.7C27.4637 119.418 27.2102 119.019 27.1165 118.502L28.2151 118.335C28.2835 118.621 28.4242 118.838 28.6371 118.985C28.8499 119.129 29.1275 119.202 29.4696 119.202C29.8421 119.202 30.1399 119.124 30.3629 118.97C30.586 118.813 30.6975 118.621 30.6975 118.396C30.6975 118.213 30.629 118.06 30.4922 117.936C30.3579 117.812 30.1513 117.718 29.8725 117.654L28.8842 117.438C28.3393 117.314 27.9363 117.116 27.6753 116.845C27.4168 116.574 27.2875 116.23 27.2875 115.815C27.2875 115.47 27.3838 115.168 27.5765 114.91C27.7691 114.651 28.0352 114.45 28.3748 114.305C28.7144 114.158 29.1034 114.085 29.5418 114.085C30.1729 114.085 30.6696 114.222 31.032 114.495C31.3944 114.767 31.6339 115.13 31.7505 115.586ZM35.8399 114.161V115.073H32.6505V114.161H35.8399ZM33.5058 112.762H34.6424V118.286C34.6424 118.506 34.6754 118.672 34.7413 118.784C34.8072 118.893 34.8921 118.967 34.996 119.008C35.1024 119.046 35.2177 119.065 35.3419 119.065C35.4332 119.065 35.513 119.059 35.5814 119.046C35.6498 119.033 35.7031 119.023 35.7411 119.015L35.9464 119.954C35.8805 119.98 35.7867 120.005 35.665 120.03C35.5434 120.058 35.3913 120.073 35.2089 120.076C34.9098 120.081 34.631 120.028 34.3725 119.916C34.114 119.805 33.905 119.633 33.7453 119.399C33.5856 119.166 33.5058 118.873 33.5058 118.521V112.762ZM39.4941 120.118C38.9467 120.118 38.469 119.992 38.0609 119.741C37.6529 119.491 37.3361 119.14 37.1106 118.688C36.885 118.237 36.7722 117.71 36.7722 117.107C36.7722 116.501 36.885 115.972 37.1106 115.518C37.3361 115.064 37.6529 114.712 38.0609 114.461C38.469 114.21 38.9467 114.085 39.4941 114.085C40.0415 114.085 40.5192 114.21 40.9272 114.461C41.3353 114.712 41.6521 115.064 41.8776 115.518C42.1032 115.972 42.2159 116.501 42.2159 117.107C42.2159 117.71 42.1032 118.237 41.8776 118.688C41.6521 119.14 41.3353 119.491 40.9272 119.741C40.5192 119.992 40.0415 120.118 39.4941 120.118ZM39.4979 119.164C39.8527 119.164 40.1467 119.07 40.3798 118.882C40.613 118.695 40.7853 118.445 40.8968 118.133C41.0109 117.822 41.0679 117.478 41.0679 117.103C41.0679 116.731 41.0109 116.389 40.8968 116.077C40.7853 115.763 40.613 115.51 40.3798 115.32C40.1467 115.13 39.8527 115.035 39.4979 115.035C39.1405 115.035 38.844 115.13 38.6083 115.32C38.3752 115.51 38.2016 115.763 38.0875 116.077C37.976 116.389 37.9203 116.731 37.9203 117.103C37.9203 117.478 37.976 117.822 38.0875 118.133C38.2016 118.445 38.3752 118.695 38.6083 118.882C38.844 119.07 39.1405 119.164 39.4979 119.164ZM43.4847 120V114.161H44.5833V115.088H44.6441C44.7506 114.774 44.9381 114.527 45.2068 114.347C45.4779 114.165 45.7846 114.073 46.1267 114.073C46.1977 114.073 46.2813 114.076 46.3776 114.081C46.4765 114.086 46.5537 114.093 46.6095 114.1V115.187C46.5639 115.175 46.4828 115.161 46.3662 115.146C46.2496 115.128 46.1331 115.119 46.0165 115.119C45.7478 115.119 45.5083 115.176 45.298 115.29C45.0902 115.401 44.9254 115.557 44.8038 115.758C44.6822 115.955 44.6213 116.181 44.6213 116.434V120H43.4847ZM47.5931 120V114.161H48.7298V120H47.5931ZM48.1672 113.26C47.9695 113.26 47.7997 113.194 47.6578 113.062C47.5184 112.928 47.4487 112.768 47.4487 112.583C47.4487 112.396 47.5184 112.236 47.6578 112.104C47.7997 111.97 47.9695 111.903 48.1672 111.903C48.3648 111.903 48.5334 111.97 48.6728 112.104C48.8147 112.236 48.8856 112.396 48.8856 112.583C48.8856 112.768 48.8147 112.928 48.6728 113.062C48.5334 113.194 48.3648 113.26 48.1672 113.26ZM52.7185 120.118C52.1533 120.118 51.6667 119.99 51.2587 119.734C50.8532 119.475 50.5415 119.119 50.3235 118.666C50.1056 118.212 49.9966 117.693 49.9966 117.107C49.9966 116.514 50.1081 115.991 50.3311 115.537C50.5542 115.081 50.8684 114.725 51.2739 114.469C51.6794 114.213 52.1571 114.085 52.7071 114.085C53.1506 114.085 53.5459 114.167 53.8931 114.332C54.2403 114.494 54.5204 114.722 54.7333 115.016C54.9487 115.31 55.0767 115.654 55.1172 116.046H54.011C53.9502 115.773 53.8108 115.537 53.5928 115.339C53.3774 115.142 53.0885 115.043 52.7261 115.043C52.4093 115.043 52.1318 115.127 51.8936 115.294C51.6579 115.459 51.4741 115.694 51.3423 116.001C51.2106 116.305 51.1447 116.665 51.1447 117.08C51.1447 117.506 51.2093 117.874 51.3385 118.183C51.4678 118.492 51.6503 118.732 51.886 118.901C52.1242 119.071 52.4042 119.156 52.7261 119.156C52.9415 119.156 53.1366 119.117 53.3115 119.038C53.4889 118.957 53.6372 118.842 53.7563 118.692C53.8779 118.543 53.9628 118.363 54.011 118.152H55.1172C55.0767 118.53 54.9537 118.867 54.7485 119.164C54.5432 119.46 54.2682 119.693 53.9235 119.863C53.5814 120.033 53.1797 120.118 52.7185 120.118ZM58.032 120.129C57.662 120.129 57.3275 120.061 57.0284 119.924C56.7294 119.785 56.4924 119.583 56.3175 119.32C56.1452 119.056 56.059 118.733 56.059 118.35C56.059 118.021 56.1224 117.75 56.2491 117.537C56.3758 117.324 56.5469 117.155 56.7623 117.031C56.9777 116.907 57.2185 116.813 57.4846 116.75C57.7507 116.686 58.0219 116.638 58.2981 116.605C58.6478 116.565 58.9317 116.532 59.1496 116.506C59.3676 116.479 59.526 116.434 59.6248 116.373C59.7237 116.313 59.7731 116.214 59.7731 116.077V116.05C59.7731 115.718 59.6793 115.461 59.4918 115.279C59.3068 115.096 59.0305 115.005 58.663 115.005C58.2804 115.005 57.9788 115.09 57.7583 115.26C57.5403 115.427 57.3895 115.613 57.3059 115.818L56.2377 115.575C56.3644 115.22 56.5494 114.934 56.7927 114.716C57.0385 114.495 57.3211 114.336 57.6404 114.237C57.9598 114.136 58.2956 114.085 58.6478 114.085C58.881 114.085 59.1281 114.113 59.3891 114.169C59.6527 114.222 59.8985 114.321 60.1266 114.465C60.3572 114.61 60.546 114.816 60.693 115.085C60.84 115.351 60.9135 115.697 60.9135 116.122V120H59.8035V119.202H59.7579C59.6844 119.349 59.5741 119.493 59.4271 119.635C59.2801 119.777 59.0913 119.895 58.8607 119.989C58.6301 120.082 58.3539 120.129 58.032 120.129ZM58.2791 119.217C58.5933 119.217 58.862 119.155 59.085 119.031C59.3106 118.906 59.4816 118.744 59.5982 118.544C59.7173 118.341 59.7769 118.125 59.7769 117.894V117.141C59.7363 117.182 59.6578 117.22 59.5412 117.255C59.4271 117.288 59.2966 117.317 59.1496 117.343C59.0026 117.366 58.8595 117.387 58.7201 117.407C58.5807 117.425 58.4641 117.44 58.3703 117.453C58.1498 117.481 57.9484 117.528 57.7659 117.594C57.586 117.66 57.4415 117.755 57.3325 117.879C57.2261 118 57.1729 118.163 57.1729 118.365C57.1729 118.647 57.2768 118.86 57.4846 119.004C57.6924 119.146 57.9572 119.217 58.2791 119.217ZM63.5641 112.215V120H62.4275V112.215H63.5641ZM70.1121 120.114C69.6408 120.114 69.2201 119.994 68.85 119.753C68.4826 119.51 68.1937 119.164 67.9833 118.715C67.7755 118.264 67.6716 117.723 67.6716 117.092C67.6716 116.461 67.7768 115.921 67.9871 115.472C68.2 115.024 68.4914 114.68 68.8615 114.442C69.2315 114.204 69.6509 114.085 70.1197 114.085C70.4822 114.085 70.7736 114.146 70.9941 114.267C71.2171 114.386 71.3894 114.526 71.5111 114.686C71.6353 114.845 71.7316 114.986 71.8 115.107H71.8684V112.215H73.0051V120H71.895V119.091H71.8C71.7316 119.216 71.6327 119.358 71.5035 119.517C71.3768 119.677 71.2019 119.816 70.9789 119.935C70.7559 120.054 70.4669 120.114 70.1121 120.114ZM70.363 119.145C70.69 119.145 70.9662 119.059 71.1918 118.886C71.4198 118.711 71.5922 118.469 71.7088 118.16C71.8279 117.851 71.8874 117.491 71.8874 117.08C71.8874 116.675 71.8291 116.32 71.7126 116.016C71.596 115.712 71.4249 115.475 71.1994 115.305C70.9738 115.135 70.695 115.05 70.363 115.05C70.0209 115.05 69.7358 115.139 69.5077 115.317C69.2796 115.494 69.1073 115.736 68.9907 116.043C68.8767 116.349 68.8196 116.695 68.8196 117.08C68.8196 117.471 68.8779 117.822 68.9945 118.133C69.1111 118.445 69.2834 118.692 69.5115 118.875C69.7421 119.055 70.026 119.145 70.363 119.145ZM76.3266 120.129C75.9566 120.129 75.6221 120.061 75.323 119.924C75.024 119.785 74.787 119.583 74.6121 119.32C74.4398 119.056 74.3536 118.733 74.3536 118.35C74.3536 118.021 74.417 117.75 74.5437 117.537C74.6704 117.324 74.8415 117.155 75.0569 117.031C75.2723 116.907 75.5131 116.813 75.7792 116.75C76.0453 116.686 76.3165 116.638 76.5927 116.605C76.9424 116.565 77.2263 116.532 77.4442 116.506C77.6622 116.479 77.8206 116.434 77.9194 116.373C78.0183 116.313 78.0677 116.214 78.0677 116.077V116.05C78.0677 115.718 77.9739 115.461 77.7864 115.279C77.6014 115.096 77.3251 115.005 76.9577 115.005C76.575 115.005 76.2734 115.09 76.0529 115.26C75.835 115.427 75.6842 115.613 75.6005 115.818L74.5323 115.575C74.659 115.22 74.844 114.934 75.0873 114.716C75.3332 114.495 75.6157 114.336 75.9351 114.237C76.2544 114.136 76.5902 114.085 76.9424 114.085C77.1756 114.085 77.4227 114.113 77.6837 114.169C77.9473 114.222 78.1931 114.321 78.4212 114.465C78.6518 114.61 78.8407 114.816 78.9876 115.085C79.1346 115.351 79.2081 115.697 79.2081 116.122V120H78.0981V119.202H78.0525C77.979 119.349 77.8687 119.493 77.7218 119.635C77.5748 119.777 77.386 119.895 77.1553 119.989C76.9247 120.082 76.6485 120.129 76.3266 120.129ZM76.5737 119.217C76.888 119.217 77.1566 119.155 77.3796 119.031C77.6052 118.906 77.7762 118.744 77.8928 118.544C78.0119 118.341 78.0715 118.125 78.0715 117.894V117.141C78.0309 117.182 77.9524 117.22 77.8358 117.255C77.7218 117.288 77.5912 117.317 77.4442 117.343C77.2973 117.366 77.1541 117.387 77.0147 117.407C76.8753 117.425 76.7587 117.44 76.6649 117.453C76.4445 117.481 76.243 117.528 76.0605 117.594C75.8806 117.66 75.7361 117.755 75.6271 117.879C75.5207 118 75.4675 118.163 75.4675 118.365C75.4675 118.647 75.5714 118.86 75.7792 119.004C75.987 119.146 76.2518 119.217 76.5737 119.217ZM83.4477 114.161V115.073H80.2583V114.161H83.4477ZM81.1136 112.762H82.2503V118.286C82.2503 118.506 82.2832 118.672 82.3491 118.784C82.415 118.893 82.4999 118.967 82.6038 119.008C82.7102 119.046 82.8256 119.065 82.9497 119.065C83.041 119.065 83.1208 119.059 83.1892 119.046C83.2577 119.033 83.3109 119.023 83.3489 119.015L83.5542 119.954C83.4883 119.98 83.3945 120.005 83.2729 120.03C83.1512 120.058 82.9992 120.073 82.8167 120.076C82.5176 120.081 82.2389 120.028 81.9804 119.916C81.7219 119.805 81.5128 119.633 81.3531 119.399C81.1935 119.166 81.1136 118.873 81.1136 118.521V112.762ZM86.4043 120.129C86.0343 120.129 85.6998 120.061 85.4007 119.924C85.1017 119.785 84.8647 119.583 84.6899 119.32C84.5175 119.056 84.4314 118.733 84.4314 118.35C84.4314 118.021 84.4947 117.75 84.6214 117.537C84.7482 117.324 84.9192 117.155 85.1346 117.031C85.3501 116.907 85.5908 116.813 85.8569 116.75C86.123 116.686 86.3942 116.638 86.6704 116.605C87.0202 116.565 87.304 116.532 87.522 116.506C87.7399 116.479 87.8983 116.434 87.9971 116.373C88.096 116.313 88.1454 116.214 88.1454 116.077V116.05C88.1454 115.718 88.0516 115.461 87.8641 115.279C87.6791 115.096 87.4029 115.005 87.0354 115.005C86.6527 115.005 86.3511 115.09 86.1306 115.26C85.9127 115.427 85.7619 115.613 85.6782 115.818L84.61 115.575C84.7367 115.22 84.9218 114.934 85.165 114.716C85.4109 114.495 85.6935 114.336 86.0128 114.237C86.3321 114.136 86.6679 114.085 87.0202 114.085C87.2533 114.085 87.5004 114.113 87.7615 114.169C88.025 114.222 88.2709 114.321 88.4989 114.465C88.7296 114.61 88.9184 114.816 89.0654 115.085C89.2124 115.351 89.2858 115.697 89.2858 116.122V120H88.1758V119.202H88.1302C88.0567 119.349 87.9465 119.493 87.7995 119.635C87.6525 119.777 87.4637 119.895 87.2331 119.989C87.0024 120.082 86.7262 120.129 86.4043 120.129ZM86.6514 119.217C86.9657 119.217 87.2343 119.155 87.4573 119.031C87.6829 118.906 87.854 118.744 87.9705 118.544C88.0897 118.341 88.1492 118.125 88.1492 117.894V117.141C88.1087 117.182 88.0301 117.22 87.9135 117.255C87.7995 117.288 87.669 117.317 87.522 117.343C87.375 117.366 87.2318 117.387 87.0924 117.407C86.953 117.425 86.8364 117.44 86.7427 117.453C86.5222 117.481 86.3207 117.528 86.1382 117.594C85.9583 117.66 85.8138 117.755 85.7049 117.879C85.5984 118 85.5452 118.163 85.5452 118.365C85.5452 118.647 85.6491 118.86 85.8569 119.004C86.0647 119.146 86.3296 119.217 86.6514 119.217Z" fill="#0F141F"/>
<path d="M169.267 113.48L164.72 118.028L162.653 115.961" stroke="#0F141F" stroke-width="0.8" stroke-linecap="round" stroke-linejoin="round"/>
<rect x="0.3" y="147.3" width="182.48" height="35.7779" rx="7.72872" fill="white" stroke="#0F141F" stroke-width="0.6"/>
<path d="M16.4714 162.226V161.215H22.4967V162.226H20.0676V169H18.8967V162.226H16.4714ZM25.4068 169.118C24.8315 169.118 24.336 168.995 23.9204 168.749C23.5073 168.501 23.188 168.152 22.9624 167.704C22.7394 167.253 22.6279 166.724 22.6279 166.118C22.6279 165.52 22.7394 164.993 22.9624 164.537C23.188 164.081 23.5022 163.725 23.9052 163.469C24.3107 163.213 24.7846 163.085 25.3269 163.085C25.6564 163.085 25.9757 163.139 26.2849 163.248C26.5941 163.357 26.8716 163.528 27.1174 163.762C27.3633 163.995 27.5571 164.298 27.699 164.67C27.841 165.04 27.9119 165.49 27.9119 166.02V166.423H23.2703V165.571H26.7981C26.7981 165.272 26.7373 165.007 26.6156 164.777C26.494 164.543 26.3229 164.36 26.1024 164.225C25.8845 164.091 25.6285 164.024 25.3345 164.024C25.0152 164.024 24.7364 164.102 24.4982 164.26C24.2625 164.414 24.08 164.617 23.9508 164.868C23.8241 165.116 23.7607 165.386 23.7607 165.678V166.343C23.7607 166.733 23.8291 167.065 23.966 167.339C24.1054 167.612 24.2993 167.822 24.5476 167.966C24.796 168.108 25.0862 168.179 25.4182 168.179C25.6336 168.179 25.83 168.148 26.0074 168.088C26.1848 168.024 26.3381 167.931 26.4674 167.806C26.5966 167.682 26.6955 167.529 26.7639 167.346L27.8397 167.54C27.7535 167.857 27.5989 168.135 27.3759 168.373C27.1554 168.608 26.8779 168.792 26.5434 168.924C26.2114 169.053 25.8325 169.118 25.4068 169.118ZM31.6326 169.118C31.0675 169.118 30.5809 168.99 30.1729 168.734C29.7674 168.475 29.4556 168.119 29.2377 167.666C29.0197 167.212 28.9108 166.693 28.9108 166.107C28.9108 165.514 29.0223 164.991 29.2453 164.537C29.4683 164.081 29.7826 163.725 30.1881 163.469C30.5936 163.213 31.0713 163.085 31.6212 163.085C32.0647 163.085 32.4601 163.167 32.8073 163.332C33.1545 163.494 33.4345 163.722 33.6474 164.016C33.8628 164.31 33.9908 164.654 34.0314 165.046H32.9251C32.8643 164.773 32.7249 164.537 32.507 164.339C32.2916 164.142 32.0026 164.043 31.6402 164.043C31.3234 164.043 31.0459 164.127 30.8077 164.294C30.572 164.459 30.3883 164.694 30.2565 165.001C30.1247 165.305 30.0588 165.665 30.0588 166.08C30.0588 166.506 30.1234 166.874 30.2527 167.183C30.3819 167.492 30.5644 167.732 30.8001 167.901C31.0383 168.071 31.3184 168.156 31.6402 168.156C31.8556 168.156 32.0508 168.117 32.2257 168.038C32.4031 167.957 32.5513 167.842 32.6704 167.692C32.7921 167.543 32.877 167.363 32.9251 167.152H34.0314C33.9908 167.53 33.8679 167.867 33.6626 168.164C33.4573 168.46 33.1824 168.693 32.8377 168.863C32.4956 169.033 32.0939 169.118 31.6326 169.118ZM36.3835 165.533V169H35.2469V161.215H36.3683V164.111H36.4405C36.5774 163.797 36.7865 163.547 37.0678 163.362C37.3491 163.177 37.7166 163.085 38.1702 163.085C38.5706 163.085 38.9204 163.167 39.2194 163.332C39.521 163.497 39.7542 163.743 39.9189 164.069C40.0862 164.394 40.1698 164.799 40.1698 165.286V169H39.0332V165.423C39.0332 164.995 38.9229 164.663 38.7024 164.427C38.4819 164.189 38.1753 164.069 37.7825 164.069C37.5138 164.069 37.2731 164.127 37.0602 164.241C36.8498 164.355 36.6838 164.522 36.5622 164.742C36.4431 164.96 36.3835 165.224 36.3835 165.533ZM42.8232 165.533V169H41.6866V163.161H42.7776V164.111H42.8498C42.9842 163.802 43.1945 163.554 43.4809 163.366C43.7698 163.179 44.1335 163.085 44.5719 163.085C44.9698 163.085 45.3183 163.169 45.6173 163.336C45.9164 163.501 46.1483 163.746 46.313 164.073C46.4777 164.4 46.5601 164.804 46.5601 165.286V169H45.4234V165.423C45.4234 165 45.3132 164.669 45.0927 164.431C44.8722 164.19 44.5694 164.069 44.1842 164.069C43.9206 164.069 43.6862 164.127 43.4809 164.241C43.2781 164.355 43.1172 164.522 42.9981 164.742C42.8815 164.96 42.8232 165.224 42.8232 165.533ZM48.0845 169V163.161H49.2211V169H48.0845ZM48.6585 162.26C48.4608 162.26 48.291 162.194 48.1491 162.062C48.0097 161.928 47.94 161.768 47.94 161.583C47.94 161.396 48.0097 161.236 48.1491 161.104C48.291 160.97 48.4608 160.903 48.6585 160.903C48.8562 160.903 49.0247 160.97 49.1641 161.104C49.306 161.236 49.377 161.396 49.377 161.583C49.377 161.768 49.306 161.928 49.1641 162.062C49.0247 162.194 48.8562 162.26 48.6585 162.26ZM53.2098 169.118C52.6447 169.118 52.1581 168.99 51.7501 168.734C51.3446 168.475 51.0328 168.119 50.8149 167.666C50.5969 167.212 50.488 166.693 50.488 166.107C50.488 165.514 50.5995 164.991 50.8225 164.537C51.0455 164.081 51.3598 163.725 51.7653 163.469C52.1707 163.213 52.6485 163.085 53.1984 163.085C53.6419 163.085 54.0373 163.167 54.3845 163.332C54.7317 163.494 55.0117 163.722 55.2246 164.016C55.44 164.31 55.568 164.654 55.6086 165.046H54.5023C54.4415 164.773 54.3021 164.537 54.0842 164.339C53.8687 164.142 53.5798 164.043 53.2174 164.043C52.9006 164.043 52.6231 164.127 52.3849 164.294C52.1492 164.459 51.9655 164.694 51.8337 165.001C51.7019 165.305 51.636 165.665 51.636 166.08C51.636 166.506 51.7006 166.874 51.8299 167.183C51.9591 167.492 52.1416 167.732 52.3773 167.901C52.6155 168.071 52.8956 168.156 53.2174 168.156C53.4328 168.156 53.628 168.117 53.8028 168.038C53.9803 167.957 54.1285 167.842 54.2476 167.692C54.3693 167.543 54.4542 167.363 54.5023 167.152H55.6086C55.568 167.53 55.4451 167.867 55.2398 168.164C55.0345 168.46 54.7596 168.693 54.4149 168.863C54.0728 169.033 53.6711 169.118 53.2098 169.118ZM58.5233 169.129C58.1533 169.129 57.8188 169.061 57.5197 168.924C57.2207 168.785 56.9837 168.583 56.8089 168.32C56.6365 168.056 56.5504 167.733 56.5504 167.35C56.5504 167.021 56.6137 166.75 56.7404 166.537C56.8672 166.324 57.0382 166.155 57.2536 166.031C57.4691 165.907 57.7098 165.813 57.9759 165.75C58.242 165.686 58.5132 165.638 58.7894 165.605C59.1392 165.565 59.423 165.532 59.641 165.506C59.8589 165.479 60.0173 165.434 60.1162 165.373C60.215 165.313 60.2644 165.214 60.2644 165.077V165.05C60.2644 164.718 60.1706 164.461 59.9831 164.279C59.7981 164.096 59.5219 164.005 59.1544 164.005C58.7717 164.005 58.4701 164.09 58.2496 164.26C58.0317 164.427 57.8809 164.613 57.7973 164.818L56.729 164.575C56.8558 164.22 57.0408 163.934 57.2841 163.716C57.5299 163.495 57.8125 163.336 58.1318 163.237C58.4511 163.136 58.7869 163.085 59.1392 163.085C59.3723 163.085 59.6194 163.113 59.8805 163.169C60.144 163.222 60.3899 163.321 60.618 163.465C60.8486 163.61 61.0374 163.816 61.1844 164.085C61.3314 164.351 61.4049 164.697 61.4049 165.122V169H60.2948V168.202H60.2492C60.1757 168.349 60.0655 168.493 59.9185 168.635C59.7715 168.777 59.5827 168.895 59.3521 168.989C59.1214 169.082 58.8452 169.129 58.5233 169.129ZM58.7704 168.217C59.0847 168.217 59.3533 168.155 59.5763 168.031C59.8019 167.906 59.973 167.744 60.0895 167.544C60.2087 167.341 60.2682 167.125 60.2682 166.894V166.141C60.2277 166.182 60.1491 166.22 60.0325 166.255C59.9185 166.288 59.788 166.317 59.641 166.343C59.494 166.366 59.3508 166.387 59.2114 166.407C59.072 166.425 58.9554 166.44 58.8617 166.453C58.6412 166.481 58.4397 166.528 58.2572 166.594C58.0773 166.66 57.9328 166.755 57.8239 166.879C57.7174 167 57.6642 167.163 57.6642 167.365C57.6642 167.647 57.7681 167.86 57.9759 168.004C58.1837 168.146 58.4486 168.217 58.7704 168.217ZM64.0554 161.215V169H62.9188V161.215H64.0554ZM72.7551 163.26C72.7146 162.9 72.5473 162.621 72.2533 162.423C71.9593 162.223 71.5893 162.123 71.1433 162.123C70.824 162.123 70.5477 162.174 70.3146 162.275C70.0814 162.374 69.9002 162.511 69.771 162.686C69.6442 162.858 69.5809 163.054 69.5809 163.275C69.5809 163.46 69.624 163.62 69.7101 163.754C69.7988 163.888 69.9141 164.001 70.0561 164.092C70.2005 164.181 70.3551 164.256 70.5198 164.317C70.6846 164.375 70.843 164.423 70.995 164.461L71.7553 164.659C72.0037 164.72 72.2584 164.802 72.5194 164.906C72.7805 165.01 73.0225 165.147 73.2455 165.316C73.4685 165.486 73.6485 165.697 73.7853 165.947C73.9247 166.198 73.9944 166.499 73.9944 166.848C73.9944 167.289 73.8804 167.681 73.6523 168.023C73.4267 168.365 73.0985 168.635 72.6677 168.833C72.2394 169.03 71.7211 169.129 71.1129 169.129C70.53 169.129 70.0257 169.037 69.5999 168.852C69.1741 168.667 68.8409 168.404 68.6001 168.065C68.3593 167.723 68.2263 167.317 68.2009 166.848H69.3794C69.4022 167.13 69.4934 167.364 69.6531 167.552C69.8153 167.737 70.0219 167.875 70.2728 167.966C70.5262 168.055 70.8037 168.099 71.1053 168.099C71.4373 168.099 71.7325 168.047 71.991 167.943C72.2521 167.837 72.4573 167.69 72.6069 167.502C72.7564 167.312 72.8311 167.09 72.8311 166.837C72.8311 166.606 72.7653 166.418 72.6335 166.271C72.5042 166.124 72.3281 166.002 72.1051 165.906C71.8846 165.809 71.6349 165.724 71.3562 165.651L70.4362 165.4C69.8128 165.23 69.3186 164.981 68.9536 164.651C68.5912 164.322 68.41 163.886 68.41 163.343C68.41 162.895 68.5317 162.503 68.775 162.169C69.0183 161.834 69.3477 161.574 69.7634 161.389C70.179 161.202 70.6478 161.108 71.1699 161.108C71.697 161.108 72.1621 161.201 72.565 161.386C72.9705 161.571 73.2899 161.825 73.523 162.15C73.7562 162.472 73.8778 162.842 73.888 163.26H72.7551ZM75.3981 169V161.215H80.2792V162.226H76.5728V164.598H80.0245V165.605H76.5728V167.989H80.3248V169H75.3981ZM88.6111 165.107C88.6111 165.939 88.459 166.653 88.1549 167.251C87.8508 167.847 87.4339 168.306 86.9042 168.627C86.3771 168.947 85.7777 169.106 85.1061 169.106C84.432 169.106 83.8301 168.947 83.3004 168.627C82.7733 168.306 82.3577 167.846 82.0535 167.248C81.7494 166.649 81.5974 165.936 81.5974 165.107C81.5974 164.276 81.7494 163.563 82.0535 162.967C82.3577 162.369 82.7733 161.91 83.3004 161.591C83.8301 161.269 84.432 161.108 85.1061 161.108C85.7777 161.108 86.3771 161.269 86.9042 161.591C87.4339 161.91 87.8508 162.369 88.1549 162.967C88.459 163.563 88.6111 164.276 88.6111 165.107ZM87.4478 165.107C87.4478 164.474 87.3452 163.94 87.1399 163.507C86.9372 163.071 86.6584 162.741 86.3036 162.518C85.9513 162.293 85.5522 162.18 85.1061 162.18C84.6575 162.18 84.2571 162.293 83.9049 162.518C83.5526 162.741 83.2738 163.071 83.0685 163.507C82.8658 163.94 82.7644 164.474 82.7644 165.107C82.7644 165.741 82.8658 166.276 83.0685 166.712C83.2738 167.145 83.5526 167.474 83.9049 167.7C84.2571 167.923 84.6575 168.034 85.1061 168.034C85.5522 168.034 85.9513 167.923 86.3036 167.7C86.6584 167.474 86.9372 167.145 87.1399 166.712C87.3452 166.276 87.4478 165.741 87.4478 165.107Z" fill="#0F141F"/>
<path d="M169.267 162.48L164.72 167.028L162.653 164.961" stroke="#0F141F" stroke-width="0.8" stroke-linecap="round" stroke-linejoin="round"/>
<rect x="0.3" y="196.3" width="182.48" height="35.7779" rx="7.72872" fill="white" stroke="#0F141F" stroke-width="0.6"/>
<path d="M16.8553 218V210.215H18.03V213.932H18.125L21.3905 210.215H22.8693L19.7293 213.72L22.8807 218H21.4665L18.9499 214.522L18.03 215.578V218H16.8553ZM23.9641 218V210.215H26.7392C27.3449 210.215 27.8467 210.325 28.2446 210.545C28.6424 210.766 28.9402 211.067 29.1379 211.45C29.3356 211.83 29.4344 212.259 29.4344 212.735C29.4344 213.214 29.3343 213.645 29.1341 214.027C28.9364 214.408 28.6374 214.709 28.237 214.932C27.8391 215.153 27.3385 215.263 26.7354 215.263H24.827V214.267H26.6289C27.0116 214.267 27.3221 214.201 27.5603 214.069C27.7985 213.935 27.9734 213.752 28.0849 213.522C28.1964 213.291 28.2522 213.029 28.2522 212.735C28.2522 212.441 28.1964 212.18 28.0849 211.952C27.9734 211.724 27.7973 211.545 27.5565 211.416C27.3183 211.287 27.004 211.222 26.6137 211.222H25.1388V218H23.9641ZM31.9862 210.215V218H30.8115V210.215H31.9862ZM38.6245 218.114C38.1531 218.114 37.7324 217.994 37.3624 217.753C36.9949 217.51 36.706 217.164 36.4957 216.715C36.2879 216.264 36.1839 215.723 36.1839 215.092C36.1839 214.461 36.2891 213.921 36.4995 213.472C36.7124 213.024 37.0038 212.68 37.3738 212.442C37.7438 212.204 38.1633 212.085 38.6321 212.085C38.9945 212.085 39.286 212.146 39.5064 212.267C39.7295 212.386 39.9018 212.526 40.0234 212.686C40.1476 212.845 40.2439 212.986 40.3124 213.107H40.3808V210.215H41.5174V218H40.4074V217.091H40.3124C40.2439 217.216 40.1451 217.358 40.0158 217.517C39.8891 217.677 39.7143 217.816 39.4912 217.935C39.2682 218.054 38.9793 218.114 38.6245 218.114ZM38.8754 217.145C39.2023 217.145 39.4786 217.059 39.7041 216.886C39.9322 216.711 40.1045 216.469 40.2211 216.16C40.3402 215.851 40.3998 215.491 40.3998 215.08C40.3998 214.675 40.3415 214.32 40.2249 214.016C40.1083 213.712 39.9373 213.475 39.7117 213.305C39.4862 213.135 39.2074 213.05 38.8754 213.05C38.5333 213.05 38.2482 213.139 38.0201 213.317C37.792 213.494 37.6196 213.736 37.5031 214.043C37.389 214.349 37.332 214.695 37.332 215.08C37.332 215.471 37.3903 215.822 37.5069 216.133C37.6234 216.445 37.7958 216.692 38.0239 216.875C38.2545 217.055 38.5383 217.145 38.8754 217.145ZM45.6563 218.118C45.081 218.118 44.5855 217.995 44.1699 217.749C43.7568 217.501 43.4375 217.152 43.2119 216.704C42.9889 216.253 42.8774 215.724 42.8774 215.118C42.8774 214.52 42.9889 213.993 43.2119 213.537C43.4375 213.081 43.7517 212.725 44.1547 212.469C44.5602 212.213 45.0341 212.085 45.5765 212.085C45.9059 212.085 46.2252 212.139 46.5344 212.248C46.8436 212.357 47.1211 212.528 47.3669 212.762C47.6128 212.995 47.8067 213.298 47.9486 213.67C48.0905 214.04 48.1615 214.49 48.1615 215.02V215.423H43.5199V214.571H47.0476C47.0476 214.272 46.9868 214.007 46.8652 213.777C46.7435 213.543 46.5724 213.36 46.352 213.225C46.134 213.091 45.878 213.024 45.5841 213.024C45.2647 213.024 44.986 213.102 44.7477 213.26C44.512 213.414 44.3296 213.617 44.2003 213.868C44.0736 214.116 44.0102 214.386 44.0102 214.678V215.343C44.0102 215.733 44.0787 216.065 44.2155 216.339C44.3549 216.612 44.5488 216.822 44.7971 216.966C45.0455 217.108 45.3357 217.179 45.6677 217.179C45.8831 217.179 46.0795 217.148 46.2569 217.088C46.4343 217.024 46.5876 216.931 46.7169 216.806C46.8461 216.682 46.945 216.529 47.0134 216.346L48.0892 216.54C48.0031 216.857 47.8485 217.135 47.6254 217.373C47.405 217.608 47.1275 217.792 46.7929 217.924C46.4609 218.053 46.082 218.118 45.6563 218.118ZM52.2015 212.161V213.073H48.9018V212.161H52.2015ZM49.8065 218V211.484C49.8065 211.119 49.8864 210.816 50.046 210.576C50.2057 210.332 50.4173 210.151 50.6809 210.032C50.9445 209.91 51.2308 209.85 51.54 209.85C51.7681 209.85 51.9633 209.869 52.1254 209.907C52.2876 209.942 52.408 209.975 52.4866 210.005L52.2205 210.925C52.1673 210.91 52.0988 210.893 52.0152 210.872C51.9316 210.849 51.8302 210.838 51.7111 210.838C51.4348 210.838 51.2372 210.906 51.1181 211.043C51.0015 211.18 50.9432 211.378 50.9432 211.636V218H49.8065ZM53.3742 218V212.161H54.5109V218H53.3742ZM53.9483 211.26C53.7506 211.26 53.5808 211.194 53.4389 211.062C53.2995 210.928 53.2298 210.768 53.2298 210.583C53.2298 210.396 53.2995 210.236 53.4389 210.104C53.5808 209.97 53.7506 209.903 53.9483 209.903C54.1459 209.903 54.3145 209.97 54.4539 210.104C54.5958 210.236 54.6667 210.396 54.6667 210.583C54.6667 210.768 54.5958 210.928 54.4539 211.062C54.3145 211.194 54.1459 211.26 53.9483 211.26ZM57.1767 214.533V218H56.04V212.161H57.131V213.111H57.2033C57.3376 212.802 57.5479 212.554 57.8343 212.366C58.1232 212.179 58.4869 212.085 58.9253 212.085C59.3232 212.085 59.6717 212.169 59.9708 212.336C60.2698 212.501 60.5017 212.746 60.6664 213.073C60.8312 213.4 60.9135 213.804 60.9135 214.286V218H59.7769V214.423C59.7769 214 59.6666 213.669 59.4461 213.431C59.2257 213.19 58.9228 213.069 58.5376 213.069C58.274 213.069 58.0396 213.127 57.8343 213.241C57.6316 213.355 57.4706 213.522 57.3515 213.742C57.235 213.96 57.1767 214.224 57.1767 214.533ZM62.4379 218V212.161H63.5745V218H62.4379ZM63.0119 211.26C62.8143 211.26 62.6445 211.194 62.5025 211.062C62.3631 210.928 62.2935 210.768 62.2935 210.583C62.2935 210.396 62.3631 210.236 62.5025 210.104C62.6445 209.97 62.8143 209.903 63.0119 209.903C63.2096 209.903 63.3781 209.97 63.5175 210.104C63.6594 210.236 63.7304 210.396 63.7304 210.583C63.7304 210.768 63.6594 210.928 63.5175 211.062C63.3781 211.194 63.2096 211.26 63.0119 211.26ZM66.2403 214.533V218H65.1037V212.161H66.1947V213.111H66.2669C66.4013 212.802 66.6116 212.554 66.898 212.366C67.1869 212.179 67.5506 212.085 67.989 212.085C68.3869 212.085 68.7354 212.169 69.0344 212.336C69.3335 212.501 69.5654 212.746 69.7301 213.073C69.8948 213.4 69.9772 213.804 69.9772 214.286V218H68.8405V214.423C68.8405 214 68.7303 213.669 68.5098 213.431C68.2893 213.19 67.9865 213.069 67.6013 213.069C67.3377 213.069 67.1033 213.127 66.898 213.241C66.6952 213.355 66.5343 213.522 66.4152 213.742C66.2986 213.96 66.2403 214.224 66.2403 214.533ZM73.9497 220.311C73.486 220.311 73.0868 220.25 72.7523 220.129C72.4203 220.007 72.1491 219.846 71.9388 219.646C71.7284 219.446 71.5713 219.227 71.4674 218.988L72.4443 218.585C72.5128 218.697 72.604 218.815 72.7181 218.939C72.8346 219.066 72.9918 219.173 73.1894 219.262C73.3896 219.351 73.6469 219.395 73.9611 219.395C74.392 219.395 74.748 219.29 75.0294 219.08C75.3107 218.872 75.4513 218.54 75.4513 218.084V216.936H75.3791C75.3107 217.06 75.2118 217.198 75.0826 217.35C74.9559 217.502 74.781 217.634 74.558 217.745C74.3349 217.857 74.0448 217.913 73.6874 217.913C73.2262 217.913 72.8106 217.805 72.4405 217.589C72.0731 217.371 71.7816 217.051 71.5662 216.628C71.3533 216.202 71.2469 215.679 71.2469 215.058C71.2469 214.437 71.3521 213.905 71.5624 213.461C71.7753 213.018 72.0667 212.678 72.4367 212.442C72.8068 212.204 73.2262 212.085 73.695 212.085C74.0574 212.085 74.3502 212.146 74.5732 212.267C74.7962 212.386 74.9698 212.526 75.094 212.686C75.2207 212.845 75.3183 212.986 75.3867 213.107H75.4703V212.161H76.5842V218.129C76.5842 218.631 76.4676 219.043 76.2344 219.365C76.0013 219.687 75.6857 219.925 75.2879 220.079C74.8925 220.234 74.4465 220.311 73.9497 220.311ZM73.9383 216.97C74.2653 216.97 74.5415 216.894 74.7671 216.742C74.9951 216.587 75.1675 216.367 75.2841 216.08C75.4032 215.791 75.4627 215.445 75.4627 215.042C75.4627 214.65 75.4044 214.304 75.2879 214.005C75.1713 213.706 75.0002 213.472 74.7747 213.305C74.5491 213.135 74.2703 213.05 73.9383 213.05C73.5962 213.05 73.3111 213.139 73.083 213.317C72.8549 213.491 72.6826 213.73 72.566 214.031C72.452 214.333 72.3949 214.67 72.3949 215.042C72.3949 215.425 72.4532 215.761 72.5698 216.05C72.6864 216.339 72.8587 216.564 73.0868 216.727C73.3174 216.889 73.6013 216.97 73.9383 216.97Z" fill="#0F141F"/>
<path d="M169.267 211.48L164.72 216.028L162.653 213.961" stroke="#0F141F" stroke-width="0.8" stroke-linecap="round" stroke-linejoin="round"/>
<rect x="0.3" y="245.3" width="182.48" height="35.7779" rx="7.72872" fill="white" stroke="#0F141F" stroke-width="0.6"/>
<path d="M19.3757 267H16.8553V259.215H19.4555C20.2184 259.215 20.8735 259.37 21.4209 259.682C21.9683 259.991 22.3878 260.436 22.6792 261.016C22.9732 261.594 23.1202 262.287 23.1202 263.096C23.1202 263.907 22.9719 264.604 22.6754 265.187C22.3814 265.77 21.9556 266.218 21.3981 266.532C20.8405 266.844 20.1664 267 19.3757 267ZM18.03 265.974H19.3111C19.9041 265.974 20.397 265.862 20.7899 265.639C21.1827 265.414 21.4767 265.088 21.6718 264.662C21.8669 264.234 21.9645 263.712 21.9645 263.096C21.9645 262.485 21.8669 261.967 21.6718 261.541C21.4792 261.115 21.1916 260.792 20.8089 260.572C20.4262 260.351 19.951 260.241 19.3833 260.241H18.03V265.974ZM26.1889 267.129C25.8189 267.129 25.4844 267.061 25.1853 266.924C24.8863 266.785 24.6493 266.583 24.4744 266.32C24.3021 266.056 24.2159 265.733 24.2159 265.35C24.2159 265.021 24.2793 264.75 24.406 264.537C24.5327 264.324 24.7038 264.155 24.9192 264.031C25.1346 263.907 25.3754 263.813 25.6415 263.75C25.9076 263.686 26.1788 263.638 26.455 263.605C26.8048 263.565 27.0886 263.532 27.3065 263.506C27.5245 263.479 27.6829 263.434 27.7817 263.373C27.8806 263.313 27.93 263.214 27.93 263.077V263.05C27.93 262.718 27.8362 262.461 27.6487 262.279C27.4637 262.096 27.1874 262.005 26.82 262.005C26.4373 262.005 26.1357 262.09 25.9152 262.26C25.6973 262.427 25.5465 262.613 25.4628 262.818L24.3946 262.575C24.5213 262.22 24.7063 261.934 24.9496 261.716C25.1955 261.495 25.478 261.336 25.7974 261.237C26.1167 261.136 26.4525 261.085 26.8048 261.085C27.0379 261.085 27.285 261.113 27.546 261.169C27.8096 261.222 28.0554 261.321 28.2835 261.465C28.5141 261.61 28.703 261.816 28.8499 262.085C28.9969 262.351 29.0704 262.697 29.0704 263.122V267H27.9604V266.202H27.9148C27.8413 266.349 27.731 266.493 27.5841 266.635C27.4371 266.777 27.2483 266.895 27.0176 266.989C26.787 267.082 26.5108 267.129 26.1889 267.129ZM26.436 266.217C26.7503 266.217 27.0189 266.155 27.2419 266.031C27.4675 265.906 27.6385 265.744 27.7551 265.544C27.8742 265.341 27.9338 265.125 27.9338 264.894V264.141C27.8932 264.182 27.8147 264.22 27.6981 264.255C27.5841 264.288 27.4535 264.317 27.3065 264.343C27.1596 264.366 27.0164 264.387 26.877 264.407C26.7376 264.425 26.621 264.44 26.5272 264.453C26.3068 264.481 26.1053 264.528 25.9228 264.594C25.7429 264.66 25.5984 264.755 25.4894 264.879C25.383 265 25.3298 265.163 25.3298 265.365C25.3298 265.647 25.4337 265.86 25.6415 266.004C25.8493 266.146 26.1141 266.217 26.436 266.217ZM33.31 261.161V262.073H30.1206V261.161H33.31ZM30.9759 259.762H32.1126V265.286C32.1126 265.506 32.1455 265.672 32.2114 265.784C32.2773 265.893 32.3622 265.967 32.4661 266.008C32.5725 266.046 32.6879 266.065 32.812 266.065C32.9033 266.065 32.9831 266.059 33.0515 266.046C33.12 266.033 33.1732 266.023 33.2112 266.015L33.4165 266.954C33.3506 266.98 33.2568 267.005 33.1352 267.03C33.0135 267.058 32.8615 267.073 32.679 267.076C32.3799 267.081 32.1012 267.028 31.8427 266.916C31.5842 266.805 31.3751 266.633 31.2154 266.399C31.0558 266.166 30.9759 265.873 30.9759 265.521V259.762ZM36.2666 267.129C35.8966 267.129 35.5621 267.061 35.263 266.924C34.964 266.785 34.727 266.583 34.5522 266.32C34.3798 266.056 34.2937 265.733 34.2937 265.35C34.2937 265.021 34.357 264.75 34.4837 264.537C34.6105 264.324 34.7815 264.155 34.9969 264.031C35.2124 263.907 35.4531 263.813 35.7192 263.75C35.9853 263.686 36.2565 263.638 36.5327 263.605C36.8825 263.565 37.1663 263.532 37.3843 263.506C37.6022 263.479 37.7606 263.434 37.8594 263.373C37.9583 263.313 38.0077 263.214 38.0077 263.077V263.05C38.0077 262.718 37.9139 262.461 37.7264 262.279C37.5414 262.096 37.2652 262.005 36.8977 262.005C36.515 262.005 36.2134 262.09 35.9929 262.26C35.775 262.427 35.6242 262.613 35.5405 262.818L34.4723 262.575C34.599 262.22 34.7841 261.934 35.0273 261.716C35.2732 261.495 35.5558 261.336 35.8751 261.237C36.1944 261.136 36.5302 261.085 36.8825 261.085C37.1156 261.085 37.3627 261.113 37.6238 261.169C37.8873 261.222 38.1332 261.321 38.3612 261.465C38.5919 261.61 38.7807 261.816 38.9277 262.085C39.0747 262.351 39.1482 262.697 39.1482 263.122V267H38.0381V266.202H37.9925C37.919 266.349 37.8088 266.493 37.6618 266.635C37.5148 266.777 37.326 266.895 37.0954 266.989C36.8647 267.082 36.5885 267.129 36.2666 267.129ZM36.5137 266.217C36.828 266.217 37.0966 266.155 37.3196 266.031C37.5452 265.906 37.7163 265.744 37.8328 265.544C37.952 265.341 38.0115 265.125 38.0115 264.894V264.141C37.971 264.182 37.8924 264.22 37.7758 264.255C37.6618 264.288 37.5313 264.317 37.3843 264.343C37.2373 264.366 37.0941 264.387 36.9547 264.407C36.8153 264.425 36.6987 264.44 36.605 264.453C36.3845 264.481 36.183 264.528 36.0005 264.594C35.8206 264.66 35.6761 264.755 35.5672 264.879C35.4607 265 35.4075 265.163 35.4075 265.365C35.4075 265.647 35.5114 265.86 35.7192 266.004C35.927 266.146 36.1919 266.217 36.5137 266.217ZM46.2208 261.161V262.073H43.0314V261.161H46.2208ZM43.8867 259.762H45.0233V265.286C45.0233 265.506 45.0563 265.672 45.1222 265.784C45.1881 265.893 45.273 265.967 45.3769 266.008C45.4833 266.046 45.5986 266.065 45.7228 266.065C45.814 266.065 45.8939 266.059 45.9623 266.046C46.0307 266.033 46.0839 266.023 46.122 266.015L46.3272 266.954C46.2614 266.98 46.1676 267.005 46.0459 267.03C45.9243 267.058 45.7722 267.073 45.5898 267.076C45.2907 267.081 45.0119 267.028 44.7534 266.916C44.4949 266.805 44.2858 266.633 44.1262 266.399C43.9665 266.166 43.8867 265.873 43.8867 265.521V259.762ZM47.4781 267V261.161H48.5768V262.088H48.6376C48.744 261.774 48.9316 261.527 49.2002 261.347C49.4714 261.165 49.778 261.073 50.1202 261.073C50.1911 261.073 50.2748 261.076 50.3711 261.081C50.4699 261.086 50.5472 261.093 50.603 261.1V262.187C50.5573 262.175 50.4762 262.161 50.3597 262.146C50.2431 262.128 50.1265 262.119 50.0099 262.119C49.7413 262.119 49.5018 262.176 49.2914 262.29C49.0836 262.401 48.9189 262.557 48.7973 262.758C48.6756 262.955 48.6148 263.181 48.6148 263.434V267H47.4781ZM53.2336 267.129C52.8636 267.129 52.529 267.061 52.23 266.924C51.9309 266.785 51.694 266.583 51.5191 266.32C51.3468 266.056 51.2606 265.733 51.2606 265.35C51.2606 265.021 51.324 264.75 51.4507 264.537C51.5774 264.324 51.7485 264.155 51.9639 264.031C52.1793 263.907 52.4201 263.813 52.6862 263.75C52.9523 263.686 53.2234 263.638 53.4997 263.605C53.8494 263.565 54.1333 263.532 54.3512 263.506C54.5692 263.479 54.7276 263.434 54.8264 263.373C54.9252 263.313 54.9747 263.214 54.9747 263.077V263.05C54.9747 262.718 54.8809 262.461 54.6933 262.279C54.5083 262.096 54.2321 262.005 53.8646 262.005C53.4819 262.005 53.1804 262.09 52.9599 262.26C52.7419 262.427 52.5911 262.613 52.5075 262.818L51.4393 262.575C51.566 262.22 51.751 261.934 51.9943 261.716C52.2401 261.495 52.5227 261.336 52.842 261.237C53.1614 261.136 53.4971 261.085 53.8494 261.085C54.0826 261.085 54.3297 261.113 54.5907 261.169C54.8543 261.222 55.1001 261.321 55.3282 261.465C55.5588 261.61 55.7476 261.816 55.8946 262.085C56.0416 262.351 56.1151 262.697 56.1151 263.122V267H55.0051V266.202H54.9595C54.886 266.349 54.7757 266.493 54.6287 266.635C54.4817 266.777 54.2929 266.895 54.0623 266.989C53.8317 267.082 53.5554 267.129 53.2336 267.129ZM53.4807 266.217C53.7949 266.217 54.0636 266.155 54.2866 266.031C54.5121 265.906 54.6832 265.744 54.7998 265.544C54.9189 265.341 54.9785 265.125 54.9785 264.894V264.141C54.9379 264.182 54.8593 264.22 54.7428 264.255C54.6287 264.288 54.4982 264.317 54.3512 264.343C54.2042 264.366 54.061 264.387 53.9216 264.407C53.7823 264.425 53.6657 264.44 53.5719 264.453C53.3514 264.481 53.1499 264.528 52.9675 264.594C52.7875 264.66 52.6431 264.755 52.5341 264.879C52.4277 265 52.3744 265.163 52.3744 265.365C52.3744 265.647 52.4784 265.86 52.6862 266.004C52.894 266.146 53.1588 266.217 53.4807 266.217ZM60.0886 267.118C59.5234 267.118 59.0369 266.99 58.6288 266.734C58.2233 266.475 57.9116 266.119 57.6937 265.666C57.4757 265.212 57.3667 264.693 57.3667 264.107C57.3667 263.514 57.4782 262.991 57.7013 262.537C57.9243 262.081 58.2385 261.725 58.644 261.469C59.0495 261.213 59.5272 261.085 60.0772 261.085C60.5207 261.085 60.916 261.167 61.2633 261.332C61.6105 261.494 61.8905 261.722 62.1034 262.016C62.3188 262.31 62.4468 262.654 62.4873 263.046H61.3811C61.3203 262.773 61.1809 262.537 60.9629 262.339C60.7475 262.142 60.4586 262.043 60.0962 262.043C59.7794 262.043 59.5019 262.127 59.2637 262.294C59.028 262.459 58.8442 262.694 58.7125 263.001C58.5807 263.305 58.5148 263.665 58.5148 264.08C58.5148 264.506 58.5794 264.874 58.7087 265.183C58.8379 265.492 59.0204 265.732 59.2561 265.901C59.4943 266.071 59.7743 266.156 60.0962 266.156C60.3116 266.156 60.5068 266.117 60.6816 266.038C60.859 265.957 61.0073 265.842 61.1264 265.692C61.248 265.543 61.3329 265.363 61.3811 265.152H62.4873C62.4468 265.53 62.3239 265.867 62.1186 266.164C61.9133 266.46 61.6383 266.693 61.2937 266.863C60.9515 267.033 60.5498 267.118 60.0886 267.118ZM64.7483 265.019L64.7407 263.632H64.9383L67.2648 261.161H68.6258L65.9723 263.974H65.7937L64.7483 265.019ZM63.7028 267V259.215H64.8395V267H63.7028ZM67.3903 267L65.2995 264.225L66.0826 263.43L68.7854 267H67.3903ZM69.6617 267V261.161H70.7983V267H69.6617ZM70.2357 260.26C70.038 260.26 69.8682 260.194 69.7263 260.062C69.5869 259.928 69.5172 259.768 69.5172 259.583C69.5172 259.396 69.5869 259.236 69.7263 259.104C69.8682 258.97 70.038 258.903 70.2357 258.903C70.4334 258.903 70.6019 258.97 70.7413 259.104C70.8832 259.236 70.9542 259.396 70.9542 259.583C70.9542 259.768 70.8832 259.928 70.7413 260.062C70.6019 260.194 70.4334 260.26 70.2357 260.26ZM73.4641 263.533V267H72.3275V261.161H73.4185V262.111H73.4907C73.625 261.802 73.8354 261.554 74.1217 261.366C74.4107 261.179 74.7743 261.085 75.2128 261.085C75.6107 261.085 75.9591 261.169 76.2582 261.336C76.5572 261.501 76.7891 261.746 76.9539 262.073C77.1186 262.4 77.2009 262.804 77.2009 263.286V267H76.0643V263.423C76.0643 263 75.9541 262.669 75.7336 262.431C75.5131 262.19 75.2102 262.069 74.825 262.069C74.5615 262.069 74.327 262.127 74.1217 262.241C73.919 262.355 73.7581 262.522 73.639 262.742C73.5224 262.96 73.4641 263.224 73.4641 263.533ZM81.1735 269.311C80.7097 269.311 80.3106 269.25 79.976 269.129C79.644 269.007 79.3729 268.846 79.1625 268.646C78.9522 268.446 78.795 268.227 78.6911 267.988L79.6681 267.585C79.7365 267.697 79.8278 267.815 79.9418 267.939C80.0584 268.066 80.2155 268.173 80.4132 268.262C80.6134 268.351 80.8706 268.395 81.1849 268.395C81.6157 268.395 81.9718 268.29 82.2531 268.08C82.5344 267.872 82.6751 267.54 82.6751 267.084V265.936H82.6028C82.5344 266.06 82.4356 266.198 82.3063 266.35C82.1796 266.502 82.0047 266.634 81.7817 266.745C81.5587 266.857 81.2685 266.913 80.9112 266.913C80.4499 266.913 80.0343 266.805 79.6643 266.589C79.2968 266.371 79.0054 266.051 78.79 265.628C78.5771 265.202 78.4706 264.679 78.4706 264.058C78.4706 263.437 78.5758 262.905 78.7862 262.461C78.999 262.018 79.2905 261.678 79.6605 261.442C80.0305 261.204 80.4499 261.085 80.9188 261.085C81.2812 261.085 81.5739 261.146 81.7969 261.267C82.02 261.386 82.1936 261.526 82.3177 261.686C82.4445 261.845 82.542 261.986 82.6105 262.107H82.6941V261.161H83.8079V267.129C83.8079 267.631 83.6913 268.043 83.4582 268.365C83.225 268.687 82.9095 268.925 82.5116 269.079C82.1163 269.234 81.6702 269.311 81.1735 269.311ZM81.1621 265.97C81.489 265.97 81.7653 265.894 81.9908 265.742C82.2189 265.587 82.3912 265.367 82.5078 265.08C82.6269 264.791 82.6865 264.445 82.6865 264.042C82.6865 263.65 82.6282 263.304 82.5116 263.005C82.395 262.706 82.224 262.472 81.9984 262.305C81.7729 262.135 81.4941 262.05 81.1621 262.05C80.82 262.05 80.5348 262.139 80.3068 262.317C80.0787 262.491 79.9063 262.73 79.7898 263.031C79.6757 263.333 79.6187 263.67 79.6187 264.042C79.6187 264.425 79.677 264.761 79.7936 265.05C79.9101 265.339 80.0825 265.564 80.3106 265.727C80.5412 265.889 80.825 265.97 81.1621 265.97Z" fill="#0F141F"/>
<path d="M169.267 260.48L164.72 265.028L162.653 262.961" stroke="#0F141F" stroke-width="0.8" stroke-linecap="round" stroke-linejoin="round"/>
<path d="M187.009 18H252C260.837 18 268 25.1634 268 34V247C268 255.837 260.837 263 252 263H183" stroke="#0F141F" stroke-width="0.6" stroke-linecap="round" stroke-dasharray="5.76 5.76"/>
<path d="M267.678 136.4C265.511 136.4 263.755 138.156 263.755 140.322C263.755 142.488 265.511 144.245 267.678 144.245C269.844 144.245 271.6 142.488 271.6 140.322C271.6 138.156 269.844 136.4 267.678 136.4Z" fill="white" stroke="#0F141F" stroke-width="0.8"/>
<path d="M352.474 104.3L352.474 173.7L409.698 173.7L409.344 125.712L392.009 104.3L352.474 104.3Z" fill="white" stroke="#0F141F" stroke-width="0.6" stroke-linejoin="round"/>
<mask id="path-27-inside-1_1918_13686" fill="white">
<path fill-rule="evenodd" clip-rule="evenodd" d="M368.982 143.503C369.17 143.279 369.277 142.999 369.287 142.707V139.517C369.277 139.225 369.17 138.945 368.982 138.722C368.794 138.498 368.536 138.345 368.25 138.285L365.632 137.834C365.549 137.819 365.464 137.815 365.38 137.822C365.073 136.634 364.6 135.494 363.975 134.438C364.04 134.382 364.099 134.319 364.148 134.249L365.679 132.078C365.84 131.834 365.913 131.544 365.889 131.252C365.864 130.961 365.741 130.687 365.541 130.474L363.282 128.215C363.069 128.015 362.795 127.892 362.504 127.868C362.213 127.843 361.922 127.917 361.678 128.077L359.508 129.608C359.438 129.657 359.374 129.715 359.319 129.781C358.263 129.156 357.123 128.684 355.935 128.377C355.942 128.292 355.938 128.207 355.924 128.124L355.472 125.506C355.413 125.219 355.26 124.961 355.036 124.773C354.813 124.585 354.532 124.478 354.24 124.469H351.046C350.754 124.478 350.474 124.585 350.251 124.773C350.027 124.961 349.874 125.219 349.815 125.506L349.363 128.124C349.348 128.207 349.344 128.292 349.352 128.377C348.163 128.683 347.024 129.156 345.967 129.781C345.912 129.715 345.849 129.657 345.779 129.608L343.608 128.077C343.364 127.916 343.073 127.842 342.782 127.867C342.49 127.892 342.216 128.015 342.003 128.215L339.743 130.474C339.544 130.688 339.422 130.962 339.398 131.253C339.373 131.544 339.447 131.835 339.608 132.078L341.139 134.249C341.188 134.319 341.245 134.382 341.309 134.438C340.686 135.495 340.214 136.634 339.907 137.822C339.823 137.815 339.738 137.819 339.655 137.834L337.037 138.285C336.75 138.344 336.492 138.498 336.304 138.721C336.116 138.945 336.009 139.225 336 139.517V142.707C336.009 142.999 336.116 143.28 336.304 143.503C336.492 143.727 336.75 143.88 337.037 143.939L339.655 144.391C339.738 144.406 339.823 144.41 339.907 144.404C340.213 145.593 340.685 146.732 341.309 147.789C341.245 147.844 341.187 147.908 341.139 147.977L339.608 150.148C339.448 150.392 339.374 150.682 339.398 150.973C339.423 151.263 339.544 151.537 339.743 151.75L342.003 154.01C342.216 154.21 342.49 154.333 342.782 154.358C343.073 154.383 343.365 154.308 343.608 154.147L345.779 152.616C345.849 152.568 345.912 152.51 345.967 152.446C347.035 153.076 348.186 153.551 349.387 153.857C349.364 153.985 349.364 154.116 349.387 154.244L349.791 156.577C349.858 156.903 350.033 157.196 350.287 157.41C350.541 157.624 350.86 157.746 351.193 157.756H354.094C354.426 157.746 354.746 157.624 355 157.41C355.254 157.196 355.429 156.903 355.496 156.577L355.899 154.244C355.922 154.116 355.922 153.985 355.899 153.857C357.101 153.551 358.252 153.076 359.319 152.446C359.374 152.511 359.438 152.569 359.508 152.618L361.678 154.147C361.922 154.308 362.213 154.382 362.504 154.358C362.795 154.333 363.069 154.211 363.282 154.012L365.541 151.752C365.742 151.539 365.864 151.265 365.889 150.973C365.914 150.682 365.84 150.39 365.679 150.146L364.148 147.975C364.099 147.906 364.041 147.844 363.975 147.789C364.6 146.732 365.073 145.593 365.38 144.404C365.464 144.41 365.549 144.406 365.632 144.391L368.25 143.939C368.536 143.88 368.794 143.726 368.982 143.503Z"/>
</mask>
<path fill-rule="evenodd" clip-rule="evenodd" d="M368.982 143.503C369.17 143.279 369.277 142.999 369.287 142.707V139.517C369.277 139.225 369.17 138.945 368.982 138.722C368.794 138.498 368.536 138.345 368.25 138.285L365.632 137.834C365.549 137.819 365.464 137.815 365.38 137.822C365.073 136.634 364.6 135.494 363.975 134.438C364.04 134.382 364.099 134.319 364.148 134.249L365.679 132.078C365.84 131.834 365.913 131.544 365.889 131.252C365.864 130.961 365.741 130.687 365.541 130.474L363.282 128.215C363.069 128.015 362.795 127.892 362.504 127.868C362.213 127.843 361.922 127.917 361.678 128.077L359.508 129.608C359.438 129.657 359.374 129.715 359.319 129.781C358.263 129.156 357.123 128.684 355.935 128.377C355.942 128.292 355.938 128.207 355.924 128.124L355.472 125.506C355.413 125.219 355.26 124.961 355.036 124.773C354.813 124.585 354.532 124.478 354.24 124.469H351.046C350.754 124.478 350.474 124.585 350.251 124.773C350.027 124.961 349.874 125.219 349.815 125.506L349.363 128.124C349.348 128.207 349.344 128.292 349.352 128.377C348.163 128.683 347.024 129.156 345.967 129.781C345.912 129.715 345.849 129.657 345.779 129.608L343.608 128.077C343.364 127.916 343.073 127.842 342.782 127.867C342.49 127.892 342.216 128.015 342.003 128.215L339.743 130.474C339.544 130.688 339.422 130.962 339.398 131.253C339.373 131.544 339.447 131.835 339.608 132.078L341.139 134.249C341.188 134.319 341.245 134.382 341.309 134.438C340.686 135.495 340.214 136.634 339.907 137.822C339.823 137.815 339.738 137.819 339.655 137.834L337.037 138.285C336.75 138.344 336.492 138.498 336.304 138.721C336.116 138.945 336.009 139.225 336 139.517V142.707C336.009 142.999 336.116 143.28 336.304 143.503C336.492 143.727 336.75 143.88 337.037 143.939L339.655 144.391C339.738 144.406 339.823 144.41 339.907 144.404C340.213 145.593 340.685 146.732 341.309 147.789C341.245 147.844 341.187 147.908 341.139 147.977L339.608 150.148C339.448 150.392 339.374 150.682 339.398 150.973C339.423 151.263 339.544 151.537 339.743 151.75L342.003 154.01C342.216 154.21 342.49 154.333 342.782 154.358C343.073 154.383 343.365 154.308 343.608 154.147L345.779 152.616C345.849 152.568 345.912 152.51 345.967 152.446C347.035 153.076 348.186 153.551 349.387 153.857C349.364 153.985 349.364 154.116 349.387 154.244L349.791 156.577C349.858 156.903 350.033 157.196 350.287 157.41C350.541 157.624 350.86 157.746 351.193 157.756H354.094C354.426 157.746 354.746 157.624 355 157.41C355.254 157.196 355.429 156.903 355.496 156.577L355.899 154.244C355.922 154.116 355.922 153.985 355.899 153.857C357.101 153.551 358.252 153.076 359.319 152.446C359.374 152.511 359.438 152.569 359.508 152.618L361.678 154.147C361.922 154.308 362.213 154.382 362.504 154.358C362.795 154.333 363.069 154.211 363.282 154.012L365.541 151.752C365.742 151.539 365.864 151.265 365.889 150.973C365.914 150.682 365.84 150.39 365.679 150.146L364.148 147.975C364.099 147.906 364.041 147.844 363.975 147.789C364.6 146.732 365.073 145.593 365.38 144.404C365.464 144.41 365.549 144.406 365.632 144.391L368.25 143.939C368.536 143.88 368.794 143.726 368.982 143.503Z" fill="white"/>
<path d="M369.287 142.707L369.887 142.726L369.887 142.717V142.707H369.287ZM368.982 143.503L369.441 143.889V143.889L368.982 143.503ZM369.287 139.517H369.887V139.508L369.887 139.498L369.287 139.517ZM368.982 138.722L369.441 138.335V138.335L368.982 138.722ZM368.25 138.285L368.372 137.698L368.362 137.696L368.352 137.694L368.25 138.285ZM365.632 137.834L365.527 138.424L365.53 138.425L365.632 137.834ZM365.38 137.822L364.799 137.972L364.926 138.465L365.432 138.42L365.38 137.822ZM363.975 134.438L363.587 133.98L363.202 134.308L363.459 134.743L363.975 134.438ZM364.148 134.249L364.637 134.597L364.638 134.595L364.148 134.249ZM365.679 132.078L366.169 132.424L366.174 132.416L366.179 132.409L365.679 132.078ZM365.889 131.252L366.486 131.201V131.201L365.889 131.252ZM365.541 130.474L365.979 130.064L365.972 130.057L365.966 130.05L365.541 130.474ZM363.282 128.215L363.706 127.791L363.7 127.784L363.693 127.778L363.282 128.215ZM362.504 127.868L362.555 127.27L362.504 127.868ZM361.678 128.077L361.348 127.577L361.34 127.582L361.333 127.587L361.678 128.077ZM359.508 129.608L359.853 130.099L359.853 130.099L359.508 129.608ZM359.319 129.781L359.014 130.298L359.452 130.556L359.779 130.167L359.319 129.781ZM355.935 128.377L355.337 128.326L355.295 128.831L355.785 128.957L355.935 128.377ZM355.924 128.124L355.333 128.226L355.333 128.226L355.924 128.124ZM355.472 125.506L356.063 125.403L356.062 125.394L356.06 125.385L355.472 125.506ZM355.036 124.773L355.423 124.314L355.423 124.314L355.036 124.773ZM354.24 124.469L354.259 123.869L354.25 123.869H354.24V124.469ZM351.046 124.469V123.869H351.037L351.028 123.869L351.046 124.469ZM350.251 124.773L350.637 125.232L350.251 124.773ZM349.815 125.506L349.227 125.385L349.225 125.394L349.224 125.403L349.815 125.506ZM349.363 128.124L349.954 128.229L349.954 128.226L349.363 128.124ZM349.352 128.377L349.502 128.957L349.994 128.83L349.95 128.324L349.352 128.377ZM345.967 129.781L345.508 130.167L345.835 130.556L346.273 130.297L345.967 129.781ZM345.779 129.608L345.433 130.099L345.434 130.099L345.779 129.608ZM343.608 128.077L343.954 127.587L343.947 127.582L343.939 127.577L343.608 128.077ZM342.003 128.215L341.592 127.777L341.585 127.784L341.578 127.791L342.003 128.215ZM339.743 130.474L339.319 130.05L339.312 130.057L339.305 130.065L339.743 130.474ZM339.398 131.253L338.8 131.203V131.203L339.398 131.253ZM339.608 132.078L339.107 132.409L339.112 132.416L339.118 132.424L339.608 132.078ZM341.139 134.249L341.63 133.904L341.629 133.904L341.139 134.249ZM341.309 134.438L341.826 134.742L342.081 134.31L341.701 133.983L341.309 134.438ZM339.907 137.822L339.855 138.42L340.361 138.464L340.488 137.972L339.907 137.822ZM339.655 137.834L339.757 138.425L339.759 138.424L339.655 137.834ZM337.037 138.285L336.935 137.694L336.925 137.696L336.916 137.698L337.037 138.285ZM336.304 138.721L336.763 139.108L336.763 139.108L336.304 138.721ZM336 139.517L335.4 139.499L335.4 139.508V139.517H336ZM336 142.707H335.4V142.716L335.4 142.726L336 142.707ZM336.304 143.503L335.845 143.89L335.845 143.89L336.304 143.503ZM337.037 143.939L336.916 144.527L336.925 144.529L336.935 144.53L337.037 143.939ZM339.655 144.391L339.759 143.8L339.757 143.8L339.655 144.391ZM339.907 144.404L340.488 144.254L340.364 143.771L339.865 143.806L339.907 144.404ZM341.309 147.789L341.7 148.245L342.082 147.917L341.826 147.484L341.309 147.789ZM341.139 147.977L341.629 148.323L341.631 148.321L341.139 147.977ZM339.608 150.148L339.118 149.803L339.113 149.81L339.107 149.818L339.608 150.148ZM339.743 151.75L339.305 152.16L339.312 152.167L339.319 152.174L339.743 151.75ZM342.003 154.01L341.578 154.434L341.585 154.44L341.591 154.446L342.003 154.01ZM342.782 154.358L342.833 153.76L342.833 153.76L342.782 154.358ZM343.608 154.147L343.94 154.647L343.947 154.642L343.954 154.637L343.608 154.147ZM345.779 152.616L345.437 152.123L345.433 152.126L345.779 152.616ZM345.967 152.446L346.272 151.929L345.838 151.672L345.511 152.057L345.967 152.446ZM349.387 153.857L349.978 153.963L350.077 153.413L349.536 153.275L349.387 153.857ZM349.387 154.244L349.979 154.142L349.978 154.138L349.387 154.244ZM349.791 156.577L349.199 156.679L349.201 156.689L349.203 156.698L349.791 156.577ZM350.287 157.41L350.673 156.951L350.673 156.951L350.287 157.41ZM351.193 157.756L351.174 158.355L351.183 158.356H351.193V157.756ZM354.094 157.756V158.356H354.103L354.112 158.355L354.094 157.756ZM355 157.41L354.614 156.951L354.614 156.951L355 157.41ZM355.496 156.577L356.084 156.698L356.086 156.689L356.088 156.679L355.496 156.577ZM355.899 154.244L355.309 154.14L355.308 154.142L355.899 154.244ZM355.899 153.857L355.751 153.275L355.212 153.413L355.309 153.961L355.899 153.857ZM359.319 152.446L359.779 152.06L359.452 151.67L359.014 151.929L359.319 152.446ZM359.508 152.618L359.853 152.128L359.853 152.127L359.508 152.618ZM361.678 154.147L361.333 154.637L361.34 154.642L361.347 154.647L361.678 154.147ZM362.504 154.358L362.453 153.76L362.504 154.358ZM363.282 154.012L363.692 154.45L363.699 154.443L363.706 154.436L363.282 154.012ZM365.541 151.752L365.966 152.176L365.972 152.17L365.978 152.163L365.541 151.752ZM365.679 150.146L366.179 149.815L366.174 149.808L366.169 149.8L365.679 150.146ZM364.148 147.975L364.638 147.629L364.636 147.626L364.148 147.975ZM363.975 147.789L363.459 147.484L363.199 147.923L363.591 148.249L363.975 147.789ZM365.38 144.404L365.422 143.806L364.924 143.77L364.799 144.254L365.38 144.404ZM365.632 144.391L365.53 143.8L365.527 143.8L365.632 144.391ZM368.25 143.939L368.352 144.53L368.362 144.528L368.372 144.526L368.25 143.939ZM368.687 142.688C368.682 142.845 368.624 142.996 368.523 143.116L369.441 143.889C369.716 143.563 369.873 143.153 369.887 142.726L368.687 142.688ZM368.687 139.517V142.707H369.887V139.517H368.687ZM368.523 139.108C368.624 139.228 368.682 139.379 368.687 139.536L369.887 139.498C369.873 139.071 369.716 138.662 369.441 138.335L368.523 139.108ZM368.129 138.873C368.283 138.905 368.422 138.988 368.523 139.108L369.441 138.335C369.166 138.009 368.79 137.784 368.372 137.698L368.129 138.873ZM365.53 138.425L368.148 138.877L368.352 137.694L365.734 137.242L365.53 138.425ZM365.432 138.42C365.464 138.417 365.496 138.419 365.527 138.424L365.737 137.243C365.602 137.219 365.464 137.213 365.327 137.225L365.432 138.42ZM363.459 134.743C364.055 135.751 364.506 136.838 364.799 137.972L365.961 137.672C365.64 136.429 365.145 135.237 364.492 134.132L363.459 134.743ZM363.659 133.901C363.638 133.931 363.614 133.957 363.587 133.98L364.364 134.895C364.467 134.807 364.559 134.707 364.637 134.597L363.659 133.901ZM365.188 131.733L363.658 133.904L364.638 134.595L366.169 132.424L365.188 131.733ZM365.291 131.304C365.304 131.46 365.264 131.617 365.178 131.748L366.179 132.409C366.415 132.052 366.523 131.627 366.486 131.201L365.291 131.304ZM365.104 130.885C365.212 131 365.277 131.147 365.291 131.304L366.486 131.201C366.45 130.776 366.271 130.375 365.979 130.064L365.104 130.885ZM362.858 128.639L365.117 130.899L365.966 130.05L363.706 127.791L362.858 128.639ZM362.453 128.465C362.609 128.479 362.757 128.545 362.871 128.652L363.693 127.778C363.382 127.485 362.981 127.306 362.555 127.27L362.453 128.465ZM362.009 128.578C362.14 128.492 362.296 128.452 362.453 128.465L362.555 127.27C362.13 127.233 361.704 127.341 361.348 127.577L362.009 128.578ZM359.853 130.099L362.024 128.568L361.333 127.587L359.162 129.118L359.853 130.099ZM359.779 130.167C359.801 130.141 359.825 130.118 359.853 130.099L359.163 129.117C359.05 129.196 358.948 129.29 358.86 129.395L359.779 130.167ZM355.785 128.957C356.919 129.25 358.006 129.702 359.014 130.298L359.625 129.264C358.52 128.611 357.328 128.117 356.085 127.796L355.785 128.957ZM355.333 128.226C355.338 128.259 355.34 128.293 355.337 128.326L356.533 128.427C356.544 128.291 356.538 128.155 356.515 128.022L355.333 128.226ZM354.881 125.608L355.333 128.226L356.515 128.022L356.063 125.403L354.881 125.608ZM354.65 125.232C354.77 125.333 354.853 125.472 354.884 125.626L356.06 125.385C355.974 124.967 355.75 124.589 355.423 124.314L354.65 125.232ZM354.222 125.068C354.379 125.073 354.53 125.131 354.65 125.232L355.423 124.314C355.096 124.039 354.686 123.882 354.259 123.869L354.222 125.068ZM351.046 125.069H354.24V123.869H351.046V125.069ZM350.637 125.232C350.757 125.131 350.908 125.073 351.065 125.068L351.028 123.869C350.601 123.882 350.191 124.039 349.864 124.314L350.637 125.232ZM350.403 125.626C350.434 125.472 350.517 125.333 350.637 125.232L349.864 124.314C349.537 124.589 349.313 124.967 349.227 125.385L350.403 125.626ZM349.954 128.226L350.406 125.608L349.224 125.403L348.772 128.022L349.954 128.226ZM349.95 128.324C349.947 128.292 349.948 128.26 349.954 128.229L348.772 128.019C348.748 128.154 348.742 128.292 348.754 128.429L349.95 128.324ZM346.273 130.297C347.281 129.701 348.368 129.25 349.502 128.957L349.202 127.796C347.959 128.117 346.767 128.611 345.662 129.265L346.273 130.297ZM345.434 130.099C345.462 130.118 345.486 130.141 345.508 130.167L346.427 129.395C346.339 129.29 346.237 129.196 346.124 129.117L345.434 130.099ZM343.263 128.568L345.433 130.099L346.125 129.118L343.954 127.587L343.263 128.568ZM342.833 128.465C342.99 128.452 343.147 128.492 343.278 128.578L343.939 127.577C343.582 127.341 343.156 127.233 342.731 127.269L342.833 128.465ZM342.413 128.652C342.528 128.544 342.676 128.478 342.833 128.465L342.731 127.269C342.305 127.306 341.904 127.485 341.592 127.777L342.413 128.652ZM340.168 130.899L342.427 128.639L341.578 127.791L339.319 130.05L340.168 130.899ZM339.996 131.303C340.009 131.147 340.074 130.999 340.182 130.884L339.305 130.065C339.014 130.377 338.836 130.777 338.8 131.203L339.996 131.303ZM340.109 131.748C340.022 131.617 339.983 131.46 339.996 131.303L338.8 131.203C338.764 131.628 338.872 132.053 339.107 132.409L340.109 131.748ZM341.629 133.904L340.099 131.733L339.118 132.424L340.648 134.595L341.629 133.904ZM341.701 133.983C341.674 133.96 341.65 133.933 341.63 133.904L340.648 134.594C340.725 134.704 340.816 134.804 340.918 134.892L341.701 133.983ZM340.488 137.972C340.781 136.838 341.231 135.751 341.826 134.742L340.793 134.133C340.14 135.238 339.647 136.43 339.326 137.673L340.488 137.972ZM339.759 138.424C339.791 138.419 339.823 138.417 339.855 138.42L339.959 137.225C339.823 137.213 339.685 137.219 339.55 137.243L339.759 138.424ZM337.139 138.877L339.757 138.425L339.553 137.242L336.935 137.694L337.139 138.877ZM336.763 139.108C336.865 138.987 337.003 138.905 337.157 138.873L336.916 137.698C336.498 137.784 336.12 138.008 335.845 138.335L336.763 139.108ZM336.6 139.536C336.605 139.379 336.662 139.228 336.763 139.108L335.845 138.335C335.57 138.662 335.413 139.072 335.4 139.499L336.6 139.536ZM336.6 142.707V139.517H335.4V142.707H336.6ZM336.763 143.117C336.662 142.997 336.605 142.846 336.6 142.689L335.4 142.726C335.413 143.153 335.57 143.563 335.845 143.89L336.763 143.117ZM337.157 143.351C337.003 143.32 336.865 143.237 336.763 143.117L335.845 143.89C336.12 144.216 336.498 144.441 336.916 144.527L337.157 143.351ZM339.757 143.8L337.139 143.348L336.935 144.53L339.553 144.982L339.757 143.8ZM339.865 143.806C339.83 143.808 339.794 143.806 339.759 143.8L339.55 144.982C339.682 145.005 339.816 145.012 339.949 145.003L339.865 143.806ZM341.826 147.484C341.231 146.476 340.78 145.388 340.488 144.254L339.326 144.554C339.646 145.797 340.14 146.989 340.793 148.094L341.826 147.484ZM341.631 148.321C341.65 148.293 341.674 148.267 341.7 148.245L340.919 147.333C340.816 147.422 340.724 147.523 340.647 147.634L341.631 148.321ZM340.099 150.494L341.629 148.323L340.648 147.632L339.118 149.803L340.099 150.494ZM339.996 150.922C339.983 150.766 340.023 150.61 340.109 150.479L339.107 149.818C338.873 150.174 338.764 150.598 338.8 151.023L339.996 150.922ZM340.182 151.34C340.075 151.226 340.009 151.078 339.996 150.922L338.8 151.023C338.836 151.448 339.014 151.848 339.305 152.16L340.182 151.34ZM342.427 153.585L340.168 151.326L339.319 152.174L341.578 154.434L342.427 153.585ZM342.833 153.76C342.676 153.746 342.528 153.681 342.414 153.573L341.591 154.446C341.903 154.74 342.304 154.919 342.731 154.956L342.833 153.76ZM343.277 153.647C343.146 153.733 342.99 153.773 342.833 153.76L342.731 154.956C343.157 154.992 343.583 154.883 343.94 154.647L343.277 153.647ZM345.433 152.126L343.263 153.657L343.954 154.637L346.125 153.106L345.433 152.126ZM345.511 152.057C345.489 152.082 345.464 152.104 345.437 152.123L346.121 153.109C346.234 153.031 346.336 152.939 346.424 152.834L345.511 152.057ZM349.536 153.275C348.39 152.983 347.291 152.53 346.272 151.929L345.662 152.962C346.779 153.621 347.983 154.118 349.239 154.438L349.536 153.275ZM349.978 154.138C349.968 154.08 349.968 154.021 349.978 153.963L348.797 153.751C348.761 153.949 348.761 154.152 348.797 154.35L349.978 154.138ZM350.382 156.475L349.979 154.142L348.796 154.347L349.199 156.679L350.382 156.475ZM350.673 156.951C350.522 156.824 350.418 156.649 350.378 156.456L349.203 156.698C349.297 157.156 349.543 157.568 349.901 157.869L350.673 156.951ZM351.211 157.156C351.014 157.15 350.824 157.078 350.673 156.951L349.901 157.869C350.259 158.17 350.707 158.341 351.174 158.355L351.211 157.156ZM354.094 157.156H351.193V158.356H354.094V157.156ZM354.614 156.951C354.463 157.078 354.273 157.15 354.076 157.156L354.112 158.355C354.58 158.341 355.028 158.17 355.386 157.869L354.614 156.951ZM354.909 156.456C354.869 156.649 354.765 156.824 354.614 156.951L355.386 157.869C355.744 157.568 355.99 157.156 356.084 156.698L354.909 156.456ZM355.308 154.142L354.905 156.475L356.088 156.679L356.491 154.347L355.308 154.142ZM355.309 153.961C355.319 154.02 355.319 154.081 355.309 154.14L356.49 154.349C356.525 154.152 356.525 153.95 356.49 153.752L355.309 153.961ZM359.014 151.929C357.996 152.53 356.897 152.983 355.751 153.275L356.048 154.438C357.304 154.118 358.508 153.621 359.624 152.962L359.014 151.929ZM359.853 152.127C359.825 152.108 359.801 152.086 359.779 152.06L358.86 152.831C358.948 152.937 359.05 153.03 359.163 153.109L359.853 152.127ZM362.024 153.656L359.853 152.128L359.162 153.109L361.333 154.637L362.024 153.656ZM362.453 153.76C362.297 153.773 362.14 153.733 362.01 153.647L361.347 154.647C361.703 154.883 362.129 154.992 362.554 154.956L362.453 153.76ZM362.872 153.574C362.757 153.681 362.61 153.747 362.453 153.76L362.554 154.956C362.98 154.92 363.381 154.742 363.692 154.45L362.872 153.574ZM365.117 151.328L362.858 153.588L363.706 154.436L365.966 152.176L365.117 151.328ZM365.292 150.922C365.278 151.079 365.212 151.226 365.104 151.341L365.978 152.163C366.271 151.852 366.451 151.45 366.487 151.024L365.292 150.922ZM365.178 150.477C365.265 150.608 365.305 150.765 365.292 150.922L366.487 151.024C366.524 150.598 366.415 150.172 366.179 149.815L365.178 150.477ZM363.658 148.321L365.188 150.492L366.169 149.8L364.638 147.629L363.658 148.321ZM363.591 148.249C363.617 148.271 363.64 148.297 363.66 148.325L364.636 147.626C364.557 147.515 364.464 147.416 364.36 147.329L363.591 148.249ZM364.799 144.254C364.506 145.388 364.055 146.475 363.459 147.484L364.492 148.094C365.145 146.989 365.64 145.797 365.961 144.554L364.799 144.254ZM365.527 143.8C365.492 143.806 365.457 143.808 365.422 143.806L365.337 145.003C365.471 145.012 365.605 145.005 365.737 144.982L365.527 143.8ZM368.148 143.348L365.53 143.8L365.734 144.982L368.352 144.53L368.148 143.348ZM368.523 143.116C368.422 143.237 368.283 143.319 368.129 143.351L368.372 144.526C368.79 144.44 369.166 144.216 369.441 143.889L368.523 143.116Z" fill="#0F141F" mask="url(#path-27-inside-1_1918_13686)"/>
<circle cx="352.643" cy="141.112" r="5.71996" fill="white" stroke="#0F141F" stroke-width="0.6"/>
<path d="M392 106V127H409" stroke="#0F141F" stroke-width="0.6" stroke-linecap="square"/>
</svg>
